<svg xmlns="http://www.w3.org/2000/svg" width="24.294" height="24.292" viewBox="0 0 24.294 24.292">
  <g id="edit-svgrepo-com" transform="translate(0 -0.028)">
    <path id="Path_1033" data-name="Path 1033" d="M22.721,1.6a5.358,5.358,0,0,0-7.583,0L1.234,15.5a.7.7,0,0,0-.2.4l-1.03,7.63a.693.693,0,0,0,.2.585.707.707,0,0,0,.492.207.563.563,0,0,0,.093-.005l4.6-.621A.7.7,0,0,0,5.2,22.306l-3.686.5.72-5.321,5.6,5.6a.707.707,0,0,0,.492.207.685.685,0,0,0,.492-.207l13.9-13.9a5.355,5.355,0,0,0,0-7.583ZM15.407,3.309l2.335,2.335L5.054,18.33,2.719,16ZM8.331,21.6,6.048,19.319,18.735,6.632l2.283,2.283ZM21.991,7.915,16.406,2.33a3.968,3.968,0,0,1,5.585,5.585Z" transform="translate(0)"/>
  </g>
</svg>
