<?xml version="1.0" encoding="utf-8"?>
<!-- Generator: Adobe Illustrator 26.2.1, SVG Export Plug-In . SVG Version: 6.00 Build 0)  -->
<svg version="1.1" id="Lag_1" xmlns="http://www.w3.org/2000/svg" xmlns:xlink="http://www.w3.org/1999/xlink" x="0px" y="0px"
	 viewBox="0 0 500 500" style="enable-background:new 0 0 500 500;" xml:space="preserve">
<style type="text/css">
	.st0{display:none;fill:#FFFFFF;}
	.st1{fill:#DBC197;}
	.st2{fill:#E3CAA7;}
	.st3{fill:#F5EEE3;}
	.st4{fill:#EFE3D0;}
	.st5{fill:#E7D4B8;}
	.st6{fill:#EBDCC4;}
	.st7{fill:#E8D2B5;}
	.st8{display:none;fill:#FFFFFE;}
	.st9{display:none;fill:#FEFEFD;}
	.st10{display:none;fill:#FFFEFE;}
	.st11{fill:#74CA98;}
	.st12{display:none;fill:#FEFDFC;}
	.st13{fill:#509A80;}
	.st14{fill:#4D987D;}
	.st15{fill:#73BE9C;}
	.st16{fill:#E0C7A2;}
	.st17{fill:#76CB97;}
	.st18{fill:#63AC91;}
	.st19{fill:#B1E5BE;}
	.st20{fill:#CCEFD0;}
	.st21{fill:#4E997E;}
	.st22{fill:#77CD98;}
	.st23{fill:#60A98E;}
	.st24{display:none;fill:#FDFCFA;}
	.st25{fill:#8FD6A7;}
	.st26{fill:#D0F0D2;}
	.st27{fill:#88D3A2;}
	.st28{fill:#FFFFFE;}
	.st29{fill:#FFFEFE;}
	.st30{fill:url(#SVGID_1_);}
	.st31{fill:url(#SVGID_00000174590060976026236550000012962101124023581626_);}
	.st32{fill:url(#SVGID_00000101070321132807437590000010799131379611045050_);}
	.st33{fill:url(#SVGID_00000041274370098053809700000014705731670360993975_);}
	.st34{fill:url(#SVGID_00000008840276073427435330000009002901994789480359_);}
	.st35{fill:url(#SVGID_00000016758730679569073140000017631183343748046506_);}
	.st36{fill:url(#SVGID_00000052069545351378331730000017145402731616901265_);}
</style>
<g>
	<path class="st0" d="M1.8,31.2c165.5,0,331,0,496.5,0c0,145.9,0,291.7,0,437.6c-165.5,0-331,0-496.5,0
		C1.8,322.9,1.8,177.1,1.8,31.2z M372.5,127.1c0.1,0,0.1,0.1,0.2,0.1C372.7,127.2,372.6,127.2,372.5,127.1s-0.2-0.2-0.3-0.4
		c-0.2-0.9-0.8-1.4-1.7-1.7c-0.1-0.1-0.2-0.2-0.3-0.3c-0.1-0.1-0.2-0.2-0.3-0.3c-0.1-0.2-0.2-0.4-0.3-0.6c-0.1-0.1-0.2-0.2-0.3-0.3
		c-0.1-0.1-0.2-0.2-0.3-0.3c-0.1-0.1-0.2-0.2-0.3-0.3c-0.1-0.1-0.2-0.2-0.3-0.3c-0.1-0.1-0.2-0.2-0.3-0.3c-0.1-0.1-0.2-0.2-0.3-0.3
		c-0.3-0.5-0.6-1-1-1.4c-2.9-2.8-5.8-5.7-8.8-8.4c-0.4-0.3-0.9-0.5-1.4-0.7c0-0.6-0.4-0.9-1-1c-0.2-0.8-0.8-1.3-1.6-1.3
		c-0.2-0.2-0.4-0.4-0.7-0.7c-0.6-0.4-1.1-0.9-1.7-1.3s-1.1-0.9-1.7-1.3c-0.1-0.5-0.5-0.7-1-0.7c-0.5-0.5-1-1.2-1.5-1.6
		c-1.9-1.4-3.8-2.7-5.8-4c-0.5-0.5-1.1-0.9-1.6-1.4c-1.2-1.3-2.3-2.7-3.5-4c-4-4.1-8-8.2-12.4-11.9c-6-5-12.3-9.6-19.2-13.4
		C296.2,64,287,60.5,277.3,58c-8-2.1-16.1-3.4-24.4-4c-4.7-0.3-9.4-0.7-14.2-0.9c-2.4-0.1-4.8,0.1-7.3,0.2c-4.3,0.2-8.7,0.4-13,0.7
		c-4,0.3-8,0.6-12,1.1c-5.3,0.7-10.6,1.6-15.9,2.5c-8.7,1.5-17.3,3.7-25.7,6.4c-9.2,3-18.1,6.7-26.6,11.3c-0.9,0.5-1.7,1-2.5,1.6
		c-0.2,0.1-0.4,0.1-0.6,0.2c-7.3,4.2-14.3,8.9-20.7,14.3c-5.4,4.5-10.7,9.2-15.4,14.4c-2.6,2.9-5.3,5.7-7.7,8.8
		c-3.5,4.4-7.1,8.9-10.2,13.5c-3.6,5.3-6.8,10.8-10.1,16.2c-1,1.7-1.8,3.5-2.7,5.3c-0.6,0.9-1.1,1.8-1.7,2.6
		c-3.2,4.3-6.5,8.4-9.6,12.8c-5.4,7.8-9.8,16.2-13.3,25c-2.9,7.3-5.2,14.8-6.9,22.5c-1.1,5.4-2.1,10.8-2.6,16.2
		c-0.4,4.6-0.7,9.2-1,13.8c-0.4,0.3-0.4,0.6,0,1c-0.1,1.8-0.3,3.5-0.3,5.3c0.1,4.5,0.3,8.9,0.6,13.3c0.2,3.5,0.3,6.9,0.8,10.4
		c0.8,6.1,1.6,12.2,2.7,18.3c1.6,9,3.9,18,6.8,26.7c1.8,5.3,3.7,10.5,5.7,15.7c2.5,6.5,5.6,12.8,9,19c3.9,7.2,8.2,14.1,13,20.6
		c3.8,5.2,7.7,10.2,12.1,14.8c7,7.5,14.5,14.6,22.7,20.9c7.8,5.9,16.1,11.2,24.8,15.7c6.2,3.2,12.7,5.9,19.3,8.3
		c4.1,1.5,8.1,3.2,12.2,4.6c7.2,2.3,14.4,4.5,21.8,5.9c4.8,0.9,9.6,1.8,14.4,2.5c3,0.5,6.1,0.8,9.2,1c3.5,0.3,7,0.8,10.5,0.8
		c4.5,0.1,9,0.5,13.5,0.2c2.8-0.2,5.6-0.2,8.4-0.4c5.2-0.4,10.3-0.7,15.4-1.4c5.2-0.6,10.5-1.4,15.6-2.5c6-1.3,12-2.7,17.9-4.4
		c13-3.6,25.6-8.5,37.6-14.8c7.8-4.1,15.4-8.6,22.5-13.7c6.9-5,13.5-10.5,19.6-16.4c2.3-2.2,4.5-4.6,6.6-6.9
		c1.6-1.8,3.3-3.6,4.8-5.5c3.9-4.8,7.6-9.9,10.9-15.1c5-7.9,9.3-16.3,12.8-25c2.4-5.9,4.5-11.9,6.1-18.1c1.3-5.3,2.4-10.6,3.6-15.9
		c0.4-2,0.8-4.1,1.1-6.2c0.4,0,0.6-0.1,0.9,0c3.9,0.9,7.9,1.6,11.9,1.8c2.8,0.1,5.5,0.3,8.2-0.1c0.1,0,0.3,0,0.4,0
		c4.5-0.1,8.8-1.2,13.1-2.5c3.7-1.2,6.7-3.6,9.8-5.7c3.6-2.5,6.9-5.5,10-8.6c1.4-1.4,2.8-2.6,4.2-4c1.2-1.2,2.2-2.6,3.3-3.8
		c-0.8-1.3-2-1.6-3.1-2c-2.4-0.9-4.7-1.9-6.8-3.3c-4.5-3-9.3-5.2-14.5-6.7c-7.1-2.1-14.2-3.3-21.6-2.7c-4.5,0.3-8.7,1.4-12.6,3.5
		c-0.4,0.2-0.9,0.4-1.4,0.6c-0.2-2-0.3-3.9-0.4-5.7c-0.2-1.9-0.4-3.8-0.6-5.7c-0.2-2.3-0.6-4.7-0.8-7c-0.2-2.7-0.2-5.5-0.3-8.2
		c-0.2-6-1.7-11.7-4.9-16.9c-0.2-0.3-0.4-0.7-0.5-1c-1.4-4.5-2.7-9.1-4.4-13.5c-2.5-6.5-5-13-7.9-19.4c-2.3-5.1-4.9-10-7.5-14.9
		c-3.4-6.5-7.4-12.7-11.4-18.8c-0.8-1.3-1.9-2.5-2.5-3.8c-4.3-8.6-8.9-17-14-25.1c-4.2-6.5-8.6-12.9-13.3-19c-1.6-2-3.1-4-4.7-6
		c0.6,0.2,1.2,0.4,1.8,0.7c1.2,0.7,2.3,1.6,3.5,2.4c0.3,0.2,0.6,0.5,1,0.7c0.6,0.4,1.1,0.9,1.7,1.3s1.1,0.9,1.7,1.3
		c0.2,0.2,0.4,0.4,0.7,0.6c0.5,0.4,1.1,0.9,1.6,1.3c0.3,0.3,0.7,0.7,1,1c1.4,1.4,2.9,2.7,4.3,4.1c1.9,1.8,3.7,3.7,5.5,5.5
		c0.4,0.4,1,0.7,1.4,1c0.1,0.1,0.2,0.2,0.3,0.3c0.1,0.1,0.2,0.2,0.3,0.3c0.1,0.1,0.2,0.2,0.3,0.3c0.1,0.1,0.2,0.2,0.3,0.3
		c0.1,0.1,0.2,0.2,0.3,0.3c0,0.1,0,0.2,0,0.3c0.2,0.2,0.4,0.5,0.6,0.7c0.1,0.1,0.2,0.2,0.3,0.3c0.1,0.1,0.2,0.2,0.3,0.3
		c0.2,0.9,0.8,1.4,1.6,1.7C372.3,126.9,372.4,127,372.5,127.1z M385.5,144c0,0.5,0,1,0.7,1c0.1,0.3,0.2,0.6,0.2,0.9
		c0.1-0.1,0.2-0.1,0.3-0.2c-0.2-0.2-0.4-0.5-0.6-0.7C385.9,144.7,385.7,144.3,385.5,144s-0.4-0.7-0.7-1c-0.1-0.2-0.3-0.3-0.4-0.5
		l-0.1,0.1c0.2,0.1,0.3,0.3,0.5,0.4C384.8,143.5,384.8,144,385.5,144z M387.4,147.3c-0.1-0.3-0.2-0.6-0.2-0.9
		c-0.1,0.1-0.2,0.1-0.3,0.2C387,146.8,387.2,147.1,387.4,147.3c0.1,0.5,0.2,1,0.9,1.3C388.2,147.9,388.1,147.4,387.4,147.3z
		 M373.2,128.1c-0.1,0-0.1-0.1-0.2-0.1C373.1,128,373.1,128.1,373.2,128.1c0.1,0.8,0.5,1.2,1.3,1.4c0,1,0.6,1.5,1.7,2
		c-0.4-1.1-1-1.6-1.6-2.1C374.4,128.7,374,128.2,373.2,128.1z M377.5,133.1c-0.1-0.6-0.4-1.1-1.1-1.2c-0.1,0.1-0.2,0.2-0.3,0.3
		C376.6,132.5,377.1,132.8,377.5,133.1c0.3,1.2,0.3,1.2,1.5,1.5C378.4,133.9,378,133.5,377.5,133.1z M391.4,153.9
		c-0.1-0.3-0.2-0.6-0.3-0.9c-0.1,0.1-0.2,0.1-0.3,0.2C391,153.5,391.2,153.7,391.4,153.9c0,0.9,0.4,1.6,1.1,2.3
		C392.3,154.8,392.3,154.8,391.4,153.9z M381.8,139c0-0.6,0-1.1-1.2-1.2C381.2,138.4,381.5,138.7,381.8,139c0.5,0.8,1.1,1.6,1.6,2.3
		c0.1,0.2,0.3,0.3,0.4,0.5l0.1-0.1c-0.2-0.1-0.3-0.3-0.5-0.4C383.3,140.3,382.9,139.4,381.8,139z M404.9,200.6
		c0.9-5.3-1.8-20.7-3.7-23.6c0.9,4.1,1.8,7.9,2.4,11.8C404.2,192.8,404.5,196.8,404.9,200.6z M400,173.2c-0.3-3-5.6-15.1-7.2-16.6
		C395.2,162.3,397.6,167.7,400,173.2z M390.3,152.5c0.1-0.1,0.2-0.1,0.4-0.2c-0.2-0.6-0.3-1.2-0.9-1.6c-0.1,0.1-0.2,0.1-0.3,0.2
		C389.7,151.5,390,152,390.3,152.5z M389,150.2c0.1-0.1,0.2-0.1,0.3-0.2c-0.2-0.3-0.4-0.7-0.5-1c-0.1,0.1-0.2,0.1-0.3,0.2
		C388.7,149.6,388.9,149.9,389,150.2z M380.2,136.4c-0.1,0.1-0.2,0.2-0.3,0.3c0.2,0.2,0.5,0.4,0.7,0.6c0.1-0.1,0.1-0.1,0.2-0.2
		C380.5,136.9,380.3,136.6,380.2,136.4z M379.5,136c0.1-0.1,0.2-0.2,0.3-0.3c-0.2-0.2-0.5-0.4-0.7-0.6c-0.1,0.1-0.1,0.1-0.2,0.2
		C379.1,135.6,379.3,135.8,379.5,136z"/>
	<path class="st1" d="M135.7,76.6c0.8-0.5,1.6-1.1,2.5-1.6c8.5-4.5,17.4-8.3,26.6-11.3c8.4-2.7,17-4.9,25.7-6.4
		c5.3-0.9,10.6-1.8,15.9-2.5c4-0.5,8-0.8,12-1.1c4.3-0.3,8.7-0.5,13-0.7c2.4-0.1,4.8-0.3,7.3-0.2c4.7,0.2,9.4,0.5,14.2,0.9
		c8.2,0.6,16.4,2,24.4,4c9.6,2.5,18.9,6,27.6,10.9c6.8,3.8,13.2,8.4,19.2,13.4c4.4,3.7,8.4,7.8,12.4,11.9c1.2,1.3,2.3,2.7,3.5,4
		c0.5,0.5,1,1,1.6,1.4c0.2,0.4,0.3,0.9,0.5,1.3c0.4,0.5,1,0.9,1.5,1.3c1.6,2,3.1,4,4.7,6c4.8,6.1,9.2,12.5,13.3,19
		c5.1,8.1,9.8,16.5,14,25.1c0.7,1.4,1.7,2.6,2.5,3.8c4,6.1,8,12.3,11.4,18.8c2.6,4.9,5.3,9.8,7.5,14.9c2.8,6.4,5.4,12.9,7.9,19.4
		c1.7,4.4,2.9,9,4.4,13.5c0.1,0.4,0.3,0.7,0.5,1c3.2,5.2,4.7,10.9,4.9,16.9c0.1,2.7,0.1,5.5,0.3,8.2c0.2,2.4,0.5,4.7,0.8,7
		c0.2,1.9,0.4,3.8,0.6,5.7c0.2,1.8,0.3,3.7,0.4,5.7c0.6-0.2,1-0.4,1.4-0.6c3.9-2.1,8.1-3.1,12.6-3.5c7.4-0.6,14.6,0.6,21.6,2.7
		c5.2,1.5,10,3.8,14.5,6.7c2.1,1.4,4.5,2.3,6.8,3.3c1.1,0.4,2.3,0.7,3.1,2c-1.1,1.3-2.1,2.6-3.3,3.8c-1.3,1.4-2.8,2.6-4.2,4
		c-3.1,3.1-6.4,6.1-10,8.6c-3.1,2.1-6.1,4.6-9.8,5.7c-4.3,1.4-8.6,2.4-13.1,2.5c-0.1,0-0.3,0-0.4,0c-2.7,0.4-5.5,0.2-8.2,0.1
		c-4-0.2-8-0.9-11.9-1.8c-0.3-0.1-0.5,0-0.9,0c-0.4,2.1-0.7,4.2-1.1,6.2c-1.1,5.3-2.2,10.7-3.6,15.9c-1.6,6.2-3.7,12.2-6.1,18.1
		c-3.5,8.7-7.7,17-12.8,25c-3.3,5.3-7,10.3-10.9,15.1c-1.5,1.9-3.1,3.7-4.8,5.5c-2.2,2.3-4.3,4.7-6.6,6.9
		c-6.1,5.9-12.7,11.4-19.6,16.4c-7.2,5.2-14.7,9.6-22.5,13.7c-12,6.3-24.5,11.2-37.6,14.8c-5.9,1.6-11.9,3.1-17.9,4.4
		c-5.2,1.1-10.4,1.8-15.6,2.5c-5.1,0.6-10.3,1-15.4,1.4c-2.8,0.2-5.6,0.1-8.4,0.4c-4.5,0.4-9-0.1-13.5-0.2c-3.5-0.1-7-0.5-10.5-0.8
		c-3.1-0.3-6.1-0.6-9.2-1c-4.8-0.7-9.6-1.6-14.4-2.5c-7.4-1.4-14.7-3.5-21.8-5.9c-4.1-1.4-8.1-3.1-12.2-4.6
		c-6.6-2.4-13-5.1-19.3-8.3c-8.7-4.5-17-9.7-24.8-15.7c-8.2-6.2-15.7-13.3-22.7-20.9c-4.3-4.7-8.3-9.7-12.1-14.8
		c-4.8-6.6-9.1-13.5-13-20.6c-3.3-6.1-6.4-12.4-9-19c-2-5.2-4-10.4-5.7-15.7c-2.9-8.7-5.2-17.6-6.8-26.7c-1.1-6.1-1.9-12.2-2.7-18.3
		c-0.4-3.4-0.6-6.9-0.8-10.4c-0.2-4.4-0.5-8.9-0.6-13.3c-0.1-1.8,0.2-3.5,0.3-5.3c0.4-0.3,0.4-0.6,0-1c0.3-4.6,0.6-9.2,1-13.8
		c0.5-5.5,1.4-10.9,2.6-16.2c1.6-7.7,3.9-15.2,6.9-22.5c3.5-8.8,7.9-17.2,13.3-25c3-4.4,6.4-8.5,9.6-12.8c0.6-0.8,1.1-1.7,1.7-2.6
		c0.9,0.2,1.3-0.5,1.6-1.2c0.1-0.3,0.2-0.6,0.3-0.8l0,0c1,0,1.2-1,1.8-1.6c3.5-3.3,6.9-6.8,10.5-10.1c2.5-2.3,5.1-4.4,7.7-6.5
		c3.5-3,7.6-5.3,10.8-8.6c1.2,0.7,1.7-0.4,2.4-0.9c0-0.1,0-0.3,0-0.4l0,0c0.2-0.1,0.5-0.2,0.7-0.3l0,0c0.4-0.2,0.8-0.3,1.2-0.6
		c9.3-6,19-11.1,29.1-15.6c11.2-5,22.7-9.1,34.4-12.5c13.8-4,27.8-7.2,42-9.1c6.5-0.9,13.1-1.6,19.6-2.2c3.8-0.3,7.6-0.4,11.4-0.4
		c3.6,0,7.3,0.1,10.9,0.3c3.3,0.2,6.6,0.3,9.9,0.7c4.6,0.6,9.2,1.4,13.8,2.2c10.3,2,20.2,5.4,29.7,9.8c8.6,4,16.8,8.8,24.5,14.4
		c6.5,4.7,12.7,9.7,18.4,15.3c3.5,3.4,6.9,7,10.2,10.6c2.5,2.7,4.8,5.6,7.2,8.4c1.4,1.6,2.7,3.3,4.1,4.9c0.1,0.2,0.3,0.4,0.4,0.6
		c0.1,0.1,0.2,0.2,0.4,0.3c0,0.1,0.1,0.3,0.1,0.4c0.1,0,0.1-0.1,0.2-0.1c-0.1-0.1-0.2-0.2-0.3-0.4c-0.1-0.1-0.2-0.2-0.3-0.4
		c-0.1-0.2-0.2-0.5-0.3-0.7c-0.2-0.5-0.4-1-0.7-1.5c-3.6-6.1-7-12.2-10.7-18.2c-4.3-6.9-9.1-13.4-14.1-19.7c-2.4-3-5.1-5.9-7.7-8.8
		c0-1.3-1.2-1.3-1.9-2c-0.5-0.7-0.9-1.4-1.4-2c-4.9-5.1-10.1-9.8-15.7-14.2c-5.9-4.6-12.2-8.5-18.8-11.8c-6.3-3.1-12.9-5.6-19.7-7.5
		c-5.8-1.6-11.6-2.9-17.6-3.7c-2.9-0.4-5.9-0.7-8.8-1c-3.6-0.3-7.2-0.8-10.8-0.8c-5.3-0.1-10.7,0-16,0.2c-4.4,0.2-8.9,0.5-13.3,1
		c-5,0.5-9.9,1-14.9,1.7c-6.6,1-13.2,2.3-19.7,3.9c-13,3.2-25.6,7.6-37.6,13.7c-1.7,0.8-3.3,1.7-5,2.6
		C136,76.8,135.9,76.7,135.7,76.6z M405,278.9L405,278.9c-0.1,0.1-0.2,0.2-0.3,0.3l0,0c-0.1,0.1-0.2,0.2-0.3,0.3l0,0
		c-1.5,1.5-3.1,3-4.4,4.6c-1.7,2-3.3,4.2-5,6.4c-0.2,0.2-0.3,0.6-0.4,0.8c0.5,0.6,1,0.5,1.5,0.3c1.3-0.5,2.6-1.1,3.9-1.7
		c1.4-0.6,2.8-2.5,2.1-4.3c-0.3-0.7-0.4-1.5,0.2-2.2c0.2,1,0.5,2.1,0.7,3.1c0.2,1.4,0.8,1.8,2.1,1.3c0.7-0.3,1.4-0.5,2.2-0.8
		c1.6-0.5,3.1-1,4.7-1.6c1.3,0,2-0.7,2.3-1.9c0.3-1.5,0.6-3,0.6-4.5c0.2-3.1,1.1-5.8,2.9-8.2c0.3-0.4,0.5-0.9,0.8-1.3
		c-0.1-0.1-0.2-0.2-0.3-0.3c-1.8,0.8-3.4,1.9-5,3c-0.5,0.4-1.1,0.9-1.6,1.3c-0.2,0.1-0.5,0.2-0.7,0.3l0,0c-0.1,0.1-0.2,0.2-0.3,0.3
		l0,0c-2.1,1-3.6,2.8-5.3,4.3C405.2,278.7,405.1,278.8,405,278.9z M129.4,421.5c-0.1,0-0.1-0.1-0.2-0.1
		C129.3,421.4,129.4,421.4,129.4,421.5c0.1,0.1,0.3,0.1,0.4,0.1C129.7,421.6,129.6,421.5,129.4,421.5z M126.5,419.8
		c-0.1-0.1-0.2-0.2-0.3-0.3c-0.2-0.1-0.4-0.2-0.6-0.3c-0.3-0.2-0.7-0.4-1-0.7c-1.2-1.1-2.6-2-4.2-2.5c1.3,1,2.5,2.2,4.1,2.5
		c0.3,0.2,0.7,0.4,1,0.7c0.2,0.1,0.4,0.2,0.7,0.3C126.2,419.6,126.4,419.7,126.5,419.8c0.2,0,0.3,0.1,0.5,0.1
		C126.8,419.9,126.6,419.9,126.5,419.8z M384.1,267.4c0.1,0.1,0.2,0.2,0.3,0.3l0,0c0.3,0.5,0.7,1.1,1,1.6l0,0c0.2,0.3,0.4,0.7,0.7,1
		c0.1,0.2,0.2,0.4,0.3,0.6c1,1.2,1.9,2.5,2.9,3.7c0.1,0.1,0.3,0.2,0.4,0.3l0,0c0.1,0.2,0.1,0.6,0.3,0.7c2,2.2,4,4.3,6.1,6.4
		c0.6,0.6,1.3,1,2.2,1.6c0.3-0.5,0.6-0.9,0.9-1.3c0.7-0.6,0.7-1.2,0.4-2c-0.6-1.8-1.5-3.1-4.1-2.9c-0.8,0.1-1.7-0.2-2.5-0.3
		c0.6-0.1,1.1-0.3,1.7-0.4c0.8-0.1,1.5-0.1,2.3-0.3c0.9-0.2,1.2-0.7,1-1.6c-0.2-0.8-0.6-1.6-0.9-2.5c-0.3-1.5-0.7-3.1-1-4.6
		c0-1.6-0.7-2.5-2.3-2.8c-1.3-0.3-2.7-0.7-4-0.9c-3.2-0.5-6-1.7-8.4-3.9c-0.3-0.3-0.6-0.5-1-0.7c-0.1,0.1-0.2,0.1-0.3,0.2
		c0.7,1.9,1.5,3.7,2.7,5.4c0.1,0.1,0.2,0.2,0.3,0.3l0,0c0.2,0.3,0.4,0.7,0.6,1C383.9,266.9,384,267.1,384.1,267.4L384.1,267.4z
		 M93,128.8L93,128.8c-0.2,0.1-0.4,0.2-0.7,0.3l0,0c-4,2.7-7.5,6-11,9.2c-3,2.8-6,5.7-8.8,8.8s-5.9,5.9-7.7,9.8
		c-1.2-0.4-1.3,0.6-1.7,1.2c-0.4,0.5-0.7,1.1-1.1,1.6c-5.6,7.4-10.3,15.3-14.3,23.7c-3.7,7.8-6.5,16-8.7,24.4
		c-2.2,8.8-3.6,17.7-4.2,26.7c-0.4,5.3-0.5,10.7-0.6,16c-0.1,2.2,0.1,4.4,0.3,6.6c0.1,2.4,0.1,4.8,0.4,7.2c0.5,4.8,0.9,9.6,1.6,14.4
		c0.6,4.6,1.3,9.1,2.3,13.6c1.4,6.4,2.9,12.7,4.7,19.1c2.8,10.3,6.6,20.2,11.2,29.8c4.8,10.2,10.4,19.9,17,29.1
		c5.1,7.1,10.6,13.8,16.7,20c3.9,4.1,8.1,7.9,12.5,11.6c5.7,4.9,11.7,9.3,18,13.3c0.2,0.1,0.4,0.2,0.7,0.2c-0.1-0.5-0.4-0.7-0.6-0.9
		c-4.5-3.1-8.7-6.6-12.8-10.1c-2.9-2.6-5.6-5.4-8.3-8.2c-1.6-1.6-3-3.4-4.4-5.1c-0.2-0.3-0.3-0.7-0.5-1c0.5,0.3,1.1,0.5,1.4,0.9
		c2.6,3.4,5.7,6.3,8.7,9.3c0.4,0.3,0.7,0.7,1.1,1c1.7,1.4,3.3,2.8,5,4.2c1.2,1,2.3,2.1,3.6,3.1c1.5,1.2,3.1,2.4,4.7,3.5
		c2.7,1.9,5.4,3.9,8.2,5.7c2.1,1.3,4.2,2.5,6.4,3.7c4.1,2.2,8.2,4.4,12.3,6.4c2.1,1,4.2,1.9,6.4,2.7c10.8,3.7,21.9,6.2,33.2,7.5
		c5,0.5,10,1,15,1c0.6,0,1.1,0,1.7,0.1c5,0.5,9.9-0.2,14.8-0.3c1.5,0,3-0.1,4.4-0.3c4.3-0.5,8.6-0.9,12.9-1.6
		c5.8-0.9,11.6-1.9,17.3-3.2c9.6-2.1,19.1-4.8,28.4-8.2c6.7-2.4,13.3-5,19.7-8.1c9.8-4.6,19.2-9.9,27.9-16.3
		c5.2-3.8,10.2-7.7,14.8-12.2c2-2,4.1-4,6-6.1c3-3.3,5.9-6.7,8.7-10.2c4.1-5.3,7.8-10.9,11.1-16.8c4.3-7.4,8-15.1,11.3-22.9
		c3.8-9.2,7.1-18.6,9.9-28.2c0.6-2.2,1.2-4.3,1.8-6.5c-0.6-0.3-1.1-0.5-1.5-0.7c-0.3-1.2,0.4-1.9,1.3-2.5c0.8-0.5,1.4-1.1,1.6-2.2
		c0.7-3.4,1.4-6.8,2.1-10.2c0.2-1,0.1-1.8-0.7-2.5c-4.4-4.3-8.1-9.3-11.4-14.5c-1.5-2.4-2.9-4.8-3.9-7.4c-2.6-6.5-2.4-13.3-1.2-20
		c1.8-9.7,5.4-18.7,11.5-26.6c0.5-0.6,1-1.2,1.4-1.8c1.1-2,2.1-4.1,3.2-6.2c0.3-0.6,0.4-1.2,0.2-1.9c-0.4-1.5-0.7-3-1.1-4.5
		c-1.3-4.7-2.5-9.5-3.9-14.1c-2.3-7.2-4.8-14.3-7.9-21.2c-1.8-4.1-3.6-8.1-6.3-11.8c-5.4-7.3-11.1-14.4-17.4-20.9
		c-4.4-4.7-9-9.2-14-13.4c-4.3-3.7-8.7-7.2-13.4-10.4c-7.3-5.1-15-9.6-23.2-13.3c-7-3.2-14.3-5.8-21.7-7.8c-7.5-2-15.1-3.4-22.9-4
		c-4.8-0.4-9.5-0.7-14.3-0.9c-2.8-0.1-5.6,0.2-8.4,0.2c-6.2,0.1-12.4,0.5-18.6,1.3c-5.1,0.7-10.3,1.2-15.3,2.1
		c-8.4,1.5-16.8,3.3-25.1,5.4c-9.5,2.5-18.8,5.3-28.1,8.7c-9.7,3.5-19.1,7.6-28.3,12.4c-7.8,4-15.3,8.6-22.4,13.6c-1.5,1-3,2-4,3.6
		c-0.2,0.3-0.6,0.5-0.9,0.7c-0.1-0.2-0.2-0.4-0.4-0.6c-0.2,0.1-0.5,0.2-0.6,0.4c-0.1,0.2-0.2,0.5-0.2,0.7
		C93.4,128.6,93.2,128.7,93,128.8z M168.5,437.4c0.3,0,0.6,0.1,0.9,0.1c0.8,0.3,1.6,0.7,2.5,0.9c3,0.8,5.9,1.6,9,2.2
		c5.2,1.1,10.4,2.2,15.7,3c4.2,0.7,8.4,1.1,12.6,1.4c4.9,0.4,9.9,0.8,14.8,0.9c8,0.2,16-0.1,23.9-0.9c3.5-0.4,7-0.6,10.5-1.1
		c5.3-0.8,10.6-1.8,15.9-2.9c11.4-2.3,22.4-5.6,33.2-9.8c9.8-3.8,19.2-8.4,28.2-13.7c10.3-6,19.9-13,28.7-21.1
		c6.6-6,12.7-12.5,18.1-19.7c5.6-7.4,10.6-15.1,14.8-23.4c4.5-8.8,8.1-18,10.9-27.4c2.4-7.9,4.1-15.9,5.4-24c0.1-0.6,0-1.2,0-1.8
		c-3.9-1.2-7.7-2.5-11.6-3.6c-3-0.8-6.1-0.8-9.1,0.3c-1.4,0.5-2.3,1.4-2.7,3c-1.7,6-3.5,12-5.4,18c-3,9.2-6.7,18.1-10.9,26.8
		c-2.9,6-6.1,11.7-9.6,17.3c-5.3,8.4-11.3,16.3-18.2,23.5c-2.9,3-5.9,5.8-9,8.5c-3.9,3.3-7.9,6.5-12.1,9.5
		c-11.3,8-23.5,14.4-36.2,19.6c-9.7,4-19.7,7.3-29.9,10c-8.1,2.1-16.3,4-24.7,5.1c-3.5,0.5-7.1,1-10.6,1.3c-4,0.4-8.1,0.8-12.2,0.9
		c-8.1,0.2-16.3,0.4-24.4-0.6c-3.4-0.4-6.8-0.8-10.1-1.3c-2.4-0.3-4.9-0.7-7.3-1.1c-0.3-0.1-0.7-0.2-1-0.3c-0.8-0.3-1.5-0.7-2.4-0.2
		C166.8,436.9,167.7,437.1,168.5,437.4z M378.5,254.5c0.1,0.2,0.2,0.4,0.3,0.6c1.5,2.7,3.6,4.7,6.3,6.2c2.4,1.3,5,1.6,7.6,2.2
		c0.9,0.2,1.9,0.7,2.9,0.1c0.1-0.2,0.2-0.3,0.2-0.5c0-2.4,0.1-4.9-0.1-7.3c-0.2-2.7-1.5-4.8-4.3-5.9c-2.4-0.9-4.6-2.5-6.3-4.4
		c-2-2.2-3.6-4.7-4.9-7.4c-0.3-0.7-0.4-1.6-1.4-2.1c-0.3,1.3-0.6,2.5-0.8,3.6c-0.2,2.2-0.5,4.4-0.7,6.6c0,0.2,0,0.5,0,0.7
		c0,0.7,0,1.4,0,2.1C377.2,250.9,377.5,252.8,378.5,254.5L378.5,254.5z M411.9,250.5c0.2-1,0.4-2,0.6-2.9c0-0.1-0.2-0.2-0.3-0.3
		c-0.5,0.4-1.1,0.7-1.5,1.1c-1,1.1-2,2.4-3,3.5c-1.9,2.1-3.9,4-5.7,6.1c-1.9,2.1-3.4,4.4-3.3,7.5c-0.7,2.3-0.1,4.5,0.6,6.6
		c0.1,0.7,0,1.4,0.8,1.9c0.4-0.6,0.8-1.3,1.2-1.9c0.4-0.4,0.9-0.7,1.3-1c-0.2,0.4-0.4,0.8-0.6,1.2c-0.4,0.9-1,1.9-1.2,2.8
		c-0.4,1.6-0.4,3.3,0.5,5c1.1-1.1,2.2-1.9,2.5-3.5c0.4-1.5,1.1-3,1.7-4.4s1.1-2.7,1.7-4.1c0,0,0.1,0,0.1-0.1v-0.1l-0.1,0.1
		c-0.6,0.3-1.4,0.5-1.9,0.9c-0.9,0.6-1.8,1.4-2.7,2.1c0.1-0.4,0.2-0.9,0.4-1.2c0.8-0.9,1.7-1.7,2.6-2.5c2-1.7,4-3.4,4.5-6.2
		c0.2-1.1,0.4-2.3,0.6-3.4C411.2,255.3,411.5,252.9,411.9,250.5L411.9,250.5z M431.3,300.1c0.8,0.5,1.6,0.6,2.4,0
		c-0.3-0.4-0.6-0.9-1-1.2c-2.1-1.7-4.2-3.3-6.3-4.9c-1.7-1.3-3.3-2.6-5.1-3.8c-2-1.3-4.2-2.3-6.7-2.3c-2.3-0.2-4.4,0.5-6.6,1
		c-0.6,0.3-1.2,0.6-2,1c1.2,0.7,2.2,1.2,3.1,1.9c1.9,1.5,3.6,3.2,5.4,4.8c1.6,1.5,3.4,2.6,5.7,2.6c1.2,0,2.4,0.2,3.6,0.4
		c2.3,0.2,4.7,0.4,7,0.6C431,300.1,431.2,300.1,431.3,300.1z M408.7,273c0.3-0.2,0.7-0.3,1-0.5c1.5-1.1,2.9-2.3,4.5-3.4
		c0.9-0.6,1.2-1.3,1.1-2.3c-0.3-3.7-0.5-7.4-0.8-11c0-0.4-0.2-0.9-0.4-1.6c-0.8,5-2.1,9.6-3.8,14.1
		C409.7,269.9,409.1,271.4,408.7,273c-0.2,0-0.2,0.2-0.3,0.3l0.1,0.1C408.5,273.3,408.6,273.2,408.7,273z M439.1,285.3
		c-1.3,0.2-2.7,0.4-4,0.6c0,0.1,0,0.2,0,0.3c1.6,0.9,3.1,1.8,4.7,2.7c1.9,1.5,3.7,3.1,5.6,4.6c0.6,0.7,1.3,1.4,1.9,2
		c-0.1,0.1-0.1,0.2-0.2,0.3c-0.4-0.2-0.9-0.4-1.2-0.7c-1.7-1.4-3.5-2.8-5.2-4.3c-3.9-3.3-8.3-4.9-13.4-4.6c-4.1-0.1-6.6,0.2-8,1
		c0.3,0.2,0.6,0.5,0.9,0.6c1.5,0.8,3,1.4,4.4,2.3c2.7,1.6,4.9,3.9,7.2,6c3.5,3.3,7.5,4.4,12.1,2.6c2.8-0.1,5.1-1.5,7.6-2.6
		c0.5-0.2,0.9-0.4,1.4-0.7c1.8-0.7,3.4-1.9,5-3.4c-0.4-0.2-0.5-0.3-0.7-0.5c-2.7-1.8-5.3-3.6-8.1-5.3c-0.9-0.6-2.1-0.8-3.2-1.2
		c-0.2-0.1-0.4-0.1-0.7-0.2c-0.3,0-0.7,0-1,0C442.4,285.1,440.7,285.2,439.1,285.3z M401.6,240.2c1.7-1.7,3.3-3.5,5-5.2
		c0.7-0.3,1.1-1.4,2.4-1.4c-0.7,0.9-1.2,1.6-1.8,2.2c-1.1,1.2-2.2,2.3-3.4,3.4c-3.7,3.6-5.8,8-6.1,13.2c0,2.5,0,5,0,7.6
		c0,0.2,0.2,0.4,0.4,0.8c0.4-0.6,0.8-0.9,1-1.4c1.1-2.4,2.8-4.5,4.7-6.3c1.8-1.8,3.7-3.6,5.5-5.4c1.8-1.8,2.8-4.1,2.9-6.6
		c0.1-1.2-0.2-2.5-0.4-3.7c-0.1-0.6-0.1-1.3-0.3-1.9c-0.6-2-1.3-4-1.9-6c-0.2-0.5-0.4-0.9-0.6-1.4c-0.4-1.9-1.6-3.4-2.7-5
		c-0.3,0.2-0.4,0.2-0.5,0.4c-2.2,2.8-4.4,5.6-6.6,8.4c-0.9,1.2-1.3,2.6-1.2,4.2c0,1.6-0.1,3.3-0.1,4.9c0.1,0.7,0.1,1.4,0.2,2.1
		c0.1,0.6-0.1,1.3,0.2,2.1C399.4,243.4,400.5,241.8,401.6,240.2z M380.9,228.7c0,0.4-0.1,0.9-0.1,1.3c-0.2,0.7-0.5,1.3-0.6,2
		c-0.2,2.3,0.4,4.5,1.3,6.6c1.3,3,3,5.8,5.8,7.7c2.6,1.8,5.4,3.4,8.1,5.1c0.1,0,0.2,0,0.4,0c0.1-0.2,0.3-0.5,0.3-0.7
		c0-2.3,0.1-4.6,0.1-6.9c0-1.2,0-2.4,0-3.6c0-1.3,0-2.6,0-4s-0.5-2.5-1.6-3.3c-4-3.2-6.6-7.3-8.4-12c-0.1-0.3-0.4-0.6-0.7-1.1
		c-1.3,2.1-2.7,3.8-3.2,6c-0.3,0.9-0.6,1.8-1,2.7C381.1,228.4,381,228.5,380.9,228.7z M436.1,283.9c1.2-0.1,2.4-0.2,3.6-0.3
		c1.4-0.1,2.8-0.2,4.2-0.4c1.2-0.2,2.2-0.8,3-1.8c2.8-4,6.4-6.9,10.7-9c0.5-0.2,0.9-0.5,1.5-0.9c-1.4-1.2-2.8-1.7-4.2-2.3
		c-0.8-0.4-1.8-0.5-2.7-0.7c-1.2-0.7-2.6-0.9-4-1c-1.2-0.6-2.5-0.4-3.7-0.1c-6,1.4-10.4,4.8-13.2,10.3c-0.9,1.9-1.9,3.7-2.8,5.6
		c-0.2,0.3-0.3,0.6-0.6,1.3C430.9,284.2,433.5,284,436.1,283.9z M424.1,267c-2,1-3.4,2.5-4.8,4.2c-2.2,2.8-2.7,6-3.1,9.4
		c-0.1,1.1-0.3,2.2-0.3,3.3c0,1,0.4,1.3,1.3,1.2c1.7-0.2,3.5-0.3,5.2-0.5c1-0.1,1.9-0.3,2.9-0.6c2-0.6,3.2-1.9,4-3.9
		c0.6-1.6,1.4-3.2,2.3-4.7c2.1-3.4,5.1-5.7,8.5-7.6c0.7-0.4,1.5-0.9,2.5-1.4c-1.6-0.7-2.9-0.7-4.1-0.8c-2.1-0.1-4.2-0.2-6.3-0.3
		c-0.2,0-0.4,0-0.7,0c-1.9-0.2-3.6,0.3-5.4,0.9C425.4,266.2,424.8,266.7,424.1,267z M380.1,161.4c-0.1,0.1-0.2,0.1-0.4,0.2
		c0.7,1.7,1.4,3.3,2,5c4.4,11,8.1,22.2,10.7,33.8c0.3,1.5,0.6,2.9,2.1,3.7c0.2,0.1,0.4,0.4,0.6,0.6c2.7,3.2,5.5,6.4,8.2,9.7
		c1.1,1.3,2,2.7,3,4C400.4,198,391.6,179.1,380.1,161.4z M395.9,231.2c0-1.7,0.1-2.9,0-4.2c-0.3-3.7-0.6-7.3-0.9-11
		c-0.2-2.2-0.4-4.4-0.7-6.5c-0.1-0.8-0.4-1.5-1.2-2c-0.4,0.4-0.8,0.8-1,1.3c-1.4,2.2-2.8,4.4-4.1,6.6c-0.8,1.3-1.1,2.7-0.6,4.3
		c1.3,4.3,3.6,8,7.1,10.9C394.8,230.8,395.2,230.9,395.9,231.2z M471.9,278.1c-0.7-0.4-1.4-0.9-2.1-1.3c-1.9-1-3.9-2-5.8-3.1
		c-1.7-0.9-3.4-1.1-5.1-0.3c-3.8,1.7-7.2,4-9.7,7.5c-0.3,0.4-0.5,0.9-0.8,1.7c2.2-0.2,4-0.2,5.7-0.5c5.1-0.8,10.2-1.7,15.3-2.6
		C470.3,279.4,471.2,279.2,471.9,278.1z M449.7,284.6c0,0.2,0,0.4-0.1,0.5c2.6,1.6,5.3,3.1,7.9,4.8c1.4,0.9,2.6,0.6,3.8-0.4
		c2.7-2.3,5.4-4.7,8-7.1c0.5-0.4,0.8-1,1.2-1.5C463.5,282,456.6,283.2,449.7,284.6z M396.1,209c-0.2,0.1-0.3,0.1-0.5,0.2
		c0.7,6.9,1.4,13.7,2.2,20.6c0,0.1,0.2,0.3,0.2,0.3c0.2-0.1,0.4-0.1,0.4-0.1c1.9-2.7,3.9-5.3,5.8-8c0.4-0.6,0.4-1.1,0.1-1.7
		c-0.3-0.6-0.6-1.3-1-1.9c-1.2-1.7-2.4-3.3-3.6-4.9C398.6,211.9,397.3,210.5,396.1,209z M398.5,292.8c0.4,0.1,0.7,0.3,1.1,0.4
		c4.2,0.7,8.4,1.8,12.3,3.5c0.2,0.1,0.4,0,0.6-0.1C409.7,291.3,403.6,288.9,398.5,292.8z M392.1,292.2c0.1,0,0.3,0.1,0.4,0.1
		c1.6-2.5,3.3-5,5-7.6c-1.2-0.9-2.2-1.6-3.3-2.5C393.4,285.7,392.7,289,392.1,292.2z M128.5,421.1c0-0.1,0.1-0.2,0.1-0.3
		c-0.2-0.1-0.3-0.2-0.5-0.2c0,0.1-0.1,0.2-0.1,0.2C128.2,420.9,128.3,421,128.5,421.1z M165.3,436.3c-0.2-0.1-0.3-0.2-0.3-0.2
		c-0.1,0-0.1,0.1-0.2,0.2C165,436.3,165.1,436.3,165.3,436.3z"/>
	<path class="st2" d="M69.9,148.1c-0.4,0.6-0.7,1.3-1.6,1.2c0.9-1.8,1.7-3.6,2.7-5.3c3.3-5.4,6.5-11,10.1-16.2
		c3.2-4.7,6.7-9.1,10.2-13.5c2.4-3,5.1-5.9,7.7-8.8c4.7-5.2,10-9.9,15.4-14.4c6.5-5.4,13.4-10.1,20.7-14.3c0.2-0.1,0.4-0.1,0.6-0.2
		c0.1,0.1,0.2,0.2,0.3,0.3c-0.2,0.2-0.5,0.4-0.8,0.6c-3.5,2.2-7,4.4-10.4,6.6c-6.7,4.4-12.8,9.5-18.6,15c-3.6,3.4-7,7.1-10.5,10.8
		c-1.5,1.6-3,3.3-4.4,5.1c-3.2,4.1-6.3,8.3-9.4,12.5c-4.2,5.8-7.9,12-11.4,18.3c-0.2,0.4-0.3,0.9-0.5,1.4l0,0
		C70.1,147.6,70,147.9,69.9,148.1z"/>
	<path class="st3" d="M404.9,200.6c-0.4-3.8-0.6-7.8-1.3-11.8c-0.6-3.9-1.6-7.7-2.4-11.8C403,180,405.7,195.3,404.9,200.6z"/>
	<path class="st4" d="M400,173.2c-2.4-5.5-4.7-11-7.2-16.6C394.4,158.1,399.7,170.2,400,173.2z"/>
	<path class="st5" d="M367.6,121.9c-0.5-0.3-1-0.6-1.4-1c-1.9-1.8-3.7-3.7-5.5-5.5c-1.4-1.4-2.9-2.7-4.3-4.1l0,0
		c0.5,0.2,1,0.4,1.4,0.7c3,2.8,5.9,5.6,8.8,8.4C367,120.8,367.3,121.3,367.6,121.9C367.6,121.8,367.6,121.9,367.6,121.9z"/>
	<path class="st5" d="M343.5,101.9c-0.5-0.4-1-0.8-1.5-1.3c-0.3-0.3-0.4-0.8-0.5-1.3c1.9,1.3,3.9,2.6,5.8,4c0.6,0.4,1,1.1,1.5,1.6
		l-0.1,0.1c-1.2-0.8-2.3-1.6-3.5-2.4C344.7,102.3,344.1,102.1,343.5,101.9z"/>
	<path class="st6" d="M383.5,141.4c-0.6-0.8-1.1-1.5-1.7-2.3l0,0C382.9,139.4,383.3,140.3,383.5,141.4L383.5,141.4z"/>
	<path class="st6" d="M374.6,129.4c0.6,0.5,1.3,1,1.6,2.1C375.1,131,374.5,130.5,374.6,129.4C374.5,129.5,374.6,129.4,374.6,129.4z"
		/>
	<path class="st6" d="M370.6,125.1c0.9,0.2,1.4,0.8,1.7,1.7l0,0C371.3,126.6,370.8,126,370.6,125.1
		C370.6,125.2,370.6,125.1,370.6,125.1z"/>
	<path class="st4" d="M391.4,153.9c0.9,0.9,0.9,0.9,1.1,2.3C391.8,155.5,391.4,154.8,391.4,153.9L391.4,153.9z"/>
	<path class="st6" d="M390.3,152.5c-0.3-0.5-0.6-1.1-0.8-1.6c0.1-0.1,0.2-0.1,0.3-0.2c0.6,0.4,0.7,1,0.9,1.6
		C390.5,152.4,390.4,152.5,390.3,152.5z"/>
	<path class="st6" d="M355.3,110.3c-0.5-0.4-1.1-0.9-1.6-1.3l0.1-0.1C354.6,108.9,355.2,109.4,355.3,110.3
		C355.4,110.2,355.3,110.3,355.3,110.3z"/>
	<path class="st6" d="M377.5,133.1c0.4,0.4,0.9,0.9,1.5,1.5C377.8,134.3,377.8,134.3,377.5,133.1L377.5,133.1z"/>
	<path class="st6" d="M373.2,128.1c0.7,0.1,1.2,0.6,1.3,1.3c0,0,0,0.1-0.1,0.1C373.8,129.3,373.3,128.9,373.2,128.1L373.2,128.1z"/>
	<path class="st7" d="M349.8,105.6c0.6,0.4,1.1,0.9,1.7,1.3l-0.1,0.1C350.8,106.6,350.2,106.1,349.8,105.6
		C349.7,105.7,349.8,105.6,349.8,105.6z"/>
	<path class="st5" d="M351.4,106.9c0.6,0.4,1.1,0.9,1.7,1.3l-0.1,0.1C352.4,107.9,351.9,107.4,351.4,106.9
		C351.3,107,351.4,106.9,351.4,106.9z"/>
	<path class="st6" d="M377.5,133.1c-0.4-0.3-0.9-0.6-1.3-0.9c0.1-0.1,0.2-0.2,0.3-0.3C377.1,132,377.4,132.4,377.5,133.1
		L377.5,133.1z"/>
	<path class="st6" d="M381.8,139c-0.3-0.3-0.7-0.6-1.2-1.2C381.8,137.9,381.8,138.4,381.8,139L381.8,139z"/>
	<path class="st6" d="M387.4,147.3c0.7,0.1,0.8,0.6,0.9,1.3C387.6,148.3,387.5,147.8,387.4,147.3L387.4,147.3z"/>
	<path class="st6" d="M389,150.2c-0.2-0.3-0.4-0.7-0.5-1c0.1-0.1,0.2-0.1,0.3-0.2c0.2,0.3,0.4,0.7,0.5,1
		C389.3,150.1,389.1,150.2,389,150.2z"/>
	<path class="st5" d="M356.3,111.3c-0.3-0.3-0.7-0.7-1-1l0.1-0.1C355.9,110.3,356.3,110.6,356.3,111.3
		C356.4,111.2,356.3,111.3,356.3,111.3z"/>
	<path class="st6" d="M380.2,136.4c0.2,0.2,0.4,0.4,0.6,0.7c-0.1,0.1-0.1,0.1-0.2,0.2c-0.2-0.2-0.5-0.4-0.7-0.6
		C380,136.6,380.1,136.5,380.2,136.4z"/>
	<path class="st6" d="M379.5,136c-0.2-0.2-0.4-0.4-0.6-0.7c0.1-0.1,0.1-0.1,0.2-0.2c0.2,0.2,0.5,0.4,0.7,0.6
		C379.7,135.8,379.6,135.9,379.5,136z"/>
	<path class="st6" d="M33.2,242.2c0.4,0.3,0.4,0.7,0,1C32.8,242.9,32.8,242.5,33.2,242.2z"/>
	<path class="st5" d="M349.7,105.7c-0.3-0.2-0.6-0.5-1-0.7l0.1-0.1C349.2,104.9,349.7,105,349.7,105.7
		C349.8,105.6,349.7,105.7,349.7,105.7z"/>
	<path class="st6" d="M386.1,145c0.2,0.2,0.4,0.5,0.6,0.7c-0.1,0.1-0.2,0.1-0.3,0.2C386.3,145.6,386.2,145.3,386.1,145L386.1,145z"
		/>
	<path class="st6" d="M384.8,143c0.2,0.3,0.4,0.7,0.7,1l0,0C384.8,144,384.8,143.5,384.8,143L384.8,143z"/>
	<path class="st6" d="M391.4,153.9c-0.2-0.2-0.4-0.5-0.6-0.7c0.1-0.1,0.2-0.1,0.3-0.2C391.2,153.3,391.3,153.6,391.4,153.9
		L391.4,153.9z"/>
	<path class="st6" d="M387.4,147.3c-0.2-0.2-0.4-0.5-0.6-0.7c0.1-0.1,0.2-0.1,0.3-0.2C387.3,146.7,387.4,147,387.4,147.3
		L387.4,147.3z"/>
	<path class="st6" d="M385.4,144c0.2,0.3,0.4,0.7,0.7,1l0,0C385.5,144.9,385.4,144.5,385.4,144C385.5,144,385.4,144,385.4,144z"/>
	<path class="st6" d="M383.5,141.3c0.2,0.1,0.3,0.3,0.5,0.4l-0.1,0.1C383.7,141.7,383.6,141.5,383.5,141.3
		C383.5,141.4,383.5,141.3,383.5,141.3z"/>
	<path class="st6" d="M384.8,143c-0.2-0.1-0.3-0.3-0.5-0.4l0.1-0.1C384.5,142.7,384.7,142.8,384.8,143L384.8,143z"/>
	<path class="st6" d="M353.7,109c-0.2-0.2-0.4-0.4-0.7-0.6l0.1-0.1C353.3,108.5,353.5,108.7,353.7,109
		C353.7,108.9,353.7,109,353.7,109z"/>
	<path class="st6" d="M369.6,123.8c0.1,0.2,0.2,0.4,0.3,0.6l0,0c-0.2-0.2-0.4-0.5-0.6-0.7C369.4,123.8,369.5,123.8,369.6,123.8z"/>
	<path class="st5" d="M367.9,122.2c0.1,0.1,0.2,0.2,0.3,0.3l0,0C368.1,122.4,368,122.3,367.9,122.2L367.9,122.2z"/>
	<path class="st5" d="M368.3,122.5c0.1,0.1,0.2,0.2,0.3,0.3l0,0C368.5,122.7,368.3,122.6,368.3,122.5
		C368.2,122.5,368.3,122.5,368.3,122.5z"/>
	<path class="st5" d="M368.6,122.8c0.1,0.1,0.2,0.2,0.3,0.3l0,0C368.8,123.1,368.7,123,368.6,122.8L368.6,122.8z"/>
	<path class="st5" d="M368.9,123.2c0.1,0.1,0.2,0.2,0.3,0.3l0,0C369.1,123.4,369,123.3,368.9,123.2L368.9,123.2z"/>
	<path class="st5" d="M369.6,123.8c-0.1,0-0.2,0-0.4,0c0-0.1,0-0.2,0-0.3l0,0C369.4,123.6,369.5,123.7,369.6,123.8z"/>
	<path class="st6" d="M369.9,124.5c0.1,0.1,0.2,0.2,0.3,0.3l0,0C370.1,124.7,370,124.6,369.9,124.5L369.9,124.5z"/>
	<path class="st6" d="M370.3,124.8c0.1,0.1,0.2,0.2,0.3,0.3l0,0C370.4,125,370.3,124.9,370.3,124.8
		C370.2,124.8,370.3,124.8,370.3,124.8z"/>
	<path class="st6" d="M372.2,126.8c0.1,0.1,0.2,0.2,0.3,0.3l0,0C372.4,127,372.3,126.9,372.2,126.8L372.2,126.8z"/>
	<path class="st6" d="M373.2,128.1c0-0.1-0.1-0.1-0.1-0.2C373.1,128,373.2,128,373.2,128.1L373.2,128.1z"/>
	<path class="st6" d="M372.6,127.1c0,0.1,0.1,0.1,0.1,0.2C372.6,127.2,372.6,127.2,372.6,127.1C372.5,127.1,372.6,127.1,372.6,127.1
		z"/>
	<path class="st5" d="M436,302.5c0.1,0,0.3,0,0.4,0C436.3,302.4,436.2,302.5,436,302.5z"/>
	<path class="st5" d="M367.9,122.2c-0.1-0.1-0.2-0.2-0.3-0.3l0,0C367.7,121.9,367.8,122,367.9,122.2L367.9,122.2z"/>
	<path class="st0" d="M94.7,127.9c0.3-0.2,0.7-0.4,0.9-0.7c1-1.6,2.6-2.6,4-3.6c7.2-5,14.7-9.6,22.4-13.6
		c9.2-4.7,18.6-8.9,28.3-12.4c9.2-3.3,18.6-6.2,28.1-8.7c8.3-2.2,16.7-4,25.1-5.4c5.1-0.9,10.2-1.4,15.3-2.1
		c6.2-0.8,12.4-1.3,18.6-1.3c2.8,0,5.6-0.3,8.4-0.2c4.8,0.2,9.6,0.5,14.3,0.9c7.7,0.6,15.4,2,22.9,4s14.7,4.6,21.7,7.8
		c8.2,3.7,15.8,8.2,23.2,13.3c4.7,3.2,9.1,6.8,13.4,10.4c4.9,4.2,9.5,8.7,14,13.4c6.3,6.6,11.9,13.7,17.4,20.9
		c2.7,3.6,4.5,7.7,6.3,11.8c3,6.9,5.6,14,7.9,21.2c1.5,4.7,2.6,9.4,3.9,14.1c0.4,1.5,0.7,3,1.1,4.5c0.2,0.7,0.1,1.3-0.2,1.9
		c-1.1,2.1-2.1,4.1-3.2,6.2c-0.4,0.7-0.9,1.2-1.4,1.8c-6.1,7.9-9.7,16.8-11.5,26.6c-1.2,6.7-1.4,13.5,1.2,20c1,2.6,2.5,5,3.9,7.4
		c3.3,5.2,7,10.2,11.4,14.5c0.8,0.8,0.9,1.5,0.7,2.5c-0.8,3.4-1.5,6.8-2.1,10.2c-0.2,1-0.8,1.7-1.6,2.2c-0.9,0.5-1.5,1.3-1.3,2.5
		c0.4,0.2,0.9,0.5,1.5,0.7c-0.6,2.2-1.2,4.4-1.8,6.5c-2.7,9.6-6,19-9.9,28.2c-3.3,7.9-7,15.5-11.3,22.9c-3.4,5.8-7,11.5-11.1,16.8
		c-2.7,3.5-5.7,6.9-8.7,10.2c-1.9,2.1-4,4.1-6,6.1c-4.6,4.5-9.6,8.4-14.8,12.2c-8.8,6.4-18.2,11.6-27.9,16.3c-6.4,3-13,5.7-19.7,8.1
		c-9.3,3.3-18.8,6-28.4,8.2c-5.7,1.3-11.5,2.2-17.3,3.2c-4.3,0.7-8.6,1.1-12.9,1.6c-1.5,0.2-3,0.2-4.4,0.3
		c-4.9,0.1-9.9,0.7-14.8,0.3c-0.5-0.1-1.1-0.1-1.7-0.1c-5,0-10-0.4-15-1c-11.4-1.2-22.4-3.8-33.2-7.5c-2.2-0.8-4.3-1.7-6.4-2.7
		c-4.1-2.1-8.2-4.2-12.3-6.4c-2.2-1.2-4.3-2.3-6.4-3.7c-2.8-1.8-5.5-3.8-8.2-5.7c-1.6-1.1-3.1-2.3-4.7-3.5c-1.2-1-2.4-2.1-3.6-3.1
		c-1.7-1.4-3.3-2.8-5-4.2c-0.4-0.3-0.7-0.7-1.1-1c-3-3-6.1-5.9-8.7-9.3c-0.3-0.4-0.9-0.6-1.4-0.9l0,0c0.1-1.2-0.8-1.7-1.7-2.3l0,0
		c0-0.7-0.4-1.1-1-1.3l0,0c-0.6-1.6-1.6-2.9-3-4l0,0c-0.3-1.1-0.7-2.1-2-2.3l0,0c0.1-0.6,0.1-1.1-0.7-1l0,0
		c-0.1-0.5-0.1-1.1-0.4-1.5c-0.7-1.2-1.5-2.3-2.3-3.5c-0.2-0.2-0.4-0.3-0.6-0.5c-0.1-0.4-0.3-0.9-0.4-1.3c-0.2-0.1-0.3-0.1-0.5-0.2
		c-0.2-0.6-0.5-1.1-0.7-1.7c-0.1-0.2-0.2-0.4-0.3-0.6c-0.5-1-1.1-2-1.6-3c-0.4-0.3-0.7-0.5-1.1-0.8l0,0c0.1-0.2,0.3-0.3,0.4-0.5
		c-0.3-0.6-0.7-1.2-1-1.8c-0.1-0.2-0.1-0.3-0.2-0.5c-0.6-1.1-1.1-2.3-1.7-3.4c-0.1-0.2-0.2-0.4-0.3-0.6c-0.4-0.9-0.7-1.8-1.1-2.6
		c-0.2-0.3-0.4-0.7-0.5-1s-0.1-0.5-0.2-0.8c-0.1-0.2-0.3-0.3-0.5-0.4c-0.1,0.2-0.2,0.4-0.3,0.5c-0.1-0.3-0.1-0.5-0.2-0.8
		c0.5-0.3,0.4-0.8,0.2-1.3c-0.3-0.7-0.6-1.5-0.9-2.2c-0.2-0.3-0.3-0.7-0.5-1c-0.1-0.2-0.2-0.5-0.3-0.7c-0.2-0.5-0.4-1.1-0.6-1.6
		c-0.1-0.3-0.3-0.7-0.4-1c-0.2-0.5-0.4-1.1-0.6-1.6c-0.3-1-0.7-2-1-3c-0.2-0.6-0.3-1.2-0.5-1.7s-0.3-1-0.5-1.5
		c-0.2,0.2-0.3,0.3-0.5,0.5c-0.1-0.4-0.2-0.9-0.3-1.3c0.1-0.3,0.3-0.7,0.2-1c-0.3-1.1-0.7-2.1-1.1-3.2c-0.1-0.3-0.2-0.7-0.3-1
		c-0.1-0.5-0.2-0.9-0.4-1.4c-0.1-0.3-0.2-0.6-0.3-1c-0.2-0.5-0.3-1-0.5-1.5c0-0.1,0-0.2,0-0.3c-0.3-1.3-0.7-2.5-1-3.8
		c-0.1-0.2-0.2-0.5-0.3-0.7c-0.1-0.4-0.2-0.9-0.3-1.3c0-0.2-0.1-0.4-0.1-0.6c-0.2-0.5-0.4-1-0.6-1.5l0,0c0-0.4,0-0.8-0.1-1.1
		c-0.6-2.8-1.2-5.6-1.8-8.3c-0.3-1.6-0.8-3.2-1.1-4.8c0-0.2,0-0.5,0-0.7c-0.3-1.5-0.7-3-1-4.6c0-0.2,0-0.5,0-0.7
		c-2.4-13.2-3.8-26.4-4.3-39.8c0.4-0.4,0.4-0.9,0-1.3c0-2.4,0-4.8,0-7.3c0-3-0.1-5.9-0.1-8.9c0.3-2.6,0.5-5.2,0.7-7.9
		c0.3-3,0.4-5.9,0.8-8.9c0.7-5.1,1.4-10.2,2.3-15.3c1.4-8,3.3-15.8,5.9-23.5c2-6,4.2-11.8,6.8-17.5c3.7-8.2,7.9-16,12.8-23.5
		c3.4-5.2,7-10.1,10.9-14.9C93,130.4,93.8,129.1,94.7,127.9z"/>
	<path class="st8" d="M169.5,437.3c2.4,0.4,4.9,0.8,7.3,1.1c3.4,0.5,6.8,0.9,10.1,1.3c8.1,1,16.3,0.8,24.4,0.6
		c4.1-0.1,8.1-0.5,12.2-0.9c3.6-0.4,7.1-0.8,10.6-1.3c8.3-1.1,16.5-3,24.7-5.1c10.2-2.7,20.2-6,29.9-10c12.8-5.2,25-11.6,36.2-19.6
		c4.2-3,8.2-6.2,12.1-9.5c3.2-2.7,6.2-5.5,9-8.5c6.9-7.2,12.9-15,18.2-23.5c3.5-5.6,6.7-11.4,9.6-17.3c4.2-8.7,7.9-17.6,10.9-26.8
		c1.9-6,3.7-12,5.4-18c0.4-1.6,1.3-2.4,2.7-3c3-1.1,6.1-1.1,9.1-0.3c3.9,1.1,7.7,2.4,11.6,3.6c0,0.7,0.1,1.3,0,1.8
		c-1.3,8.1-3,16.1-5.4,24c-2.8,9.5-6.5,18.6-10.9,27.4c-4.2,8.3-9.2,16-14.8,23.4c-5.4,7.1-11.5,13.6-18.1,19.7
		c-8.8,8.1-18.4,15-28.7,21.1c-9,5.3-18.4,9.9-28.2,13.7c-10.8,4.2-21.8,7.5-33.2,9.8c-5.3,1.1-10.6,2-15.9,2.9
		c-3.5,0.5-7,0.7-10.5,1.1c-7.9,0.8-15.9,1.1-23.9,0.9c-4.9-0.1-9.9-0.5-14.8-0.9c-4.2-0.4-8.4-0.8-12.6-1.4
		c-5.3-0.8-10.5-1.9-15.7-3c-3-0.6-6-1.5-9-2.2c-0.8-0.2-1.6-0.6-2.5-0.9C169.4,437.4,169.5,437.3,169.5,437.3z"/>
	<path class="st9" d="M60.3,320.4L60.3,320.4c0,0.5,0,1,0,1.5c0.1,0.2,0.1,0.4,0.2,0.7c0.4,1.5,0.7,3,1.1,4.5
		c0.1,0.6,0.3,1.1,1.1,1.2c0,0.1,0,0.2,0,0.3c-0.6,0.5-0.4,1-0.1,1.5c0.1,0.3,0.2,0.6,0.3,1s0.2,0.9,0.4,1.3c0.1,0.3,0.2,0.6,0.3,1
		c0.5,1.4,0.3,3,1.4,4.1c0.1,0.4,0.2,0.9,0.3,1.3c0.2-0.2,0.3-0.3,0.5-0.5c0.2,0.5,0.3,1,0.5,1.5c-0.4,0.1-0.7,0.2-0.6,0.7
		c0.1,0.4,0.3,0.8,0.5,1.1c0.4,1,0.7,2,1.1,3c0.2,0.6,0.4,1.1,0.6,1.7c0.1,0.3,0.3,0.6,0.4,1c0.2,0.6,0.4,1.1,0.6,1.7
		c0.1,0.2,0.1,0.4,0.2,0.6c0.2,0.3,0.3,0.7,0.5,1c0.5,1.2,0.9,2.3,1.4,3.5c0.1,0.3,0.1,0.5,0.2,0.8c0.1,0.2,0.3,0.4,0.4,0.7
		c0.2,0.3,0.3,0.7,0.5,1c0.4,0.9,0.7,1.7,1.1,2.6c0.1,0.2,0.2,0.4,0.3,0.7c0.4,0.9,0.8,1.9,1.2,2.8c0.2,0.3,0.7,0.4,1,0.5
		c0.1,0.2,0.1,0.3,0.2,0.5c-0.8,0.8,0.1,1.2,0.3,1.8c0.1,0.2,0.2,0.3,0.3,0.5l0,0c0.2,0.4,0.4,0.8,0.6,1.2c0.6,1,1.1,2,1.7,3
		c0.1,0.2,0.2,0.4,0.3,0.6c0.2,0.4,0.4,0.9,0.7,1.3c0,0.1,0.3,0,0.5,0c0.2,0.1,0.3,0.1,0.5,0.2c-0.9,0.8-0.1,1.3,0.3,1.9
		c0.1,0.2,0.2,0.5,0.4,0.7c0.9,1.4,1.6,3.1,3,4.2l0,0c-0.1,0.5,0.1,0.9,0.7,1l0,0c0.3,1.1,0.7,2.1,2,2.3l0,0c0.3,1.8,1.5,3,2.8,4
		c0,0,0.1,0,0.2,0l0,0c-0.1,0.8,0,1.4,1,1.3l0,0c-0.1,1.2,0.6,1.9,1.7,2.3l0,0c0.1,0.3,0.2,0.7,0.5,1c1.5,1.7,2.9,3.5,4.4,5.1
		c2.7,2.8,5.4,5.7,8.3,8.2c4.1,3.6,8.3,7.1,12.8,10.1c0.3,0.2,0.5,0.5,0.6,0.9c-0.2-0.1-0.5-0.1-0.7-0.2c-6.3-4.1-12.3-8.5-18-13.3
		c-4.3-3.7-8.5-7.5-12.5-11.6c-6-6.3-11.6-12.9-16.7-20c-6.5-9.2-12.2-18.9-17-29.1c-4.5-9.6-8.4-19.5-11.2-29.8
		c-1.7-6.3-3.3-12.7-4.7-19.1c-1-4.5-1.6-9.1-2.3-13.6c-0.7-4.8-1.1-9.6-1.6-14.4c-0.2-2.4-0.3-4.8-0.4-7.2
		c-0.1-2.2-0.3-4.4-0.3-6.6c0.1-5.3,0.2-10.7,0.6-16c0.7-9,2-17.9,4.2-26.7c2.1-8.4,5-16.5,8.7-24.4c4-8.4,8.7-16.3,14.3-23.7
		c0.4-0.5,0.8-1.1,1.1-1.6c0.4,0.6-0.1,1.1-0.3,1.7c-1.4,3.3-2.9,6.6-4.3,10c-3.6,8.7-6.6,17.6-9.2,26.6c-2.2,7.8-4.1,15.7-5.5,23.7
		c-0.7,4.2-1.3,8.3-1.9,12.5c-0.4,2.9-0.7,5.8-1,8.7c-0.2,1.5-0.2,3-0.4,4.4c-0.2,2.7-0.5,5.5-0.6,8.2c-0.1,5.9,0,11.8,0,17.7
		c0,0.7,0,1.3,0,2c0.3,3.9,0.7,7.8,1,11.6c0,0.2,0,0.4,0,0.7c0.5,3.4,0.8,6.9,1.4,10.3c0.8,4.5,1.6,8.9,2.7,13.4
		c2.1,9.2,5.1,18.1,8.6,26.8c0.1,0.4,0.4,0.7,0.7,1.1c0.1-0.3,0.2-0.4,0.1-0.5c-0.1-0.3-0.2-0.5-0.3-0.8c-3-7.2-5.5-14.6-7.4-22.2
		c-1.2-4.6-2.2-9.2-3-13.8c-0.9-5-1.5-10-2.2-15c-0.1-0.5-0.2-1-0.2-1.5c-0.2-2.9-0.5-5.8-0.6-8.7c-0.2-3.6-0.3-7.3-0.3-10.9
		c0-4.3,0.2-8.7,0.3-13c0-0.1,0-0.2,0-0.3c0.3-3.4,0.6-6.9,1-10.3c0.3-3.2,0.6-6.3,1.1-9.5c0.7-4.4,1.4-8.8,2.3-13.1
		c1-4.9,2-9.8,3.3-14.6c1.1-4.3,2.4-8.5,3.6-12.7c2.7-9,6-17.8,9.8-26.4c1.1-2.4,2.1-4.8,3.2-7.2c1.8-3.9,4.9-6.7,7.7-9.8
		c2.8-3.1,5.7-6,8.8-8.8c3.5-3.2,7-6.5,11-9.2c-0.2,0.5-0.3,1-0.6,1.4c-2.8,3.7-5.7,7.3-8.4,11c-5.9,8.3-11,17-15.1,26.3
		c-2.2,5-4.4,10.1-6.2,15.3c-3,8.4-5.3,17-7,25.8c-0.8,3.9-1.4,7.9-2,11.8c-0.5,3.6-0.8,7.2-1.1,10.8c-0.3,3.8-0.4,7.6-0.6,11.4
		c-0.3,5.6-0.5,11.2,0,16.9c0,0.2,0,0.4,0,0.7c0.2,3.7,0.3,7.3,0.6,11c0.4,4.7,0.9,9.4,1.4,14.1c0.6,4.6,1.3,9.1,1.9,13.7
		c0.1,0.6,0.3,1.1,1,1.1c0,0.2,0,0.5,0,0.7c-0.2,0.2-0.6,0.5-0.5,0.6c0.2,1.2,0.4,2.3,0.7,3.5c0.1,0.2,0.6,0.3,0.9,0.5
		c0,0.2,0,0.5,0,0.7c-0.6,0.1-0.7,0.5-0.5,1c0.3,0.9,0.6,1.9,0.8,2.8c0.7,3.3,1.4,6.5,2.1,9.8C59.7,320,60.1,320.2,60.3,320.4z
		 M61.6,352.7c0.1,0.1,0.2,0.2,0.3,0.3c0.1,0,0.1,0.1,0.2,0.1c0-0.1-0.1-0.1-0.1-0.2s0-0.2,0-0.3c-0.1-0.1-0.2-0.2-0.3-0.3
		c-0.1-1.1-0.5-2-1.3-2.6c-0.1-0.2-0.2-0.4-0.3-0.7c-0.1-0.2-0.2-0.4-0.3-0.7c-0.1-0.2-0.2-0.4-0.3-0.7c-0.3-1.7-1.3-3-2.2-4.4
		c0.5,1.6,0.9,3.2,2.2,4.4c0.1,0.2,0.2,0.4,0.3,0.7c0.1,0.2,0.2,0.4,0.3,0.7c0.1,0.2,0.2,0.4,0.3,0.7c0.1,1.1,0.5,2,1.3,2.6
		C61.6,352.5,61.6,352.6,61.6,352.7z M80.5,380.5c0.1,0,0.1,0.1,0.2,0.1C80.6,380.6,80.5,380.5,80.5,380.5c0-0.1-0.1-0.1-0.1-0.2
		C80.4,380.4,80.4,380.4,80.5,380.5z M75.8,374.5c0.1,0,0.1,0.1,0.2,0.1C75.9,374.6,75.9,374.6,75.8,374.5s-0.2-0.2-0.3-0.3
		c-0.1,0-0.1-0.1-0.2-0.1c0,0.1,0.1,0.1,0.1,0.2C75.6,374.3,75.7,374.4,75.8,374.5z M74.9,373.2l0.1,0.1
		C75,373.3,74.9,373.2,74.9,373.2c-0.1-0.1-0.2-0.2-0.3-0.3c-0.1,0-0.1-0.1-0.2-0.1c0,0.1,0.1,0.1,0.1,0.2
		C74.6,373,74.7,373.1,74.9,373.2z M73.9,371.9c0.1,0,0.1,0.1,0.2,0.1C74,372,73.9,371.9,73.9,371.9c-0.1-0.1-0.2-0.2-0.3-0.3
		c-0.1-0.2-0.2-0.4-0.3-0.7c-0.1-0.2-0.3-0.3-0.4-0.5l-0.1,0.1c0.2,0.1,0.3,0.3,0.5,0.4c0.1,0.2,0.2,0.4,0.3,0.7
		C73.6,371.7,73.7,371.8,73.9,371.9z M72.2,369.6c0.1,0,0.1,0.1,0.2,0.1C72.3,369.7,72.3,369.6,72.2,369.6c-0.1-0.1-0.2-0.2-0.3-0.3
		c-0.1-0.2-0.2-0.4-0.3-0.7c-0.1-0.1-0.2-0.2-0.3-0.3c-0.1-0.2-0.2-0.4-0.3-0.7c-0.1-0.1-0.2-0.2-0.3-0.3c-0.1-0.2-0.2-0.4-0.3-0.7
		c-0.1-0.1-0.2-0.2-0.3-0.3c-0.1-0.2-0.2-0.4-0.3-0.7c-0.1-0.1-0.2-0.2-0.3-0.3c-0.1-0.2-0.2-0.4-0.3-0.7c-0.1-0.1-0.2-0.2-0.3-0.3
		c-0.1-0.2-0.2-0.4-0.3-0.7c-0.1,0-0.1-0.1-0.2-0.1c0,0.1,0.1,0.1,0.1,0.2c0.1,0.2,0.2,0.4,0.3,0.7c0.1,0.1,0.2,0.2,0.3,0.3
		c0.1,0.2,0.2,0.4,0.3,0.7c0.1,0.1,0.2,0.2,0.3,0.3c0.1,0.2,0.2,0.4,0.3,0.7c0.1,0.1,0.2,0.2,0.3,0.3c0.1,0.2,0.2,0.4,0.3,0.7
		c0.1,0.1,0.2,0.2,0.3,0.3c0.1,0.2,0.2,0.4,0.3,0.7c0.1,0.1,0.2,0.2,0.3,0.3c0.1,0.2,0.2,0.4,0.3,0.7
		C72,369.3,72.1,369.5,72.2,369.6z M66.9,361.6c0.1,0,0.1,0.1,0.2,0.1C67,361.7,67,361.7,66.9,361.6c-0.1-0.2-0.2-0.5-0.3-0.7
		c-0.1,0-0.1-0.1-0.2-0.1c0,0.1,0.1,0.1,0.1,0.2C66.7,361.2,66.8,361.4,66.9,361.6z M64.9,358.3c0.1,0,0.1,0.1,0.2,0.1
		C65,358.4,65,358.4,64.9,358.3c-0.1-0.2-0.2-0.5-0.3-0.7c-0.1-0.2-0.2-0.4-0.3-0.7c-0.1,0-0.1-0.1-0.2-0.1c0,0.1,0.1,0.1,0.1,0.2
		c0.1,0.2,0.2,0.4,0.3,0.7C64.7,357.9,64.8,358.1,64.9,358.3z M65.9,360c0.1,0,0.1,0.1,0.2,0.1C66,360.1,66,360,65.9,360
		c-0.1-0.2-0.2-0.5-0.3-0.7c-0.1,0-0.1-0.1-0.2-0.1c0,0.1,0.1,0.1,0.1,0.2C65.7,359.5,65.8,359.8,65.9,360z M79.2,378.8
		c-0.1-0.1-0.2-0.2-0.3-0.3c-0.3-0.4-0.7-0.9-1-1.3c-0.1-0.1-0.2-0.2-0.3-0.3c-0.3-0.4-0.7-0.9-1-1.3l-0.1-0.1
		c0,0.1,0.1,0.1,0.1,0.2c0.3,0.4,0.7,0.9,1,1.3c0.1,0.1,0.2,0.2,0.3,0.3c0.3,0.4,0.7,0.9,1,1.3C78.9,378.6,79,378.7,79.2,378.8
		c0.1,0.4,0.1,1,0.9,0.8C79.7,379.3,79.4,379,79.2,378.8z M63.6,356c0.1,0,0.1,0.1,0.2,0.1C63.7,356.1,63.7,356,63.6,356
		c-0.2-0.5-0.4-0.9-0.6-1.4c-0.1,0-0.1-0.1-0.2-0.1c0,0.1,0.1,0.1,0.1,0.2C63.2,355.1,63.4,355.6,63.6,356z M55,337.9
		c-0.1,0.1-0.3,0.1-0.4,0.2c0.5,1.3,0.8,2.7,1.7,3.9c0.1,0,0.2-0.1,0.3-0.1C56.2,340.5,55.6,339.2,55,337.9z M67.4,362.6
		c0,0.1,0.1,0.2,0.1,0.2c0.1,0,0.2,0,0.3-0.1c-0.1-0.1-0.1-0.2-0.2-0.3C67.5,362.5,67.4,362.5,67.4,362.6z"/>
	<path class="st8" d="M70.2,147.3c0.2-0.5,0.3-1,0.5-1.4c3.5-6.3,7.2-12.5,11.4-18.3c3.1-4.2,6.2-8.4,9.4-12.5
		c1.4-1.8,2.8-3.5,4.4-5.1c3.4-3.6,6.8-7.3,10.5-10.8c5.8-5.5,11.9-10.6,18.6-15c3.4-2.3,7-4.4,10.4-6.6c0.3-0.2,0.5-0.4,0.8-0.6
		c1.7-0.9,3.3-1.7,5-2.6c12-6.1,24.6-10.5,37.6-13.7c6.5-1.6,13.1-2.9,19.7-3.9c4.9-0.7,9.9-1.3,14.9-1.7c4.4-0.4,8.9-0.8,13.3-1
		c5.3-0.2,10.7-0.3,16-0.2c3.6,0.1,7.2,0.5,10.8,0.8c3,0.3,5.9,0.6,8.8,1c6,0.8,11.8,2.1,17.6,3.7c6.8,1.9,13.4,4.4,19.7,7.5
		c6.7,3.3,13,7.3,18.8,11.8c5.6,4.3,10.8,9.1,15.7,14.2c0.6,0.6,1,1.3,1.4,2c-0.5-0.2-0.9-0.3-1.4-0.6c-6.7-4.1-13.6-8-20.7-11.2
		c-5.6-2.6-11.3-4.9-17.1-6.9c-8.4-2.9-17-5.1-25.8-6.8c-3.3-0.6-6.7-1.2-10.1-1.6c-2.7-0.4-5.5-0.5-8.2-0.8
		c-3.7-0.4-7.3-0.7-11-0.6c-8.6-0.1-17.3-0.2-25.9,1c-5.1,0.7-10.3,1.2-15.3,2.1c-9.3,1.7-18.5,4-27.5,6.9c-7.5,2.4-14.9,5.1-22,8.5
		c-9.1,4.3-17.8,9.4-26,15.3c-5,3.6-9.9,7.4-14.4,11.5c-2,1.8-4,3.6-6,5.4c-1.1,1.1-2.1,2.3-3.2,3.5c-3.3,3.3-7.3,5.6-10.8,8.6
		c-2.6,2.2-5.2,4.3-7.7,6.5c-3.6,3.3-7,6.8-10.5,10.1C71.4,146.3,71.2,147.3,70.2,147.3z"/>
	<path class="st10" d="M370.5,145.1c-1.4-1.6-2.7-3.3-4.1-4.9c-2.4-2.8-4.7-5.7-7.2-8.4c-3.3-3.6-6.7-7.1-10.2-10.6
		c-5.7-5.6-11.9-10.6-18.4-15.3c-7.7-5.6-15.8-10.4-24.5-14.4c-9.5-4.4-19.4-7.8-29.7-9.8c-4.6-0.9-9.2-1.6-13.8-2.2
		c-3.3-0.4-6.6-0.6-9.9-0.7c-3.6-0.2-7.3-0.3-10.9-0.3c-3.8,0-7.6,0-11.4,0.4c-6.6,0.6-13.1,1.3-19.6,2.2c-14.2,1.9-28.2,5.2-42,9.1
		c-11.8,3.4-23.2,7.5-34.4,12.5c-10.1,4.5-19.8,9.6-29.1,15.6c-0.4,0.2-0.8,0.4-1.2,0.6c0.3-0.4,0.5-1,0.8-1.3
		c1.2-1.2,2.5-2.3,3.7-3.5c4.8-4.5,9.8-8.6,15.1-12.5c6.7-4.9,13.7-9.3,21.1-13.2c8.5-4.4,17.2-8.1,26.4-10.9
		c5.1-1.5,10.2-3.1,15.4-4.4c4.9-1.2,10-2.2,15-3.2c3.5-0.7,7-1.2,10.6-1.6c2.7-0.4,5.5-0.5,8.2-0.7c4.3-0.3,8.7-0.7,13-0.9
		c2.6-0.1,5.3,0,7.9,0c0.3,0.1,0.6,0.2,0.9,0.2c3.6,0.2,7.1,0.4,10.7,0.7c3.8,0.3,7.5,0.7,11.3,1.3c5,0.8,10,1.8,15,2.9
		c6.2,1.4,12.3,3.2,18.3,5.4c8,2.8,15.8,6.1,23.3,10.1c5.2,2.7,10.3,5.7,15.3,8.8c0.5,0.3,1,0.5,1.5,0.7c2.6,2.9,5.3,5.7,7.7,8.8
		c5.1,6.3,9.9,12.8,14.1,19.7c3.7,6,7.2,12.1,10.7,18.2c0.3,0.5,0.5,1,0.7,1.5C370.6,145,370.5,145,370.5,145.1z"/>
	<path class="st11" d="M431.4,265.1c0.2,0,0.4,0,0.7,0c1.7,1,4,1.1,6.3,0.3c1.3,0.1,2.6,0.2,4.1,0.8c-1,0.6-1.7,1-2.5,1.4
		c-3.4,1.9-6.4,4.3-8.5,7.6c-0.9,1.5-1.7,3.1-2.3,4.7c-0.7,2-2,3.2-4,3.9c-0.9,0.3-1.9,0.5-2.9,0.6c-1.7,0.2-3.5,0.4-5.2,0.5
		c-1,0.1-1.4-0.2-1.3-1.2c0-1.1,0.2-2.2,0.3-3.3c0.4-3.3,1-6.6,3.1-9.4c1.3-1.7,2.8-3.2,4.8-4.2c2.2-0.5,4.3-1,6.5-1.5
		C430.9,265.5,431.2,265.3,431.4,265.1z"/>
	<path class="st11" d="M377.9,239.6c0.3-1.2,0.5-2.3,0.8-3.6c1,0.6,1.1,1.4,1.4,2.1c1.2,2.7,2.8,5.2,4.9,7.4
		c1.8,1.9,3.9,3.5,6.3,4.4c2.8,1.1,4.1,3.1,4.3,5.9c0.2,2.4,0.1,4.8,0.1,7.3c0,0.2-0.1,0.3-0.2,0.5c-1,0.5-2,0.1-2.9-0.1
		c-2.6-0.6-5.2-0.9-7.6-2.2c-2.7-1.5-4.8-3.5-6.3-6.2c-0.1-0.2-0.2-0.4-0.3-0.6l0,0c-0.1-0.9-0.2-1.8-0.4-2.7
		c-0.3-1.6-0.6-3.2-1-4.9c0-0.2,0-0.5,0-0.7C378.5,244.1,378.5,241.9,377.9,239.6z"/>
	<path class="st12" d="M380.1,161.4c11.4,17.7,20.2,36.6,26.2,56.9c-1-1.4-2-2.7-3-4c-2.7-3.3-5.4-6.5-8.2-9.7
		c-0.2-0.2-0.3-0.5-0.6-0.6c-1.5-0.8-1.8-2.2-2.1-3.7c-2.5-11.6-6.2-22.8-10.7-33.8c-0.7-1.7-1.3-3.3-2-5
		C379.9,161.5,380,161.4,380.1,161.4z"/>
	<path class="st13" d="M452.3,268.4c0.9,0.2,1.8,0.4,2.7,0.7c1.4,0.6,2.8,1.1,4.2,2.3c-0.6,0.4-1.1,0.7-1.5,0.9
		c-4.3,2.1-7.9,5.1-10.7,9c-0.7,1.1-1.8,1.7-3,1.8c-1.4,0.2-2.8,0.3-4.2,0.4c-0.2-0.9-0.7-1.8-0.6-2.7c0.2-2.3,0.5-4.7,2.7-6.2
		c0.4-0.3,0.7-0.8,1.1-1c0.9-0.6,1.7-1.2,2.7-1.6c1.7-0.8,3.6-1.4,5.3-2.2C451.6,269.6,452.2,269.2,452.3,268.4z"/>
	<path class="st13" d="M382.1,225.6c0.6-2.2,2-4,3.2-6c0.3,0.5,0.6,0.8,0.7,1.1c1.8,4.7,4.4,8.8,8.4,12c1,0.8,1.6,1.9,1.6,3.3
		c0,1.3,0,2.6,0,4c-0.6,0.1-1.3,0.3-1.9,0.4c-0.3,0.1-0.7,0.1-0.9,0.1c-0.8-0.2-1.6-0.6-2.5-0.8c-1.3-0.2-2.1-1-2.9-1.9
		c-2.2-2.4-3.1-5.5-4-8.5c-0.3-0.9-0.8-1.8-1.2-2.6C382.4,226.3,382.3,226,382.1,225.6z"/>
	<path class="st14" d="M395.9,231.2c-0.7-0.3-1.1-0.4-1.4-0.7c-3.5-2.9-5.8-6.6-7.1-10.9c-0.5-1.5-0.1-3,0.6-4.3
		c1.3-2.2,2.7-4.4,4.1-6.6c0.3-0.5,0.7-0.8,1-1.3c0.8,0.5,1.1,1.2,1.2,2c0.2,2.2,0.5,4.4,0.7,6.5c0.3,3.7,0.6,7.3,0.9,11
		C396,228.3,395.9,229.6,395.9,231.2z"/>
	<path class="st14" d="M471.9,278.1c-0.6,1.1-1.6,1.3-2.5,1.5c-5.1,0.9-10.2,1.8-15.3,2.6c-1.8,0.3-3.6,0.3-5.7,0.5
		c0.4-0.8,0.6-1.3,0.8-1.7c2.4-3.5,5.8-5.8,9.7-7.5c1.7-0.8,3.4-0.6,5.1,0.3c1.9,1,3.9,2,5.8,3.1
		C470.5,277.2,471.2,277.6,471.9,278.1z"/>
	<path class="st2" d="M241.2,66.7c-2.6,0-5.3-0.1-7.9,0c-4.3,0.2-8.7,0.5-13,0.9c-2.7,0.2-5.5,0.4-8.2,0.7c-3.5,0.5-7.1,1-10.6,1.6
		c-5,1-10,1.9-15,3.2c-5.2,1.3-10.3,2.9-15.4,4.4c-9.2,2.7-17.9,6.5-26.4,10.9c-7.4,3.8-14.4,8.3-21.1,13.2
		c-5.3,3.9-10.4,8-15.1,12.5c-1.2,1.2-2.5,2.3-3.7,3.5c-0.4,0.4-0.6,0.9-0.8,1.3l0,0c-0.2,0.1-0.5,0.2-0.7,0.3l0,0
		c0,0.1,0,0.3,0,0.4c-0.7,0.5-1.2,1.6-2.4,0.9c1.1-1.2,2.1-2.4,3.2-3.5c1.9-1.9,4-3.6,6-5.4c4.6-4.2,9.4-8,14.4-11.5
		c8.2-5.9,16.9-11,26-15.3c7.1-3.4,14.5-6.1,22-8.5c9-2.9,18.2-5.2,27.5-6.9c5.1-0.9,10.2-1.4,15.3-2.1c8.6-1.1,17.2-1.1,25.9-1
		C241.2,66.4,241.2,66.5,241.2,66.7z"/>
	<path class="st15" d="M397.8,252.5c0.2-5.2,2.3-9.6,6.1-13.2c1.1-1.1,2.3-2.2,3.4-3.4c0.6-0.6,1.1-1.3,1.8-2.2
		c-1.3,0-1.6,1-2.4,1.4c-0.1-0.9-0.3-1.9-0.5-3.2c0.2-0.8,0.9-1.6,2.2-1.8c0.5-0.1,0.9-0.4,1.3-0.7c0.6,2,1.3,4,1.9,6
		c0.2,0.6,0.2,1.3,0.3,1.9c-0.3,0.6-0.6,0.9-1.2,1.2c-1.4,0.7-2.4,1.9-3,3.3c-0.5,1.4-0.8,2.9-1.2,4.4c-0.4,1.4-1.3,2.2-2.8,2.3
		c-0.7,0-1.2,0.3-1.6,0.9c-0.5,0.8-1.1,1.6-1.6,2.5c-0.4,0.8-1,1-1.8,0.8C398.4,252.7,398.1,252.6,397.8,252.5z"/>
	<path class="st15" d="M451.3,296.2c-2.5,1.1-4.8,2.5-7.6,2.6c-1,0.1-1.3-0.7-1.7-1.3c-0.8-1.3-2.1-2.3-3.5-2.5
		c-1.6-0.2-3.1-0.8-4.8-0.9c-1-0.1-1.8-0.8-1.9-1.8c-0.1-1.4-0.8-2.2-2-2.7c-0.5-0.2-1-0.6-1.6-0.8c-0.8-0.3-1.1-0.8-1.1-1.6
		c0-0.3,0-0.7,0-1c5.1-0.4,9.6,1.3,13.4,4.6c1.7,1.5,3.4,2.9,5.2,4.3c0.4,0.3,0.8,0.5,1.2,0.7c0.1-0.1,0.1-0.2,0.2-0.3
		c-0.6-0.7-1.3-1.4-1.9-2c0.8-0.1,1.5-0.1,2.3-0.3c1.4-0.4,2.1-0.1,2.7,1.2C450.6,295,451,295.6,451.3,296.2z"/>
	<path class="st16" d="M51.4,242.9c0.2-3.8,0.3-7.6,0.6-11.4c0.3-3.6,0.6-7.2,1.1-10.8c0.5-4,1.2-7.9,2-11.8
		c1.7-8.7,3.9-17.4,7-25.8c1.9-5.2,4-10.3,6.2-15.3c4.1-9.3,9.2-18,15.1-26.3c2.7-3.8,5.6-7.3,8.4-11c0.3-0.4,0.4-0.9,0.6-1.4l0,0
		c0.2-0.1,0.5-0.2,0.7-0.3l0,0c0.2-0.1,0.3-0.2,0.5-0.3c0.1-0.3,0.1-0.5,0.2-0.7s0.4-0.3,0.6-0.4c0.1,0.2,0.2,0.4,0.4,0.6
		c-0.9,1.2-1.8,2.5-2.8,3.7c-4,4.7-7.6,9.7-10.9,14.9c-4.9,7.5-9.1,15.3-12.8,23.5c-2.6,5.7-4.8,11.6-6.8,17.5
		c-2.5,7.7-4.5,15.5-5.9,23.5c-0.9,5.1-1.6,10.2-2.3,15.3c-0.4,2.9-0.5,5.9-0.8,8.9c-0.2,2.6-0.5,5.2-0.7,7.9
		C51.7,242.9,51.5,242.9,51.4,242.9z"/>
	<path class="st14" d="M449.7,284.6c6.8-1.4,13.7-2.6,20.8-3.6c-0.4,0.5-0.7,1.1-1.2,1.5c-2.7,2.4-5.3,4.7-8,7.1
		c-1.1,1-2.3,1.3-3.8,0.4c-2.6-1.6-5.2-3.2-7.9-4.8C449.7,284.9,449.7,284.7,449.7,284.6z"/>
	<path class="st14" d="M396.1,209c1.2,1.5,2.4,2.9,3.6,4.5s2.4,3.3,3.6,4.9c0.4,0.6,0.7,1.2,1,1.9c0.3,0.6,0.3,1.2-0.1,1.7
		c-1.9,2.7-3.9,5.4-5.8,8c-0.1,0.1-0.2,0.1-0.4,0.1c-0.1-0.1-0.2-0.2-0.2-0.3c-0.7-6.9-1.4-13.7-2.2-20.6
		C395.8,209.1,396,209,396.1,209z"/>
	<path class="st17" d="M427.1,286.2c0,0.3,0,0.7,0,1c0,0.8,0.3,1.3,1.1,1.6c0.6,0.2,1,0.6,1.6,0.8c1.2,0.5,1.9,1.3,2,2.7
		c0.1,0.9,0.9,1.7,1.9,1.8c1.6,0.1,3.1,0.7,4.8,0.9c1.4,0.2,2.7,1.2,3.5,2.5c0.4,0.6,0.7,1.4,1.7,1.3c-4.6,1.8-8.6,0.7-12.1-2.6
		c-2.3-2.1-4.5-4.4-7.2-6c-1.4-0.9-2.9-1.5-4.4-2.3c-0.3-0.2-0.6-0.4-0.9-0.6C420.5,286.4,423.1,286.1,427.1,286.2z"/>
	<path class="st15" d="M396.1,243.6c0,2.3,0,4.6-0.1,6.9c0,0.3-0.2,0.5-0.3,0.7c-0.2,0-0.3,0.1-0.4,0c-2.7-1.7-5.4-3.3-8.1-5.1
		c-2.8-1.9-4.4-4.7-5.8-7.7c-0.9-2.1-1.5-4.3-1.3-6.6c0.1-0.7,0.4-1.3,0.6-2c0.1,0.4,0.3,0.8,0.4,1.2c0.1,0.5,0.1,1,0.3,1.4
		c0.6,1.3,1.2,2.6,1.8,3.9c0.6,1.4,1.4,2.6,2.5,3.6c0.6,0.5,1,1.2,1.5,1.7c1.1,1.2,2.2,2.4,4,2c0.8-0.2,1.5-0.6,2.2-1
		c0.6-0.3,1-0.4,1.4,0.1C395.2,243.3,395.7,243.4,396.1,243.6z"/>
	<path class="st15" d="M436.1,283.9c-2.6,0.2-5.1,0.3-8,0.5c0.3-0.6,0.4-1,0.6-1.3c0.9-1.9,1.9-3.7,2.8-5.6
		c2.8-5.5,7.2-8.9,13.2-10.3c1.2-0.3,2.5-0.4,3.7,0.1c-0.2,0.2-0.4,0.6-0.6,0.6c-1.1-0.1-2,0.5-2.9,1c-1.4,0.8-3,1.4-4.3,2.5
		c-1.6,1.4-3.1,3.1-4.4,4.8c-1.1,1.4-1,2.9,0.1,4.3c0.3,0.4,0.6,0.9,0.7,1.1C436.6,282.6,436.3,283.2,436.1,283.9z"/>
	<path class="st17" d="M397.8,252.5c0.3,0.1,0.6,0.2,0.9,0.3c0.8,0.1,1.4,0,1.8-0.8c0.4-0.9,1-1.7,1.6-2.5c0.4-0.6,0.9-0.9,1.6-0.9
		c1.5,0,2.4-0.8,2.8-2.3s0.7-3,1.2-4.4c0.5-1.5,1.6-2.6,3-3.3c0.6-0.3,1-0.6,1.2-1.2c0.1,1.3,0.4,2.5,0.4,3.8
		c-0.1,2.5-1.1,4.8-2.9,6.6s-3.7,3.6-5.5,5.4c-1.9,1.9-3.5,3.9-4.7,6.3c-0.2,0.5-0.6,0.8-1,1.4c-0.2-0.4-0.4-0.6-0.4-0.8
		C397.7,257.5,397.8,255,397.8,252.5z"/>
	<path class="st5" d="M41.2,285.2c-0.3-3.9-0.7-7.8-1-11.6c-0.1-0.7,0-1.3,0-2c0-5.9-0.1-11.8,0-17.7c0-2.7,0.4-5.5,0.6-8.2
		c0.1-1.5,0.2-3,0.4-4.4c0.3-2.9,0.6-5.8,1-8.7c0.6-4.2,1.2-8.3,1.9-12.5c1.4-8,3.3-15.9,5.5-23.7c2.6-9.1,5.5-18,9.2-26.6
		c1.4-3.3,2.9-6.7,4.3-10c0.2-0.5,0.7-1,0.3-1.7c0.4-0.7,0.5-1.6,1.7-1.2c-1.1,2.4-2.1,4.8-3.2,7.2c-3.8,8.6-7.1,17.4-9.8,26.4
		c-1.2,4.2-2.5,8.4-3.6,12.7c-1.2,4.8-2.3,9.7-3.3,14.6c-0.9,4.4-1.6,8.7-2.3,13.1c-0.5,3.1-0.8,6.3-1.1,9.5
		c-0.3,3.4-0.6,6.9-1,10.3c0,0.1,0,0.2,0,0.3c-0.1,4.3-0.3,8.7-0.3,13c0,3.6,0.1,7.3,0.3,10.9c0.1,2.9,0.4,5.8,0.6,8.7
		c0,0.5,0.2,1,0.2,1.5C41.5,285.2,41.3,285.2,41.2,285.2z"/>
	<path class="st18" d="M436.1,283.9c0.3-0.6,0.5-1.3,0.9-2.2c-0.1-0.2-0.4-0.7-0.7-1.1c-1.1-1.5-1.2-2.9-0.1-4.3
		c1.4-1.7,2.8-3.4,4.4-4.8c1.2-1.1,2.8-1.6,4.3-2.5c0.9-0.5,1.8-1.1,2.9-1c0.2,0,0.4-0.4,0.6-0.6c1.4,0.1,2.7,0.3,4,1
		c-0.1,0.8-0.7,1.2-1.4,1.5c-1.8,0.7-3.6,1.4-5.3,2.2c-0.9,0.4-1.8,1-2.7,1.6c-0.4,0.3-0.7,0.8-1.1,1c-2.2,1.5-2.5,3.9-2.7,6.2
		c-0.1,0.9,0.4,1.8,0.6,2.7C438.5,283.6,437.3,283.8,436.1,283.9z"/>
	<path class="st18" d="M396.1,243.6c-0.4-0.2-0.8-0.3-1.1-0.5c-0.5-0.5-0.9-0.5-1.4-0.1c-0.7,0.4-1.5,0.8-2.2,1
		c-1.8,0.4-2.9-0.9-4-2c-0.5-0.6-0.9-1.2-1.5-1.7c-1.1-1-1.9-2.2-2.5-3.6c-0.6-1.3-1.2-2.6-1.8-3.9c-0.2-0.4-0.2-1-0.3-1.4
		c-0.1-0.4-0.3-0.8-0.4-1.2c0-0.4,0.1-0.9,0.1-1.3c0.1-0.1,0.2-0.3,0.2-0.4c0.3-0.9,0.6-1.8,1-2.7c0.2,0.3,0.3,0.7,0.5,1
		c0.4,0.9,0.9,1.7,1.2,2.6c0.9,3,1.9,6,4,8.5c0.8,0.9,1.6,1.7,2.9,1.9c0.8,0.1,1.6,0.5,2.5,0.8c0.3,0.1,0.6,0,0.9-0.1
		c0.6-0.1,1.3-0.3,1.9-0.4C396.1,241.1,396.1,242.3,396.1,243.6z"/>
	<path class="st19" d="M399.3,272c-0.8-2.2-1.3-4.3-0.6-6.6c1.8-0.9,2.7-2.6,3.4-4.4c0.8-1.9,1.9-3.9,3.1-5.5
		c1.4-1.8,3.1-3.4,5.7-3.4c0,0.4,0.1,0.8-0.1,1.1c-1,1.9-2,3.9-3.1,5.8c-0.2,0.3-0.6,0.6-0.9,0.6c-1,0.1-1.3,0.7-1.5,1.5
		c-0.4,1.8-1.4,3.1-2.5,4.6c-0.5,0.7-1.1,1.6-1.1,2.5C401.7,270.1,400.6,271.1,399.3,272z"/>
	<path class="st19" d="M407.9,288.9c2.2-0.6,4.3-1.2,6.6-1c0.7,1.7,2.1,2.5,3.7,2.9c2.6,0.8,5.1,1.7,7.3,3.3
		c1.6,1.3,2.9,2.8,3.3,4.9c-0.6-0.1-1.3,0-1.9-0.2c-1-0.3-1.9-0.8-2.9-1.2c-1.2-0.6-2.4-1-3.1-2.3c-0.4-0.7-1.2-1.2-2.1-1.2
		s-1.6-0.3-2.3-0.8c-0.8-0.5-1.6-1-2.4-1.4c-0.7-0.3-1.4-0.5-2.2-0.6c-0.5-0.1-1.1,0-1.5-0.3C409.5,290.4,408.8,289.6,407.9,288.9z"
		/>
	<path class="st7" d="M241.2,66.7c0-0.1,0-0.2,0-0.4c3.7-0.1,7.4,0.2,11,0.6c2.7,0.3,5.5,0.4,8.2,0.8c3.4,0.5,6.7,1,10.1,1.6
		c8.8,1.7,17.4,3.9,25.8,6.8c5.8,2,11.5,4.3,17.1,6.9c7.2,3.3,14,7.1,20.7,11.2c0.4,0.3,0.9,0.4,1.4,0.6c0.7,0.6,1.9,0.7,1.9,2
		c-0.5-0.2-1-0.4-1.5-0.7c-5-3.1-10-6.1-15.3-8.8c-7.5-3.9-15.3-7.2-23.3-10.1c-6-2.1-12.1-4-18.3-5.4c-5-1.1-10-2.1-15-2.9
		c-3.7-0.6-7.5-1-11.3-1.3c-3.5-0.3-7.1-0.5-10.7-0.7C241.8,66.9,241.5,66.7,241.2,66.7z"/>
	<path class="st20" d="M407.9,288.9c0.8,0.7,1.6,1.5,2.5,2.1c0.4,0.3,1,0.2,1.5,0.3c0.7,0.2,1.5,0.3,2.2,0.6
		c0.8,0.4,1.7,0.8,2.4,1.4c0.7,0.5,1.4,0.8,2.3,0.8s1.7,0.5,2.1,1.2c0.7,1.3,1.9,1.7,3.1,2.3c0.9,0.4,1.9,0.9,2.9,1.2
		c0.6,0.2,1.3,0.2,1.9,0.2c0.3,0.2,0.7,0.5,1,0.6c0.3,0.2,0.7,0.2,1,0.4c-2.3-0.2-4.7-0.4-7-0.6c-1.2-0.1-2.4-0.4-3.6-0.4
		c-2.3,0-4.1-1.1-5.7-2.6c-1.8-1.6-3.6-3.2-5.4-4.8c-0.9-0.7-1.9-1.2-3.1-1.9C406.7,289.5,407.3,289.2,407.9,288.9z"/>
	<path class="st20" d="M399.3,272c1.3-1,2.4-2,2.5-3.8c0-0.8,0.6-1.8,1.1-2.5c1-1.4,2.1-2.8,2.5-4.6c0.2-0.8,0.6-1.4,1.5-1.5
		c0.3,0,0.7-0.3,0.9-0.6c1.1-1.9,2.1-3.8,3.1-5.8c0.2-0.3,0.1-0.8,0.1-1.1c0.3-0.5,0.7-1.1,1-1.6c-0.4,2.4-0.8,4.8-1.1,7.3
		c-0.2,1.1-0.4,2.3-0.6,3.4c-0.5,2.8-2.5,4.5-4.5,6.2c-0.9,0.8-1.8,1.6-2.6,2.5c-0.3,0.3-0.3,0.8-0.4,1.2l0,0c-0.4,0.3-1,0.6-1.3,1
		c-0.5,0.6-0.8,1.2-1.2,1.9C399.3,273.5,399.4,272.7,399.3,272z"/>
	<path class="st21" d="M445.7,285.2c1.1,0.4,2.2,0.6,3.2,1.2c2.7,1.7,5.4,3.5,8.1,5.3c0.2,0.1,0.4,0.2,0.7,0.5
		c-1.6,1.5-3.2,2.6-5,3.4c-1.3-1.5-2.4-3.1-3.9-4.4c-0.3-0.3-0.5-0.8-0.8-1c-0.3-0.3-0.9-0.6-1.2-0.5c-1,0.3-1.4-0.4-1.7-1
		c-0.5-1.2-0.8-2.5-1.1-3.7c0.3,0,0.7,0,1,0C445.2,285.1,445.5,285.1,445.7,285.2z"/>
	<path class="st21" d="M398,235.9c-0.1-1.5,0.3-3,1.2-4.2c2.1-2.9,4.4-5.6,6.6-8.4c0.1-0.1,0.3-0.2,0.5-0.4c1.2,1.5,2.3,3,2.7,5
		c-1.5,0.9-3,2-4.2,3.3c-0.2,0.2-0.5,0.4-0.8,0.5c-0.8,0.4-1.4,0.9-1.3,1.9c0.1,0.7-0.3,1-0.9,1.2
		C400.5,235.2,399.2,235.6,398,235.9z"/>
	<path class="st22" d="M382.8,265.4c-1.1-1.7-2-3.5-2.7-5.4c0.1-0.1,0.2-0.1,0.3-0.2c0.3,0.2,0.7,0.5,1,0.7c2.4,2.2,5.2,3.4,8.4,3.9
		c1.4,0.2,2.7,0.6,4,0.9c1.5,0.3,2.3,1.2,2.3,2.8c-0.8,0-1.5,0-2.3-0.1c-0.9-0.1-1.7,0.1-2.3,0.9c-0.2,0.3-0.5,0.6-0.7,0.8
		c-2-1.3-2-1.3-4.6-1.3c-0.3,0-0.5,0-0.8,0c-0.1-1.6-0.7-2.3-2.3-2.6l0,0C383,265.6,382.9,265.5,382.8,265.4z"/>
	<path class="st22" d="M413.3,272.4c1.6-1.2,3.2-2.2,5-3c0.1,0.1,0.2,0.2,0.3,0.3c-0.3,0.4-0.5,0.9-0.8,1.3
		c-1.8,2.5-2.8,5.2-2.9,8.2c-0.1,1.5-0.4,3-0.6,4.5c-0.2,1.2-0.9,2-2.3,1.9c-0.7-0.7-0.4-1.6-0.4-2.3c0-0.9-0.2-1.6-1-2
		c-0.7-0.3-0.8-0.9-0.3-1.5s0.5-1.3,0.4-2.1c-0.2-1.2-0.2-2.3,1.2-3C412.7,274.2,413.2,273.4,413.3,272.4z"/>
	<path class="st23" d="M398,235.9c1.3-0.4,2.5-0.7,3.8-1.1c0.6-0.2,1-0.5,0.9-1.2c-0.1-1,0.5-1.5,1.3-1.9c0.3-0.1,0.6-0.3,0.8-0.5
		c1.2-1.4,2.7-2.4,4.2-3.3c0.2,0.5,0.4,0.9,0.6,1.4c-0.4,0.2-0.8,0.6-1.3,0.7c-1.3,0.3-2,1-2.2,1.8c0.2,1.3,0.3,2.3,0.5,3.2
		c-1.7,1.7-3.3,3.5-5,5.2c-1.2,0.4-2.6,0-3.8,0.6C397.9,239.2,397.9,237.6,398,235.9z"/>
	<path class="st23" d="M444,285c0.4,1.2,0.7,2.5,1.1,3.7c0.2,0.6,0.7,1.2,1.7,1c0.3-0.1,0.9,0.2,1.2,0.5c0.3,0.3,0.5,0.8,0.8,1
		c1.5,1.3,2.6,2.9,3.9,4.4c-0.5,0.2-0.9,0.4-1.4,0.7c-0.3-0.6-0.7-1.2-1-1.9c-0.6-1.3-1.4-1.6-2.7-1.2c-0.7,0.2-1.5,0.2-2.3,0.3
		c-1.9-1.5-3.7-3.1-5.6-4.6c-0.2-1.2-0.4-2.4-0.6-3.5C440.7,285.2,442.4,285.1,444,285z"/>
	<path class="st24" d="M408.6,273c0.6-1.5,1.1-3.1,1.7-4.6c1.7-4.5,2.9-9.1,3.8-14.1c0.2,0.7,0.4,1.1,0.4,1.6
		c0.3,3.7,0.5,7.4,0.8,11c0.1,1-0.2,1.7-1.1,2.3c-1.6,1-3,2.3-4.5,3.4C409.4,272.7,409,272.9,408.6,273L408.6,273z"/>
	<path class="st19" d="M407.3,287.2c-0.7,0.3-1.4,0.5-2.2,0.8c-1.3,0.5-2,0-2.1-1.3c-0.1-1.1-0.4-2.1-0.7-3.1
		c0.4-0.8,0.8-1.6,1.3-2.3c0.3-0.5,0.8-0.9,0.7-1.6l0,0c0.1-0.1,0.2-0.2,0.3-0.3l0,0c0.1-0.1,0.2-0.2,0.3-0.3l0,0
		c0.1-0.1,0.2-0.2,0.3-0.4c1.7-1.5,3.2-3.2,5.3-4.3c-0.2,1.3-1.4,1.7-2.4,2.4c0.5,1.1,1,2.2,0.4,3.4c-0.4,0.8-0.6,1.8-1.1,2.6
		C406.7,284.2,406,285.6,407.3,287.2z"/>
	<path class="st19" d="M389.3,274.7c-1-1.2-1.9-2.5-2.9-3.7c0.4,0,0.9,0.1,1.1-0.1c0.8-0.6,1.5-0.4,2.3-0.3c1.6,0.2,2.6,1.2,3.7,2
		c1.3,0.8,2.3,0.9,3.5,0.1c0.3,0.8,0.7,1.6,0.9,2.5c0.2,0.9,0,1.3-1,1.6c-0.7,0.2-1.5,0.2-2.3,0.3c-0.6,0.1-1.1,0.2-1.7,0.3
		c-0.6-0.4-1.2-0.9-1.8-1.3c-0.5-0.4-1-0.7-1.5-1l0,0C389.6,274.9,389.5,274.8,389.3,274.7z"/>
	<path class="st25" d="M407.3,287.2c-1.3-1.6-0.6-3,0.2-4.5c0.5-0.8,0.7-1.7,1.1-2.6c0.5-1.2,0.1-2.3-0.4-3.4c1-0.7,2.2-1.1,2.4-2.4
		l0,0c0.1-0.1,0.2-0.2,0.3-0.3l0,0c0.2-0.1,0.5-0.2,0.7-0.3c0.5-0.4,1.1-0.9,1.6-1.3c0,1-0.6,1.9-1.4,2.3c-1.4,0.7-1.4,1.8-1.2,3
		c0.1,0.8,0.2,1.5-0.4,2.1c-0.5,0.6-0.3,1.1,0.3,1.5c0.9,0.4,1,1.2,1,2s-0.3,1.7,0.4,2.3C410.4,286.2,408.8,286.7,407.3,287.2z"/>
	<path class="st26" d="M404.3,279.6c0.1,0.7-0.3,1.1-0.7,1.6c-0.5,0.7-0.9,1.6-1.3,2.3c-0.6,0.7-0.4,1.5-0.2,2.2
		c0.7,1.8-0.7,3.7-2.1,4.3c-1.3,0.5-2.6,1.1-3.9,1.7c-0.5,0.2-1,0.4-1.5-0.3c0.1-0.3,0.2-0.6,0.4-0.8c1.6-2.1,3.2-4.3,5-6.4
		C401.2,282.6,402.8,281.1,404.3,279.6z"/>
	<path class="st26" d="M398.5,292.8c5.1-3.9,11.2-1.5,14,3.9c-0.2,0-0.5,0.1-0.6,0.1c-3.9-1.8-8.1-2.8-12.3-3.5
		C399.2,293.1,398.9,292.9,398.5,292.8z"/>
	<path class="st25" d="M397.1,272.6c-1.2,0.8-2.2,0.7-3.5-0.1c-1.2-0.7-2.2-1.8-3.7-2c-0.8-0.1-1.6-0.3-2.3,0.3
		c-0.3,0.2-0.7,0.1-1.1,0.1c-0.1-0.2-0.2-0.4-0.3-0.6c0.6-0.8-0.1-0.9-0.7-1l0,0c0-0.3,0-0.6,0-1l0,0c0.3,0,0.5,0,0.8,0
		c2.6,0,2.6,0,4.6,1.3c0.2-0.3,0.5-0.5,0.7-0.8c0.6-0.8,1.4-1,2.3-0.9c0.8,0.1,1.5,0.1,2.3,0.1C396.4,269.6,396.8,271.1,397.1,272.6
		z"/>
	<path class="st26" d="M402.6,271c0.9-0.7,1.8-1.5,2.7-2.1c0.6-0.4,1.3-0.6,1.9-0.9l0,0c-0.6,1.4-1.2,2.7-1.7,4.1
		c-0.6,1.5-1.3,2.9-1.7,4.4c-0.4,1.5-1.4,2.4-2.5,3.5c-0.9-1.7-0.9-3.4-0.5-5c0.2-1,0.8-1.9,1.2-2.8
		C402.3,271.8,402.5,271.4,402.6,271C402.7,271,402.6,271,402.6,271z"/>
	<path class="st27" d="M430.8,300.1c-0.3-0.1-0.7-0.2-1-0.4c-0.4-0.2-0.7-0.4-1-0.6c-0.3-2.1-1.6-3.7-3.3-4.9
		c-2.2-1.7-4.7-2.6-7.3-3.3c-1.6-0.5-3-1.3-3.7-2.9c2.5,0,4.7,0.9,6.7,2.3c1.8,1.2,3.4,2.5,5.1,3.8c2.1,1.6,4.2,3.3,6.3,4.9
		c0.4,0.3,0.7,0.8,1,1.2c-0.8,0-1.6,0-2.4,0C431.2,300.1,431,300.1,430.8,300.1z"/>
	<path class="st27" d="M411.9,250.5c-0.3,0.5-0.7,1.1-1,1.6c-2.6,0-4.3,1.5-5.7,3.4c-1.3,1.7-2.3,3.6-3.1,5.5
		c-0.8,1.8-1.6,3.4-3.4,4.4c-0.1-3,1.5-5.3,3.3-7.5c1.8-2.1,3.8-4.1,5.7-6.1c1-1.1,2-2.4,3-3.5c0.4-0.5,1-0.8,1.5-1.1
		C412.1,248.3,412,249.4,411.9,250.5L411.9,250.5z"/>
	<path class="st26" d="M389.7,275c0.5,0.3,1,0.7,1.5,1c0.6,0.4,1.2,0.9,1.8,1.3c0.8,0.1,1.7,0.4,2.5,0.3c2.6-0.2,3.5,1.1,4.1,2.9
		c0.3,0.8,0.2,1.4-0.4,2c-0.4,0.3-0.6,0.8-0.9,1.3c-0.9-0.7-1.6-1.1-2.2-1.6c-2.1-2.1-4.1-4.3-6.1-6.4
		C389.9,275.5,389.8,275.2,389.7,275z"/>
	<path class="st24" d="M392.1,292.2c0.7-3.2,1.3-6.5,2.1-10c1.2,0.9,2.2,1.6,3.3,2.5c-1.7,2.6-3.3,5.1-5,7.6
		C392.3,292.3,392.2,292.3,392.1,292.2z"/>
	<path class="st15" d="M397.8,240.9c1.2-0.7,2.6-0.3,3.8-0.6c-1.1,1.6-2.2,3.1-3.4,4.8c-0.4-0.7-0.2-1.4-0.2-2.1
		C397.9,242.3,397.9,241.6,397.8,240.9z"/>
	<path class="st15" d="M439.1,285.3c0.2,1.2,0.4,2.4,0.6,3.5c-1.6-0.9-3.1-1.8-4.7-2.7c0-0.1,0-0.2,0-0.3
		C436.4,285.7,437.7,285.5,439.1,285.3z"/>
	<path class="st19" d="M431.4,265.1c-0.3,0.2-0.5,0.4-0.8,0.5c-2.2,0.5-4.3,1-6.5,1.5c0.6-0.4,1.2-0.9,1.9-1.1
		C427.8,265.4,429.6,264.9,431.4,265.1z"/>
	<path class="st25" d="M377.9,239.6c0.6,2.3,0.6,4.5-0.7,6.6C377.4,244,377.7,241.8,377.9,239.6z"/>
	<path class="st19" d="M377.2,246.9c0.3,1.6,0.7,3.2,1,4.9c0.2,0.9,0.2,1.8,0.4,2.7c-1.1-1.7-1.3-3.5-1.3-5.5
		C377.2,248.3,377.2,247.6,377.2,246.9z"/>
	<path class="st19" d="M438.4,265.4c-2.3,0.8-4.5,0.7-6.3-0.3C434.2,265.2,436.3,265.3,438.4,265.4z"/>
	<path class="st3" d="M124.5,418.5c-1.7-0.3-2.9-1.5-4.1-2.5C121.9,416.5,123.3,417.4,124.5,418.5L124.5,418.5z"/>
	<path class="st25" d="M383.1,265.7c1.6,0.3,2.2,1,2.3,2.6l0,0c-0.3-0.2-0.7-0.4-1-0.7l0,0c-0.1-0.1-0.2-0.2-0.3-0.3l0,0
		c-0.1-0.2-0.3-0.4-0.4-0.7C383.5,266.4,383.3,266,383.1,265.7z"/>
	<path class="st4" d="M168.5,437.4c-0.8-0.2-1.6-0.4-2.5-0.6c0.9-0.4,1.7-0.1,2.4,0.2C168.5,437.1,168.5,437.2,168.5,437.4z"/>
	<path class="st20" d="M411.9,250.5c0.1-1.1,0.2-2.2,0.3-3.3c0.1,0.1,0.3,0.3,0.3,0.3C412.3,248.5,412.1,249.5,411.9,250.5z"/>
	<path class="st19" d="M384.5,267.7c0.3,0.2,0.7,0.4,1,0.7c0,0.3,0,0.6,0,1C385.1,268.8,384.8,268.2,384.5,267.7z"/>
	<path class="st20" d="M431.3,300.1c0.8,0,1.6,0,2.4,0C432.9,300.7,432.1,300.6,431.3,300.1z"/>
	<path class="st19" d="M385.5,269.3c0.5,0.1,1.2,0.2,0.7,1C385.9,270,385.7,269.7,385.5,269.3z"/>
	<path class="st3" d="M124.5,418.5c0.3,0.2,0.7,0.4,1,0.7l0,0C125.1,419,124.8,418.7,124.5,418.5L124.5,418.5z"/>
	<path class="st7" d="M128.5,421.1c-0.2-0.1-0.3-0.2-0.5-0.3c0,0,0-0.2,0.1-0.2c0.2,0.1,0.3,0.2,0.5,0.2
		C128.6,420.9,128.5,421,128.5,421.1z"/>
	<path class="st4" d="M165.3,436.3c-0.2,0-0.4,0-0.5,0.1c0.1-0.1,0.1-0.2,0.2-0.2C165.1,436.1,165.2,436.2,165.3,436.3z"/>
	<path class="st28" d="M168.5,437.4c0-0.1,0-0.3,0-0.4c0.3,0.1,0.7,0.2,1,0.3l-0.1,0.1C169.1,437.4,168.8,437.4,168.5,437.4z"/>
	<path class="st19" d="M411.6,273.7c-0.2,0.1-0.5,0.2-0.7,0.3C411.2,273.9,411.4,273.8,411.6,273.7z"/>
	<path class="st24" d="M408.7,273c-0.1,0.1-0.1,0.3-0.2,0.4l-0.1-0.1C408.4,273.2,408.5,273.1,408.7,273
		C408.6,273,408.7,273,408.7,273z"/>
	<path class="st9" d="M93.1,128.8c-0.2,0.1-0.5,0.2-0.7,0.3C92.6,129,92.8,128.9,93.1,128.8z"/>
	<path class="st10" d="M370.6,144.9c0.1,0.2,0.2,0.5,0.3,0.7l-0.1,0.1c-0.1-0.2-0.3-0.4-0.4-0.6C370.5,145,370.6,145,370.6,144.9z"
		/>
	<path class="st10" d="M371.2,146c0.1,0.1,0.2,0.2,0.3,0.4c-0.1,0-0.1,0.1-0.2,0.1C371.3,146.3,371.3,146.1,371.2,146L371.2,146z"/>
	<path class="st19" d="M383.7,266.7c0.1,0.2,0.3,0.4,0.4,0.7C384,267.1,383.9,266.9,383.7,266.7z"/>
	<path class="st28" d="M69.9,148.1c0.1-0.3,0.2-0.6,0.3-0.8C70.1,147.6,70,147.9,69.9,148.1z"/>
	<path class="st23" d="M445.7,285.2c-0.2-0.1-0.4-0.1-0.7-0.2C445.2,285.1,445.5,285.1,445.7,285.2z"/>
	<path class="st3" d="M126.1,419.5c-0.2-0.1-0.4-0.2-0.7-0.3l0,0C125.7,419.3,125.9,419.4,126.1,419.5L126.1,419.5z"/>
	<path class="st3" d="M126.5,419.8c0.2,0,0.3,0.1,0.5,0.1C126.8,419.9,126.6,419.9,126.5,419.8L126.5,419.8z"/>
	<path class="st10" d="M103.3,119.2c0.2-0.1,0.5-0.2,0.7-0.3C103.7,119,103.5,119.1,103.3,119.2z"/>
	<path class="st7" d="M129.4,421.5c0.1,0,0.3,0.1,0.4,0.1C129.7,421.6,129.6,421.5,129.4,421.5L129.4,421.5z"/>
	<path class="st19" d="M378.5,254.5c0.1,0.2,0.2,0.4,0.3,0.6C378.7,254.9,378.6,254.7,378.5,254.5z"/>
	<path class="st9" d="M93.6,128.4c-0.2,0.1-0.3,0.2-0.5,0.3C93.2,128.7,93.4,128.6,93.6,128.4z"/>
	<path class="st10" d="M370.9,145.6c0.1,0.1,0.2,0.2,0.3,0.4l0,0C371.1,145.9,371,145.8,370.9,145.6
		C370.9,145.7,370.9,145.6,370.9,145.6z"/>
	<path class="st15" d="M381.1,228.3c-0.1,0.1-0.2,0.3-0.2,0.4C381,228.5,381.1,228.4,381.1,228.3z"/>
	<path class="st26" d="M404.6,279.3c-0.1,0.1-0.2,0.2-0.3,0.3C404.4,279.5,404.5,279.4,404.6,279.3z"/>
	<path class="st26" d="M405,278.9c-0.1,0.1-0.2,0.2-0.3,0.3C404.7,279.2,404.9,279,405,278.9z"/>
	<path class="st25" d="M382.8,265.4c0.1,0.1,0.2,0.2,0.3,0.3C383,265.6,382.9,265.5,382.8,265.4z"/>
	<path class="st26" d="M405.3,278.6c-0.1,0.1-0.2,0.2-0.3,0.4C405.1,278.8,405.2,278.7,405.3,278.6z"/>
	<path class="st26" d="M389.3,274.7c0.1,0.1,0.3,0.2,0.4,0.3C389.6,274.9,389.5,274.8,389.3,274.7z"/>
	<path class="st19" d="M410.9,274c-0.1,0.1-0.2,0.2-0.3,0.3C410.7,274.2,410.8,274.1,410.9,274z"/>
	<path class="st26" d="M407.3,268l0.1-0.1v0.1H407.3L407.3,268z"/>
	<path class="st3" d="M126.5,419.8c-0.1-0.1-0.2-0.2-0.3-0.3l0,0C126.2,419.6,126.3,419.7,126.5,419.8L126.5,419.8z"/>
	<path class="st29" d="M103.3,119.6c0-0.1,0-0.3,0-0.4C103.3,119.3,103.3,119.4,103.3,119.6z"/>
	<path class="st7" d="M129.4,421.5c0-0.1-0.1-0.1-0.1-0.2C129.3,421.4,129.4,421.4,129.4,421.5L129.4,421.5z"/>
	<path class="st19" d="M384.1,267.4c0.1,0.1,0.2,0.2,0.3,0.3C384.3,267.6,384.2,267.5,384.1,267.4z"/>
	<path class="st1" d="M56.4,300.2c-0.7,0-0.9-0.5-1-1.1c-0.6-4.6-1.4-9.1-1.9-13.7c-0.6-4.7-1-9.4-1.4-14.1c-0.3-3.7-0.4-7.3-0.6-11
		c0.2,0,0.4,0,0.6,0C52.6,273.8,53.9,287.1,56.4,300.2z"/>
	<path class="st1" d="M51.4,242.9c0.2,0,0.3,0,0.5,0c0,3,0.1,5.9,0.1,8.9c0,2.4,0,4.8,0,7.3c-0.2,0.2-0.4,0.4-0.6,0.7
		C50.9,254.1,51.1,248.5,51.4,242.9z"/>
	<path class="st1" d="M60.3,320.4c-0.2-0.2-0.6-0.4-0.6-0.7c-0.7-3.3-1.4-6.5-2.1-9.8c-0.2-1-0.5-1.9-0.8-2.8
		c-0.1-0.5-0.1-0.9,0.5-1c0.4,1.6,0.8,3.2,1.1,4.8c0.6,2.8,1.2,5.6,1.8,8.3C60.3,319.7,60.3,320.1,60.3,320.4z"/>
	<path class="st1" d="M84.5,379.2c-1.4-1.1-2.1-2.7-3-4.2c-0.1-0.2-0.2-0.5-0.4-0.7l0.1-0.1c0.2,0,0.4,0,0.7,0
		c0.8,1.1,1.6,2.3,2.3,3.5C84.3,378.1,84.3,378.6,84.5,379.2z"/>
	<path class="st1" d="M62.6,328.4c-0.7-0.1-0.9-0.6-1.1-1.2c-0.3-1.5-0.7-3-1.1-4.5c0.2,0,0.4,0,0.6-0.1c0.1,0.4,0.2,0.9,0.3,1.3
		c0.1,0.2,0.2,0.5,0.3,0.7C62,325.9,62.3,327.1,62.6,328.4z"/>
	<path class="st1" d="M57.3,305.5c-0.3-0.1-0.8-0.2-0.9-0.5c-0.3-1.1-0.5-2.3-0.7-3.5c0-0.2,0.3-0.4,0.5-0.6
		C56.7,302.5,57,304,57.3,305.5z"/>
	<path class="st1" d="M90.1,386.4c-0.1,0-0.1,0.1-0.2,0c-1.3-1.1-2.5-2.2-2.8-4C88.5,383.5,89.4,384.8,90.1,386.4z"/>
	<path class="st1" d="M64.9,337.7c-1.1-1.2-1-2.7-1.4-4.1c0.2,0,0.3,0,0.5,0c0.4,1.1,0.8,2.1,1.1,3.2
		C65.2,336.9,65,337.3,64.9,337.7z"/>
	<path class="st1" d="M75.7,363.3c-0.3-0.2-0.9-0.2-1-0.5c-0.5-0.9-0.8-1.8-1.2-2.8c0.2,0,0.4-0.1,0.6-0.1
		C74.6,361,75.1,362.1,75.7,363.3z"/>
	<path class="st1" d="M78.8,370.3c-0.6-1-1.1-2-1.7-3c0.2-0.2,0.3-0.3,0.5-0.5c0.5,1,1.1,2,1.6,3C79.1,370,78.9,370.2,78.8,370.3z"
		/>
	<path class="st1" d="M70.9,354.2c-0.5-1.2-0.9-2.3-1.4-3.5c0.2,0,0.5,0,0.7,0c0.3,0.7,0.6,1.5,0.9,2.2
		C71.3,353.4,71.4,353.9,70.9,354.2z"/>
	<path class="st1" d="M87.1,382.5c-1.3-0.2-1.7-1.2-2-2.3C86.4,380.4,86.8,381.4,87.1,382.5z"/>
	<path class="st1" d="M73.2,359.3c-0.4-0.9-0.7-1.7-1.1-2.6c0.2,0,0.4,0,0.6-0.1c0.4,0.9,0.7,1.8,1.1,2.6
		C73.5,359.3,73.3,359.3,73.2,359.3z"/>
	<path class="st1" d="M92.7,390.1c-1-0.4-1.8-1.1-1.7-2.3C91.9,388.3,92.8,388.8,92.7,390.1z"/>
	<path class="st1" d="M67.2,344.8c-0.4-1-0.7-2-1.1-3c0.2,0,0.4-0.1,0.6-0.1c0.3,1,0.7,2,1,3C67.6,344.7,67.4,344.8,67.2,344.8z"/>
	<path class="st1" d="M80.3,372.2c-0.2,0-0.4,0.1-0.5,0c-0.3-0.4-0.5-0.8-0.7-1.3c0.2-0.2,0.3-0.3,0.5-0.5
		C79.8,371.1,80.1,371.6,80.3,372.2z"/>
	<path class="st16" d="M68.8,349.1c-0.2-0.6-0.4-1.1-0.6-1.7c0.2,0,0.4,0,0.6-0.1c0.2,0.5,0.4,1.1,0.6,1.6
		C69.2,349,69,349.1,68.8,349.1z"/>
	<path class="st1" d="M76.2,365.6c-0.3-0.6-1.1-1.1-0.3-1.8c0.3,0.6,0.7,1.2,1,1.8C76.7,365.6,76.4,365.6,76.2,365.6z"/>
	<path class="st16" d="M67.2,344.8c0.2,0,0.4,0,0.6,0c0.2,0.5,0.4,1.1,0.6,1.6c-0.2,0-0.4,0.1-0.6,0.1
		C67.6,345.9,67.4,345.3,67.2,344.8z"/>
	<path class="st16" d="M66.7,341.7c-0.2,0-0.4,0.1-0.6,0.1c-0.2-0.4-0.3-0.7-0.5-1.1c-0.2-0.5,0.2-0.6,0.6-0.7
		C66.4,340.5,66.6,341.1,66.7,341.7z"/>
	<path class="st16" d="M51.4,259.8c0.2-0.2,0.4-0.4,0.6-0.7c0.4,0.4,0.4,0.9,0,1.3c-0.2,0-0.4,0-0.6,0
		C51.4,260.2,51.4,260,51.4,259.8z"/>
	<path class="st1" d="M62.5,330.3c-0.3-0.5-0.5-1.1,0.1-1.5c0.2,0.5,0.3,1,0.5,1.5C62.9,330.2,62.7,330.2,62.5,330.3z"/>
	<path class="st1" d="M63.2,332.6c-0.1-0.4-0.2-0.9-0.4-1.3c0.2,0,0.4-0.1,0.6-0.1c0.1,0.5,0.2,0.9,0.4,1.4
		C63.6,332.5,63.4,332.5,63.2,332.6z"/>
	<path class="st1" d="M60.3,322c0-0.5,0-1,0-1.5c0.2,0.5,0.4,1,0.6,1.5C60.7,321.9,60.5,321.9,60.3,322z"/>
	<path class="st1" d="M91.1,387.8c-1,0-1.1-0.5-1-1.3C90.7,386.7,91.1,387.1,91.1,387.8z"/>
	<path class="st16" d="M70.2,350.7c-0.2,0-0.5,0-0.7,0c-0.2-0.3-0.3-0.7-0.5-1c0.2,0,0.5,0,0.7,0C69.9,350,70,350.4,70.2,350.7z"/>
	<path class="st16" d="M72.6,356.6c-0.2,0-0.4,0-0.6,0.1c-0.2-0.3-0.4-0.7-0.5-1c0.2,0,0.4,0,0.6-0.1
		C72.2,356,72.4,356.3,72.6,356.6z"/>
	<path class="st1" d="M81.1,374.2c-0.4-0.6-1.1-1.1-0.3-1.9c0.1,0.4,0.3,0.9,0.4,1.3C81.2,373.9,81.2,374,81.1,374.2L81.1,374.2z"/>
	<path class="st1" d="M72.1,355.6c-0.2,0-0.4,0-0.6,0.1c-0.1-0.2-0.3-0.4-0.4-0.7c0.1-0.2,0.2-0.4,0.3-0.5c0.2,0.1,0.4,0.2,0.5,0.4
		C71.9,355.1,72,355.4,72.1,355.6z"/>
	<path class="st16" d="M63.2,332.6c0.2,0,0.4,0,0.6-0.1c0.1,0.3,0.2,0.7,0.3,1c-0.2,0-0.3,0-0.5,0C63.4,333.2,63.3,332.9,63.2,332.6
		z"/>
	<path class="st16" d="M63.4,331.1c-0.2,0-0.4,0.1-0.6,0.1c-0.1-0.3-0.2-0.6-0.3-1c0.2,0,0.4,0,0.6-0.1
		C63.2,330.5,63.3,330.8,63.4,331.1z"/>
	<path class="st16" d="M77.6,366.9c-0.2,0.2-0.3,0.3-0.5,0.5c-0.2-0.4-0.4-0.8-0.6-1.2C76.9,366.3,77.2,366.6,77.6,366.9z"/>
	<path class="st1" d="M67.8,346.4c0.2,0,0.4-0.1,0.6-0.1c0.1,0.3,0.3,0.7,0.4,1c-0.2,0-0.4,0-0.6,0.1
		C68.1,347.1,67.9,346.8,67.8,346.4z"/>
	<path class="st1" d="M85.1,380.1c-0.5-0.1-0.7-0.5-0.7-1C85.3,379.1,85.3,379.6,85.1,380.1z"/>
	<path class="st16" d="M79.6,370.5c-0.2,0.2-0.3,0.3-0.5,0.5c-0.1-0.2-0.2-0.4-0.3-0.6c0.2-0.1,0.3-0.3,0.5-0.4
		C79.3,370.1,79.5,370.3,79.6,370.5z"/>
	<path class="st16" d="M60.3,322c0.2,0,0.5,0,0.7,0c0,0.2,0.1,0.4,0.1,0.6c-0.2,0-0.4,0-0.6,0.1C60.4,322.4,60.3,322.2,60.3,322z"/>
	<path class="st1" d="M69.7,349.7c-0.2,0-0.5,0-0.7,0c-0.1-0.2-0.1-0.4-0.2-0.6c0.2,0,0.4-0.1,0.6-0.1
		C69.5,349.2,69.6,349.5,69.7,349.7z"/>
	<path class="st16" d="M73.2,359.3c0.2,0,0.4,0,0.6,0c0.1,0.2,0.2,0.4,0.3,0.6c-0.2,0-0.4,0.1-0.6,0.1
		C73.4,359.8,73.3,359.5,73.2,359.3z"/>
	<path class="st16" d="M76.2,365.6c0.2,0,0.5,0,0.7,0c-0.1,0.2-0.3,0.3-0.4,0.5C76.4,365.9,76.3,365.8,76.2,365.6z"/>
	<path class="st16" d="M61.6,324.6c-0.1-0.2-0.2-0.5-0.3-0.7C61.4,324.1,61.5,324.3,61.6,324.6z"/>
	<path class="st16" d="M81.1,374.2c0-0.2,0.1-0.3,0.1-0.5c0.2,0.2,0.4,0.3,0.6,0.5C81.6,374.2,81.4,374.2,81.1,374.2z"/>
	<path class="st1" d="M65.8,338.5c-0.2,0.2-0.3,0.3-0.5,0.5C65.4,338.8,65.6,338.6,65.8,338.5z"/>
	<path class="st6" d="M41.2,285.2c0.2,0,0.4,0,0.6,0c0.7,5,1.3,10,2.2,15c0.8,4.6,1.9,9.2,3,13.8c1.9,7.6,4.5,14.9,7.4,22.2
		c0.1,0.3,0.2,0.5,0.3,0.8c0,0.1-0.1,0.2-0.1,0.5c-0.3-0.5-0.5-0.8-0.7-1.1c-3.5-8.7-6.4-17.6-8.6-26.8c-1-4.4-1.9-8.9-2.7-13.4
		c-0.6-3.4-0.9-6.8-1.4-10.3C41.1,285.7,41.1,285.4,41.2,285.2z"/>
	<path class="st6" d="M59.3,347.7c-1.2-1.2-1.6-2.8-2.2-4.4C58,344.7,59.1,346,59.3,347.7L59.3,347.7z"/>
	<path class="st6" d="M55,337.9c0.6,1.3,1.1,2.6,1.7,3.9c-0.1,0-0.2,0.1-0.3,0.1c-0.9-1.2-1.3-2.5-1.7-3.9
		C54.8,338,54.9,338,55,337.9z"/>
	<path class="st6" d="M60.3,349.7c0.8,0.7,1.2,1.6,1.3,2.6l0,0C60.8,351.7,60.4,350.8,60.3,349.7L60.3,349.7z"/>
	<path class="st4" d="M63,354.7c0.2,0.4,0.4,0.9,0.7,1.3l0,0C63.4,355.6,63.2,355.1,63,354.7L63,354.7z"/>
	<path class="st4" d="M77.5,376.8c-0.3-0.4-0.7-0.9-1-1.3l0,0C76.8,376,77.2,376.4,77.5,376.8L77.5,376.8z"/>
	<path class="st4" d="M77.8,377.2c0.3,0.4,0.7,0.9,1,1.3l0,0C78.5,378.1,78.2,377.6,77.8,377.2L77.8,377.2z"/>
	<path class="st4" d="M79.2,378.8c0.3,0.2,0.6,0.5,0.9,0.8C79.2,379.8,79.3,379.2,79.2,378.8L79.2,378.8z"/>
	<path class="st4" d="M73.2,370.9c-0.2-0.1-0.3-0.3-0.5-0.4l0.1-0.1C72.9,370.5,73.1,370.7,73.2,370.9L73.2,370.9z"/>
	<path class="st4" d="M67.4,362.6c0.1-0.1,0.1-0.1,0.2-0.2c0.1,0.1,0.1,0.2,0.2,0.3c-0.1,0-0.2,0.1-0.3,0.1
		C67.4,362.8,67.4,362.7,67.4,362.6z"/>
	<path class="st4" d="M68.6,364.3c-0.1-0.2-0.2-0.4-0.3-0.7l0,0C68.4,363.8,68.5,364,68.6,364.3L68.6,364.3z"/>
	<path class="st6" d="M60,349.1c-0.1-0.2-0.2-0.4-0.3-0.7l0,0C59.8,348.6,59.9,348.8,60,349.1L60,349.1z"/>
	<path class="st4" d="M68.9,364.6c0.1,0.2,0.2,0.4,0.3,0.7l0,0C69.1,365.1,69,364.8,68.9,364.6L68.9,364.6z"/>
	<path class="st4" d="M69.9,366.3c-0.1-0.2-0.2-0.4-0.3-0.7l0,0C69.7,365.8,69.8,366,69.9,366.3L69.9,366.3z"/>
	<path class="st6" d="M59.6,348.4c-0.1-0.2-0.2-0.4-0.3-0.7l0,0C59.4,347.9,59.5,348.2,59.6,348.4C59.7,348.4,59.6,348.4,59.6,348.4
		z"/>
	<path class="st4" d="M71.2,368.2c-0.1-0.2-0.2-0.4-0.3-0.7l0,0C71,367.8,71.1,368,71.2,368.2L71.2,368.2z"/>
	<path class="st4" d="M71.9,369.2c-0.1-0.2-0.2-0.4-0.3-0.7l0,0C71.7,368.8,71.8,369,71.9,369.2L71.9,369.2z"/>
	<path class="st4" d="M65.9,360c-0.1-0.2-0.2-0.4-0.3-0.7l0,0C65.7,359.5,65.8,359.7,65.9,360L65.9,360z"/>
	<path class="st4" d="M70.2,366.6c0.1,0.2,0.2,0.4,0.3,0.7l0,0C70.4,367,70.3,366.8,70.2,366.6L70.2,366.6z"/>
	<path class="st4" d="M64.3,357c0.1,0.2,0.2,0.4,0.3,0.7l0,0C64.5,357.5,64.4,357.2,64.3,357L64.3,357z"/>
	<path class="st4" d="M64.6,357.6c0.1,0.2,0.2,0.4,0.3,0.7l0,0C64.8,358.1,64.7,357.9,64.6,357.6C64.6,357.7,64.6,357.6,64.6,357.6z
		"/>
	<path class="st4" d="M73.5,371.6c-0.1-0.2-0.2-0.4-0.3-0.7l0,0C73.3,371.1,73.4,371.3,73.5,371.6L73.5,371.6z"/>
	<path class="st6" d="M60.3,349.7c-0.1-0.2-0.2-0.4-0.3-0.7l0,0C60.1,349.3,60.2,349.5,60.3,349.7L60.3,349.7z"/>
	<path class="st4" d="M66.6,361c0.1,0.2,0.2,0.4,0.3,0.7l0,0C66.8,361.4,66.7,361.2,66.6,361L66.6,361z"/>
	<path class="st4" d="M68.2,363.6c0-0.1-0.1-0.1-0.1-0.2C68.1,363.5,68.2,363.6,68.2,363.6C68.3,363.6,68.2,363.6,68.2,363.6z"/>
	<path class="st4" d="M68.9,364.6c-0.1-0.1-0.2-0.2-0.3-0.3l0,0C68.7,364.4,68.8,364.5,68.9,364.6L68.9,364.6z"/>
	<path class="st4" d="M69.6,365.6c-0.1-0.1-0.2-0.2-0.3-0.3l0,0C69.4,365.4,69.5,365.5,69.6,365.6L69.6,365.6z"/>
	<path class="st4" d="M69.9,366.2c0.1,0.1,0.2,0.2,0.3,0.3l0,0C70.1,366.5,70,366.4,69.9,366.2C69.9,366.3,69.9,366.2,69.9,366.2z"
		/>
	<path class="st4" d="M65.9,360c0,0.1,0.1,0.1,0.1,0.2C66,360.1,66,360,65.9,360L65.9,360z"/>
	<path class="st4" d="M70.6,367.2c0.1,0.1,0.2,0.2,0.3,0.3l0,0C70.8,367.5,70.7,367.4,70.6,367.2C70.6,367.3,70.6,367.2,70.6,367.2z
		"/>
	<path class="st4" d="M71.5,368.6c-0.1-0.1-0.2-0.2-0.3-0.3l0,0C71.3,368.3,71.4,368.5,71.5,368.6C71.6,368.6,71.5,368.6,71.5,368.6
		z"/>
	<path class="st4" d="M72.2,369.6c-0.1-0.1-0.2-0.2-0.3-0.3l0,0C72,369.3,72.1,369.4,72.2,369.6L72.2,369.6z"/>
	<path class="st4" d="M72.2,369.6c0,0.1,0.1,0.1,0.1,0.2C72.3,369.7,72.3,369.6,72.2,369.6L72.2,369.6z"/>
	<path class="st4" d="M73.5,371.5c0.1,0.1,0.2,0.2,0.3,0.3l0,0C73.7,371.8,73.6,371.7,73.5,371.5C73.5,371.6,73.5,371.5,73.5,371.5z
		"/>
	<path class="st4" d="M73.9,371.9c0,0.1,0.1,0.1,0.1,0.2C74,372,73.9,371.9,73.9,371.9L73.9,371.9z"/>
	<path class="st4" d="M74.5,372.9c0-0.1-0.1-0.1-0.1-0.2C74.4,372.8,74.5,372.8,74.5,372.9L74.5,372.9z"/>
	<path class="st4" d="M74.5,372.9c0.1,0.1,0.2,0.2,0.3,0.3l0,0C74.7,373.1,74.6,373,74.5,372.9L74.5,372.9z"/>
	<path class="st4" d="M66.9,361.6c0,0.1,0.1,0.1,0.1,0.2C67,361.7,67,361.7,66.9,361.6L66.9,361.6z"/>
	<path class="st4" d="M75.5,374.2c0-0.1-0.1-0.1-0.1-0.2C75.4,374.1,75.5,374.1,75.5,374.2L75.5,374.2z"/>
	<path class="st4" d="M75.8,374.5c-0.1-0.1-0.2-0.2-0.3-0.3l0,0C75.6,374.3,75.7,374.4,75.8,374.5C75.9,374.5,75.8,374.5,75.8,374.5
		z"/>
	<path class="st4" d="M75.9,374.5c0,0.1,0.1,0.1,0.1,0.2C75.9,374.6,75.9,374.6,75.9,374.5C75.8,374.5,75.9,374.5,75.9,374.5z"/>
	<path class="st4" d="M76.5,375.5c0-0.1-0.1-0.1-0.1-0.2C76.4,375.4,76.5,375.5,76.5,375.5L76.5,375.5z"/>
	<path class="st4" d="M77.5,376.8c0.1,0.1,0.2,0.2,0.3,0.3l0,0C77.7,377.1,77.6,377,77.5,376.8L77.5,376.8z"/>
	<path class="st4" d="M79.2,378.8c-0.1-0.1-0.2-0.2-0.3-0.3l0,0C78.9,378.6,79.1,378.7,79.2,378.8L79.2,378.8z"/>
	<path class="st4" d="M62,353c0,0.1,0.1,0.1,0.1,0.2C62.1,353.1,62,353.1,62,353C61.9,353,62,353,62,353z"/>
	<path class="st4" d="M80.5,380.5c0-0.1-0.1-0.1-0.1-0.2C80.4,380.4,80.4,380.4,80.5,380.5L80.5,380.5z"/>
	<path class="st4" d="M80.5,380.5c0,0.1,0.1,0.1,0.1,0.2C80.6,380.6,80.5,380.5,80.5,380.5L80.5,380.5z"/>
	<path class="st4" d="M62.9,354.7c0-0.1-0.1-0.1-0.1-0.2C62.9,354.6,62.9,354.6,62.9,354.7C63,354.7,62.9,354.7,62.9,354.7z"/>
	<path class="st6" d="M61.6,352.4c0.1,0.1,0.2,0.2,0.3,0.3c-0.1,0-0.2,0-0.3,0C61.6,352.6,61.6,352.5,61.6,352.4L61.6,352.4z"/>
	<path class="st4" d="M63.6,356c0,0.1,0.1,0.1,0.1,0.2C63.7,356.1,63.7,356.1,63.6,356L63.6,356z"/>
	<path class="st4" d="M64.3,357c0-0.1-0.1-0.1-0.1-0.2C64.2,356.9,64.2,356.9,64.3,357L64.3,357z"/>
	<path class="st4" d="M64.9,358.3c0,0.1,0.1,0.1,0.1,0.2C65,358.4,65,358.4,64.9,358.3L64.9,358.3z"/>
	<path class="st4" d="M65.6,359.3c0-0.1-0.1-0.1-0.1-0.2C65.5,359.2,65.6,359.3,65.6,359.3L65.6,359.3z"/>
	<path class="st4" d="M61.6,352.7c0.1,0,0.2,0,0.3,0c0,0.1,0,0.2,0,0.3l0,0C61.8,352.9,61.7,352.8,61.6,352.7z"/>
	<path class="st4" d="M66.6,361c0-0.1-0.1-0.1-0.1-0.2C66.5,360.9,66.5,360.9,66.6,361L66.6,361z"/>
	<path class="st4" d="M74.9,373.2c0,0.1,0.1,0.1,0.1,0.2C74.9,373.3,74.9,373.3,74.9,373.2L74.9,373.2z"/>
</g>
<g>
	<g>
		
			<radialGradient id="SVGID_1_" cx="184.5622" cy="266.9337" r="91.1571" gradientTransform="matrix(1.1771 0 0 -1.0316 -52.1982 507.1688)" gradientUnits="userSpaceOnUse">
			<stop  offset="0" style="stop-color:#90D695"/>
			<stop  offset="1" style="stop-color:#437A55"/>
		</radialGradient>
		<path class="st30" d="M266.5,273.6c0,1-0.9,1.4-1.8,1.4c-0.7,0-1.3-0.2-1.8-0.7c-16.2-9.3-38.5-11.2-61.9-11.7
			c-7.3,25.2-15.4,49-26.5,65c-1.6,2.1-2.9,3.1-4,3.1c-1.3,0-2.2-1.4-2.2-3.1c0-0.7,0-1.7,0.4-2.4c0,0,4.9-12.8,4.9-25.7
			c0-17.4-11.8-29.3-27.1-36.6H141c-8.7,29.7-19.1,56.2-34.7,63.3c-0.9,0.5-1.3,0.5-2,0.5c-1.3,0-2.2-1-2.2-1.9c0-0.5,0-1,0.4-1.4
			c8-11.7,15.4-34.7,23.4-60c-9.6,0.2-19.4,0.2-30,0.2h-7.8c-16-0.2-24.5-3.8-24.5-7.1c0-4.8,11.3-7.9,27.1-7.9
			c11.3,0,25.1,1.7,38.3,5.2c12.2-38.5,26-79.9,44.9-95.2c0.4-0.2,0.7-0.5,1.1-0.5c0.7,0,1.6,0.5,1.6,1.7c0,0.7-0.4,1.4-1.1,2.4
			c-13.8,15-22.3,57.3-32.9,95.4c17.1-1.4,32.5-3.1,46.7-3.8c13.8-47.6,35.2-112.3,75.7-120.9c0.9,0,1.3,0.5,1.3,1.2
			c0,1-0.9,2.1-2.4,2.1c-32.5,12.8-46.7,66.9-60.1,117.1c44.1,0.2,58.5,14,61.6,17.8C266.3,272.2,266.5,272.9,266.5,273.6z
			 M127.2,258.8c0.4-1,0.7-1.7,0.9-2.6c-12.5-3.3-25.4-4.8-35.6-4.8c-12.5,0-21.4,1.9-21.4,5c0,1.7,7.6,3.6,19.8,3.6
			C103.9,260,116.1,259.6,127.2,258.8z M186.9,262.4c-14,0-24.7,0.2-34.3,0.2c12.2,6.7,22,15.5,26,27.4
			C181.1,282.9,183.7,273.1,186.9,262.4z"/>
	</g>
</g>
<g>
	<g>
		
			<radialGradient id="SVGID_00000181064676517928558210000016645037746759576992_" cx="284.6634" cy="199.2183" r="48.4337" gradientTransform="matrix(1.1771 0 0 -1.0316 -52.1982 507.1688)" gradientUnits="userSpaceOnUse">
			<stop  offset="0" style="stop-color:#90D695"/>
			<stop  offset="1" style="stop-color:#437A55"/>
		</radialGradient>
		<path style="fill:url(#SVGID_00000181064676517928558210000016645037746759576992_);" d="M236.4,286.6c0,0.3-0.2,0.9-0.5,2
			s-0.5,2-0.7,3l-5,24.8c-1.8,9.1-6.6,13.7-14.2,13.7c-1.9,0-3.6-0.4-4.8-1.2c-1.3-0.8-1.9-1.8-1.9-3.1c0-0.8,0.2-1.4,0.6-1.8
			c0.4-0.4,0.9-0.6,1.5-0.6c0.4,0,0.7,0.1,1,0.4c0.2,0.3,0.5,0.7,0.8,1.3c0.6,1.1,1.2,2,2,2.7c0.8,0.6,2,1,3.7,1
			c4.1,0,6.9-3.6,8.3-10.8l4-20.9c-1.8,4.9-3.8,8.7-6.2,11.4c-2.4,2.8-4.9,4.2-7.5,4.2c-1.6,0-2.7-0.4-3.5-1.1s-1.1-1.9-1.1-3.5
			c0-1,0.2-2.3,0.6-4l2.6-11.6c0.1-0.7,0.2-1.3,0.2-1.8c0-1.4-0.5-2.1-1.5-2.1s-2.6,1.1-4.9,3.2c-0.1,0.1-0.2,0.1-0.2,0.1
			c-0.1,0-0.3-0.1-0.4-0.2c-0.1-0.2-0.1-0.3,0-0.4c1.7-1.7,3.2-3,4.4-3.8s2.4-1.2,3.6-1.2c0.8,0,1.4,0.2,1.7,0.6
			c0.4,0.4,0.5,1.1,0.5,2c0,1-0.2,2.2-0.5,3.7l-2.4,10.3c-0.3,1.6-0.5,2.9-0.5,3.6c0,2.6,1.1,4,3.3,4c1.6,0,3.3-0.9,5-2.8
			s3.4-4.6,4.9-8.1s2.8-7.7,3.7-12.4c0-0.3,0.2-0.5,0.5-0.6c0.3-0.2,0.7-0.3,1.3-0.3C235.9,286.2,236.4,286.3,236.4,286.6z"/>
		
			<radialGradient id="SVGID_00000065755503602974132260000001171946746387882682_" cx="284.6634" cy="199.2183" r="48.4337" gradientTransform="matrix(1.1771 0 0 -1.0316 -52.1982 507.1688)" gradientUnits="userSpaceOnUse">
			<stop  offset="0" style="stop-color:#90D695"/>
			<stop  offset="1" style="stop-color:#437A55"/>
		</radialGradient>
		<path style="fill:url(#SVGID_00000065755503602974132260000001171946746387882682_);" d="M265.5,285.2c0.3,0,0.4,0.1,0.4,0.2
			l-6.1,30.9c-0.9,4.5-2.6,7.9-5.1,10.2s-5.8,3.5-9.8,3.5c-2.1,0-3.8-0.4-5.2-1.2c-1.4-0.8-2-1.9-2-3.1c0-1.5,0.7-2.2,2.1-2.2
			c0.5,0,0.9,0.1,1.2,0.4s0.6,0.7,1,1.4c0.5,1,1.2,1.9,2,2.4c0.8,0.6,2.1,0.9,3.8,0.9c2,0,3.7-0.8,5.2-2.3s2.6-4.3,3.5-8.4l3.6-19.1
			c-2.2,4.2-4.8,7.5-7.6,10s-5.5,3.8-8,3.8c-2.8,0-4.3-1.6-4.3-4.8c0-0.3,0-1,0.1-2c0.5-3.1,1.7-6.2,3.7-9.3c2-3.1,4.4-5.7,7.1-7.7
			c2.7-2,5.3-3,7.7-3c0.9,0,1.8,0.2,2.6,0.5c0.8,0.3,1.5,0.8,2,1.4c0.9-0.7,1.4-1.5,1.6-2.3C265.1,285.2,265.3,285.2,265.5,285.2z
			 M252.3,307.4c2-1.6,3.9-3.8,5.5-6.3c1.6-2.6,2.7-5.1,3.3-7.6c0.1-0.3,0.1-0.8,0.1-1.4c0-1.2-0.4-2.2-1.1-2.9
			c-0.8-0.7-1.9-1.1-3.3-1.1c-1.8,0-3.6,0.7-5.4,2.1c-1.9,1.4-3.5,3.3-4.9,5.7c-1.4,2.4-2.3,5-2.8,7.9c-0.1,0.9-0.2,1.7-0.2,2.5
			c0,2.6,1,3.8,3.1,3.8C248.4,309.8,250.3,309,252.3,307.4z"/>
		
			<radialGradient id="SVGID_00000141448298522939387020000010702714412015979941_" cx="284.6634" cy="199.2183" r="48.4337" gradientTransform="matrix(1.1771 0 0 -1.0316 -52.1982 507.1688)" gradientUnits="userSpaceOnUse">
			<stop  offset="0" style="stop-color:#90D695"/>
			<stop  offset="1" style="stop-color:#437A55"/>
		</radialGradient>
		<path style="fill:url(#SVGID_00000141448298522939387020000010702714412015979941_);" d="M273.7,311.8c-0.4-0.4-0.6-1.1-0.6-2.2
			c0-1,0.2-2.2,0.5-3.6l2.9-13.5c0.1-0.7,0.2-1.3,0.2-1.8c0-0.7-0.1-1.2-0.4-1.6s-0.6-0.6-1-0.6c-0.6,0-1.3,0.3-2.2,0.8
			c-0.9,0.5-1.9,1.3-2.9,2.3c0,0-0.1,0.1-0.2,0.1s-0.3-0.1-0.4-0.2c-0.1-0.2-0.1-0.3,0-0.4c1.6-1.7,3.1-2.9,4.4-3.7
			c1.3-0.8,2.6-1.2,3.7-1.2c0.8,0,1.4,0.2,1.7,0.6c0.4,0.4,0.5,1.1,0.5,2c0,1-0.2,2.2-0.5,3.7l-2.8,13.5c-0.1,0.7-0.2,1.3-0.2,1.9
			c0,1.4,0.5,2.1,1.4,2.1c0.6,0,1.3-0.3,2.2-0.8c0.9-0.5,1.9-1.3,2.8-2.2c0,0,0.1-0.1,0.2-0.1c0.2,0,0.3,0.1,0.4,0.2
			c0.1,0.2,0.1,0.3-0.1,0.4c-3.1,3.3-5.8,4.9-8,4.9C274.7,312.4,274.1,312.2,273.7,311.8z M277.8,277.5c-0.5-0.4-0.7-1.1-0.7-1.9
			c0-0.7,0.2-1.3,0.7-1.8c0.5-0.4,1.2-0.6,2.1-0.6s1.6,0.2,2.1,0.6s0.7,1,0.7,1.8s-0.2,1.5-0.7,1.9s-1.2,0.6-2.1,0.6
			C279,278.2,278.3,278,277.8,277.5z"/>
		
			<radialGradient id="SVGID_00000078765342926135212310000003109294394644623016_" cx="284.6634" cy="199.2183" r="48.4337" gradientTransform="matrix(1.1771 0 0 -1.0316 -52.1982 507.1688)" gradientUnits="userSpaceOnUse">
			<stop  offset="0" style="stop-color:#90D695"/>
			<stop  offset="1" style="stop-color:#437A55"/>
		</radialGradient>
		<path style="fill:url(#SVGID_00000078765342926135212310000003109294394644623016_);" d="M305.9,292.5c-1.6,1.2-3.7,2.3-6.3,3.2
			c-2.6,0.9-5.4,1.6-8.4,2c-0.2,1.1-0.4,2.3-0.4,3.6c0,2.8,0.7,5,2,6.6s3.2,2.4,5.7,2.4c2.8,0,5.2-0.7,7.3-2.1h0.1
			c0.1,0,0.3,0.1,0.4,0.2s0.1,0.3,0,0.4c-3.4,2.4-6.8,3.6-10.2,3.6c-2.9,0-5.2-0.9-6.7-2.6s-2.3-4-2.3-6.8c0-1,0.1-2.1,0.4-3.4
			c0.4-2.2,1.4-4.3,3-6.5s3.5-3.9,5.8-5.3s4.7-2.1,7.2-2.1c1.5,0,2.6,0.2,3.4,0.7s1.2,1.2,1.2,2C308.3,290,307.5,291.3,305.9,292.5z
			 M294.7,290.2c-1.5,1.7-2.6,4-3.2,6.7c3.5-0.5,6.4-1.3,8.6-2.3s3.6-2.3,4-3.8c0.1-0.2,0.1-0.5,0.1-0.9c0-0.8-0.4-1.3-1.1-1.7
			c-0.7-0.3-1.6-0.5-2.6-0.5C298.2,287.6,296.3,288.5,294.7,290.2z"/>
		
			<radialGradient id="SVGID_00000019671690716178486080000013304010118700684419_" cx="284.6634" cy="199.2183" r="48.4337" gradientTransform="matrix(1.1771 0 0 -1.0316 -52.1982 507.1688)" gradientUnits="userSpaceOnUse">
			<stop  offset="0" style="stop-color:#90D695"/>
			<stop  offset="1" style="stop-color:#437A55"/>
		</radialGradient>
		<path style="fill:url(#SVGID_00000019671690716178486080000013304010118700684419_);" d="M315.5,311.8c-0.4-0.4-0.6-1.1-0.6-2.2
			c0-1,0.2-2.2,0.5-3.6l2.9-13.5c0.1-0.7,0.2-1.3,0.2-1.8c0-0.7-0.1-1.2-0.4-1.6s-0.6-0.6-1-0.6c-0.6,0-1.3,0.3-2.2,0.8
			c-0.9,0.5-1.9,1.3-2.9,2.3c0,0-0.1,0.1-0.2,0.1s-0.3-0.1-0.4-0.2c-0.1-0.2-0.1-0.3,0-0.4c1.6-1.7,3.1-2.9,4.4-3.7
			c1.3-0.8,2.6-1.2,3.7-1.2c0.8,0,1.4,0.2,1.7,0.6c0.4,0.4,0.5,1.1,0.5,2c0,1-0.2,2.2-0.5,3.7l-2.8,13.5c-0.1,0.7-0.2,1.3-0.2,1.9
			c0,1.4,0.5,2.1,1.4,2.1c0.6,0,1.3-0.3,2.2-0.8c0.9-0.5,1.9-1.3,2.8-2.2c0,0,0.1-0.1,0.2-0.1c0.2,0,0.3,0.1,0.4,0.2
			c0.1,0.2,0.1,0.3-0.1,0.4c-3.1,3.3-5.8,4.9-8,4.9C316.4,312.4,315.9,312.2,315.5,311.8z M319.6,277.5c-0.5-0.4-0.7-1.1-0.7-1.9
			c0-0.7,0.2-1.3,0.7-1.8c0.5-0.4,1.2-0.6,2.1-0.6s1.6,0.2,2.1,0.6s0.7,1,0.7,1.8s-0.2,1.5-0.7,1.9s-1.2,0.6-2.1,0.6
			C320.8,278.2,320.1,278,319.6,277.5z"/>
		
			<radialGradient id="SVGID_00000034785382366745673500000017545045206438722230_" cx="284.6634" cy="199.2183" r="48.4337" gradientTransform="matrix(1.1771 0 0 -1.0316 -52.1982 507.1688)" gradientUnits="userSpaceOnUse">
			<stop  offset="0" style="stop-color:#90D695"/>
			<stop  offset="1" style="stop-color:#437A55"/>
		</radialGradient>
		<path style="fill:url(#SVGID_00000034785382366745673500000017545045206438722230_);" d="M356.3,306.7c0.1,0,0.3,0.1,0.4,0.2
			c0.1,0.2,0.1,0.3,0,0.4c-1.7,1.7-3.1,3-4.4,3.8s-2.5,1.2-3.6,1.2c-0.8,0-1.3-0.2-1.6-0.6c-0.3-0.4-0.5-1.1-0.5-2s0.1-2.1,0.4-3.7
			l1.4-7.2c-2.2,4.2-4.8,7.5-7.6,10c-2.8,2.5-5.5,3.8-8,3.8c-2.8,0-4.3-1.6-4.3-4.8c0-0.3,0-1,0.1-2c0.5-3.1,1.7-6.2,3.7-9.3
			c2-3.1,4.4-5.7,7.1-7.7s5.3-3,7.7-3c0.9,0,1.8,0.2,2.6,0.5c0.8,0.3,1.5,0.8,2,1.4c0.9-0.7,1.4-1.5,1.6-2.3c0-0.1,0.2-0.2,0.5-0.1
			c0.3,0,0.4,0.1,0.4,0.2l-4.1,20.6c-0.1,0.7-0.2,1.3-0.2,1.8c0,1.4,0.5,2.1,1.4,2.1C352.4,310,354.1,308.9,356.3,306.7
			C356.1,306.7,356.2,306.7,356.3,306.7z M340.5,307.4c2-1.6,3.9-3.8,5.5-6.3c1.6-2.6,2.7-5.1,3.3-7.6c0.1-0.3,0.1-0.8,0.1-1.4
			c0-1.2-0.4-2.2-1.1-2.9c-0.8-0.7-1.9-1.1-3.3-1.1c-1.8,0-3.6,0.7-5.4,2.1c-1.9,1.4-3.5,3.3-4.9,5.7c-1.4,2.4-2.3,5-2.8,7.9
			c-0.1,0.9-0.2,1.7-0.2,2.5c0,2.6,1,3.8,3.1,3.8C336.5,309.8,338.4,309,340.5,307.4z"/>
	</g>
</g>
</svg>
