<svg xmlns="http://www.w3.org/2000/svg" xmlns:xlink="http://www.w3.org/1999/xlink" width="80" height="80" viewBox="0 0 80 80">
  <defs>
    <clipPath id="clip-path">
      <circle id="Ellipse_16" data-name="Ellipse 16" cx="40" cy="40" r="40" transform="translate(4206 5641)"/>
    </clipPath>
  </defs>
  <g id="Mask_Group_7" data-name="Mask Group 7" transform="translate(-4206 -5641)" clip-path="url(#clip-path)">
    <path id="instagram-square-brands" d="M40,36.189a9.525,9.525,0,1,0,9.529,9.526A9.525,9.525,0,0,0,40,36.189Zm22.27-7.321a9.643,9.643,0,0,0-5.43-5.43c-3.75-1.48-12.679-1.148-16.839-1.148s-13.08-.345-16.841,1.148a9.643,9.643,0,0,0-5.43,5.43c-1.479,3.75-1.148,12.687-1.148,16.845S16.25,58.8,17.736,62.559a9.643,9.643,0,0,0,5.43,5.43c3.75,1.48,12.679,1.148,16.841,1.148s13.079.345,16.839-1.148a9.643,9.643,0,0,0,5.43-5.43c1.491-3.75,1.148-12.687,1.148-16.845s.343-13.082-1.148-16.845ZM40,60.357a14.625,14.625,0,1,1,10.359-4.284A14.643,14.643,0,0,1,40,60.357ZM55.246,33.875a1.417,1.417,0,1,1,.007.007ZM71.429,5.714H8.571A8.571,8.571,0,0,0,0,14.286V77.143a8.571,8.571,0,0,0,8.571,8.571H71.429A8.571,8.571,0,0,0,80,77.143V14.286a8.571,8.571,0,0,0-8.571-8.571ZM68.371,57.5c-.23,4.577-1.275,8.632-4.616,11.964s-7.393,4.4-11.964,4.616c-4.716.266-18.855.266-23.571,0-4.577-.23-8.618-1.277-11.964-4.616s-4.4-7.4-4.616-11.964c-.266-4.718-.266-18.859,0-23.571.23-4.577,1.262-8.632,4.616-11.964s7.405-4.386,11.964-4.6c4.716-.266,18.855-.266,23.571,0,4.577.23,8.63,1.277,11.964,4.616s4.4,7.4,4.616,11.973C68.637,38.65,68.637,52.779,68.371,57.5Z" transform="translate(4206 5635.286)"/>
  </g>
</svg>
