<svg xmlns="http://www.w3.org/2000/svg" xmlns:xlink="http://www.w3.org/1999/xlink" width="60" height="60" viewBox="0 0 60 60">
  <defs>
    <clipPath id="clip-path">
      <circle id="Ellipse_5" data-name="Ellipse 5" cx="30" cy="30" r="30" transform="translate(1658 6089.338)" fill="#74ca98"/>
    </clipPath>
  </defs>
  <g id="Mask_Group_5" data-name="Mask Group 5" transform="translate(-1658 -6089.338)" clip-path="url(#clip-path)">
    <path id="instagram-square-brands" d="M30,31.66a7.172,7.172,0,1,0,7.146,7.173A7.158,7.158,0,0,0,30,31.66Zm16.7-5.513a7.246,7.246,0,0,0-4.073-4.089c-2.812-1.115-9.509-.865-12.629-.865s-9.81-.259-12.631.865A7.246,7.246,0,0,0,13.3,26.148c-1.109,2.824-.861,9.553-.861,12.683s-.248,9.852.867,12.684A7.246,7.246,0,0,0,17.375,55.6c2.813,1.115,9.509.865,12.631.865s9.809.26,12.629-.865a7.246,7.246,0,0,0,4.073-4.089c1.118-2.824.861-9.553.861-12.683s.257-9.85-.861-12.683ZM30,49.857a10.99,10.99,0,1,1,7.769-3.225A11,11,0,0,1,30,49.857Zm11.435-19.94a1.062,1.062,0,1,1,.005.005Zm12.137-21.2H6.429A6.441,6.441,0,0,0,0,15.168V62.5A6.441,6.441,0,0,0,6.429,68.95H53.571A6.441,6.441,0,0,0,60,62.5V15.168A6.441,6.441,0,0,0,53.571,8.714ZM51.279,47.706c-.173,3.446-.956,6.5-3.462,9.008s-5.545,3.312-8.973,3.476c-3.537.2-14.142.2-17.679,0-3.433-.173-6.463-.961-8.973-3.476s-3.3-5.569-3.462-9.008c-.2-3.552-.2-14.2,0-17.748.173-3.446.947-6.5,3.462-9.008s5.554-3.3,8.973-3.466c3.537-.2,14.142-.2,17.679,0,3.433.173,6.473.961,8.973,3.476s3.3,5.569,3.462,9.015C51.478,33.513,51.478,44.151,51.279,47.706Z" transform="translate(1658 6080.388)" fill="#74ca98"/>
  </g>
</svg>
