<svg xmlns="http://www.w3.org/2000/svg" width="142" height="142" viewBox="0 0 142 142">
  <g id="Group_172" data-name="Group 172" transform="translate(-39 -259)">
    <g id="man" transform="translate(39 259)" fill="#fff" stroke="#dbc197" stroke-width="4">
      <circle cx="71" cy="71" r="71" stroke="none"/>
      <circle cx="71" cy="71" r="69" fill="none"/>
    </g>
    <g id="Tegnebræt_2" data-name="Tegnebræt 2" transform="translate(41.97 278.146)">
      <ellipse id="Ellipse_7" data-name="Ellipse 7" cx="12.273" cy="8.869" rx="12.273" ry="8.869" transform="translate(40.573 15.343)" fill="#1d1d1b"/>
      <ellipse id="Ellipse_8" data-name="Ellipse 8" cx="6.701" cy="6.871" rx="6.701" ry="6.871" transform="translate(31.65 26.207)" fill="#1d1d1b"/>
      <ellipse id="Ellipse_9" data-name="Ellipse 9" cx="36.232" cy="37.945" rx="36.232" ry="37.945" transform="translate(31.946 11.32)" fill="#1d1d1b"/>
      <rect id="Rectangle_201" data-name="Rectangle 201" width="59.967" height="72.576" rx="29.983" transform="translate(38.351 24.212)" fill="#ffc58c"/>
      <ellipse id="Ellipse_10" data-name="Ellipse 10" cx="8.818" cy="9.042" rx="8.818" ry="9.042" transform="translate(86.775 27.124)" fill="#1d1d1b"/>
      <ellipse id="Ellipse_11" data-name="Ellipse 11" cx="15.416" cy="15.804" rx="15.416" ry="15.804" transform="translate(69.754 11.32)" fill="#1d1d1b"/>
      <ellipse id="Ellipse_12" data-name="Ellipse 12" cx="13.707" cy="15.77" rx="13.707" ry="15.77" transform="translate(54.644 6.92)" fill="#1d1d1b"/>
      <ellipse id="Ellipse_13" data-name="Ellipse 13" cx="15.416" cy="15.804" rx="15.416" ry="15.804" transform="translate(66.642 15.343)" fill="#1d1d1b"/>
      <ellipse id="Ellipse_14" data-name="Ellipse 14" cx="8.818" cy="9.042" rx="8.818" ry="9.042" transform="translate(44.426 17.165)" fill="#1d1d1b"/>
    </g>
  </g>
</svg>
