<?xml version="1.0" encoding="UTF-8"?><svg xmlns="http://www.w3.org/2000/svg" viewBox="0 0 87.56 85.55"><defs><style>.d{fill:#e8d5b9;}.e{fill:#7cc295;}.f{fill:#64ad92;}.g{fill:#7bc195;}.h{fill:#b4d9bb;}.i{fill:#8dc9a0;}.j{fill:#cee5ce;}.k{fill:#d1e7d0;}.l{fill:#dbc198;}.m{fill:#94cba5;}.n{fill:#61aa8f;}.o{fill:#74bf9d;}.p{fill:#519a80;}.q{fill:#4f987d;}.r{fill:#79c196;}.s{fill:#50997e;}</style></defs><g id="a"/><g id="b"><g id="c"><path class="l" d="M84.89,62.29c-1.98-.86-4.05-1.64-5.86-2.84-3.88-2.5-8.01-4.48-12.49-5.77-6.03-1.81-12.23-2.84-18.61-2.33-3.88,.34-7.49,1.21-10.85,3.02-.3,.15-.62,.3-1.04,.45-.05,.05-.1,.09-.16,.14-.53,.49-1.09,1.03-1.74,1.37-.14,.16-.3,.3-.51,.44-1.38,.95-2.58,1.98-3.88,2.93-.26,.17-.6,.26-.86,.43-.09,.17-.17,.26-.17,.34l-.09-.09c.09-.09,.09-.26,.26-.26,.34-1.38,.86-2.67,1.38-4.05,1.46-3.88,2.58-7.84,3.27-12.15v.05c.07-.49,.18-.98,.26-1.47,.09-.53,.17-1.05,.25-1.58,.02-.14,.04-.28,.06-.43,0-.04,0-.04,0-.06,0-.02,0-.02,0-.07,.03-.29,.07-.57,.09-.86,.04-.41,.05-.82,.06-1.23-.12-2.1-.15-4.25-.22-6.33-.17-5.17-1.46-10.08-4.22-14.56-.17-.26-.34-.52-.43-.86-.03-.08-.05-.16-.08-.24-.86-.87-1.54-1.88-2.12-2.95-.13-.17-.25-.35-.37-.52-.06-.08-.12-.15-.17-.23,.05,.16,.11,.32,.15,.49-.86-1.12-1.64-2.33-2.58-3.45-2.33-2.84-4.74-5.6-7.06-8.36-.17-.17-.34-.43-.52-.52-.4-.21-.67-.48-.91-.78-.52,.49-1.05,.96-1.64,1.37-.76,1.49-1.49,2.99-2.28,4.41-.34,.52-.78,1.03-1.21,1.55C5.38,14.13,2.28,21.89,.73,30.24c-1.03,5.77-1.21,11.63,1.03,17.23,.86,2.24,2.07,4.31,3.36,6.37,2.84,4.48,6.03,8.79,9.82,12.49,.06,.05,.08,.12,.13,.17,.08,.06,.16,.11,.21,.17,.02,.02,.03,.03,.05,.05,.08,.09,.11,.17,.16,.25,.14,.16,.3,.3,.44,.46,.11,.13,.21,.26,.31,.4,.04,.05,.07,.1,.1,.15,0,0,0,.02,.01,.03,.06,.05,.13,.08,.17,.14,.9,.73,1.73,1.32,2.72,2.06-1.4,2.13-2.78,4.19-4.1,6.24-.01,.02,0,.06-.02,.08-.04,.07-.09,.12-.14,.17-.01,.02-.03,.04-.04,.06h0s-.03,.04-.05,.06c-.09,.13-.16,.27-.25,.4-.09,.14-.19,.27-.28,.4-.24,.32-.49,.64-.78,.91-.48,.45-1.05,.77-1.67,1-.53,.45-.86,.99-.66,1.8,.32,.16,.72,.33,1.18,.55,.4-.03,.79-.06,1.21-.06,.41-.54,.95-.93,1.66-1.18,2.58-.95,5.25-.95,7.84-.26,3.2,.9,6.33,1.96,9.53,2.95,.71,.08,1.37,.21,2.02,.38,.15-.02,.28-.02,.43,.03,3.36,.78,6.81,1.38,10.25,1.55,2.33,.09,4.74,.26,7.06-.09h.34c3.88-.09,7.58-.95,11.28-2.15,3.19-.95,5.77-3.1,8.44-4.91,3.1-2.15,5.94-4.74,8.61-7.41,1.21-1.21,2.5-2.24,3.62-3.45,1.03-1.03,1.9-2.15,2.84-3.27-.69-1.12-1.72-1.38-2.67-1.72Zm-21.97-6.89c1.21,.09,2.41,.26,3.45,.86,.78,.17,1.64,.26,2.33,.6,1.21,.52,2.41,.95,3.62,1.98-.52,.34-.86,.6-1.29,.78-3.7,1.81-6.81,4.31-9.22,7.75-.69,.86-1.55,1.38-2.58,1.55-1.21,.17-2.41,.26-3.62,.34-1.03,.09-2.07,.17-3.1,.26-2.24,.09-4.48,.26-7.06,.6,.26-.6,.34-.86,.52-1.12,.78-1.64,1.64-3.19,2.41-4.82,2.41-4.74,6.2-7.67,11.37-8.87,1.03-.26,2.15-.43,3.19,.09Zm-20.76-.43c.6-.26,1.12-.69,1.72-.69,1.55-.52,3.02-.95,4.65-.78h.6l5.43,.26c1.03,.09,2.15,.09,3.53,.69-.86,.43-1.55,.86-2.15,1.21-2.93,1.64-5.51,3.62-7.32,6.55-.78,1.29-1.46,2.67-1.98,4.05-.69,1.72-1.72,2.84-3.45,3.36-.86,.26-1.64,.43-2.5,.52-1.46,.17-3.02,.26-4.48,.43-.78,.09-1.12-.17-1.12-1.03,0-.95,.17-1.9,.26-2.84,.34-2.93,.78-5.69,2.67-8.1,1.21-1.46,2.41-2.76,4.13-3.62Zm-9.99-16.71c-.17,.78-.34,1.64-.52,2.5-.34,2.07-.6,4.13-1.03,6.2-.17,.95-.34,1.98-.52,2.93-.43,2.41-2.15,3.88-3.88,5.34-.78,.69-1.55,1.38-2.24,2.15-.17,.26-.26,.69-.34,1.03,.78-.6,1.55-1.29,2.33-1.81,.43-.34,1.12-.52,1.64-.78l.09-.09v.09c0,.09-.09,.09-.09,.09-.52,1.21-.95,2.33-1.46,3.53-.52,1.21-1.12,2.5-1.46,3.79-.26,1.38-1.21,2.07-2.15,3.01-.78-1.46-.78-2.93-.43-4.31,.17-.78,.69-1.64,1.03-2.41,.17-.34,.34-.69,.52-1.03-.34,.26-.78,.52-1.12,.86-.34,.52-.69,1.12-1.03,1.64-.69-.43-.6-1.03-.69-1.64-.6-1.81-1.12-3.7-.52-5.69-.09-2.67,1.21-4.65,2.84-6.46,1.55-1.81,3.27-3.45,4.91-5.25,.86-.95,1.72-2.07,2.58-3.02,.34-.34,.86-.6,1.29-.95,.09,.09,.26,.17,.26,.26Zm-5.34-21.1c.95,1.38,1.98,2.67,2.33,4.31,.17,.43,.34,.78,.52,1.21,.52,1.72,1.12,3.45,1.64,5.17,.17,.52,.17,1.12,.26,1.64,.17,1.03,.43,2.15,.34,3.19-.09,2.15-.95,4.13-2.5,5.69-1.55,1.55-3.19,3.1-4.74,4.65-1.64,1.55-3.1,3.36-4.05,5.43-.17,.43-.52,.69-.86,1.21-.17-.34-.34-.52-.34-.69v-6.55c.26-4.48,2.07-8.27,5.25-11.37,1.03-.95,1.98-1.9,2.93-2.93,.52-.52,.95-1.12,1.55-1.9-1.12,0-1.46,.95-2.07,1.21-1.46,1.46-2.84,3.01-4.31,4.48-.95,1.38-1.9,2.76-2.84,4.31-.26-.69-.09-1.29-.17-1.81-.09-.6-.09-1.21-.17-1.81,0-1.38,.09-2.84,.09-4.22-.09-1.38,.26-2.58,1.03-3.62,1.9-2.41,3.79-4.82,5.69-7.24,.09-.17,.17-.17,.43-.34ZM18.05,5c1.03,1.29,2.15,2.5,3.1,3.88,1.03,1.38,2.07,2.76,3.1,4.22,.34,.52,.6,1.12,.86,1.64s.26,.95-.09,1.46c-1.64,2.33-3.36,4.57-5,6.89,0,0-.17,0-.34,.09,0,0-.17-.17-.17-.26-.69-5.94-1.29-11.8-1.9-17.75,.17-.09,.26-.09,.43-.17Zm-6.98,5.51c1.12-1.9,2.33-3.79,3.53-5.69,.17-.43,.52-.78,.86-1.12,.69,.43,.95,1.03,1.03,1.72,.26,1.81,.43,3.7,.6,5.6,.26,3.19,.52,6.29,.78,9.48,.09,1.12,0,2.15,0,3.62-.6-.26-.95-.34-1.21-.52-3.02-2.5-5-5.69-6.12-9.39-.43-1.38-.17-2.58,.52-3.7Zm-6.72,14.3c.09-.6,.34-1.12,.52-1.72,0-.34,.09-.78,.09-1.12,.09-.17,.17-.26,.34-.17,.34-.78,.6-1.55,.86-2.33,.43-1.9,1.64-3.36,2.76-5.17,.26,.43,.52,.69,.6,.95,1.55,4.05,3.79,7.58,7.24,10.34,.95,.69,1.38,1.64,1.38,2.84v6.55c0,1.98-.09,3.96-.09,5.94,0,.17-.17,.43-.26,.6h-.34c-2.33-1.46-4.74-2.84-6.98-4.39-2.41-1.64-3.88-4.05-5-6.63-.78-1.81-1.29-3.7-1.12-5.69Zm-1.46,19.38c-.86-1.46-1.12-3.1-1.03-4.74v-2.41c.17-1.9,.43-3.79,.6-5.69,.17-.95,.43-1.98,.69-3.1,.86,.43,.95,1.21,1.21,1.81,1.12,2.33,2.5,4.48,4.22,6.37,1.46,1.64,3.36,3.01,5.43,3.79,2.41,.95,3.53,2.76,3.7,5.08,.17,2.07,.09,4.22,.09,6.29,0,.17-.09,.26-.17,.43-.86,.52-1.72,.09-2.5-.09-2.24-.52-4.48-.78-6.55-1.9-2.33-1.29-4.13-3.02-5.43-5.34l-.26-.52Zm15.16,23.69c-1.81-1.81-3.53-3.62-5.25-5.51-.17-.09-.17-.43-.26-.6-.09-.09-.26-.17-.34-.26-.86-1.03-1.64-2.15-2.5-3.19l-.26-.52c-.26-.26-.43-.6-.6-.86-.26-.43-.6-.95-.86-1.38-.09-.09-.17-.17-.26-.26-.09-.26-.17-.43-.34-.95-.17-.26-.34-.6-.52-.86l-.26-.26c-1.03-1.46-1.72-3.01-2.33-4.65,.09-.09,.17-.09,.26-.17,.34,.17,.6,.34,.86,.6,2.07,1.9,4.48,2.93,7.24,3.36,1.12,.17,2.33,.52,3.45,.78,1.38,.26,1.98,1.03,1.98,2.41,.26,1.29,.6,2.67,.86,3.96,.26,.78,.6,1.46,.78,2.15,.17,.78-.09,1.21-.86,1.38-.69,.17-1.29,.17-1.98,.26-.52,.09-.95,.26-1.46,.34,.69,.09,1.46,.34,2.15,.26,2.24-.17,3.01,.95,3.53,2.5,.26,.69,.26,1.21-.34,1.72-.26,.34-.52,.69-.78,1.12-.78-.52-1.38-.86-1.9-1.38Zm0,8.27c-.43,.17-.86,.26-1.29-.26,.09-.17,.17-.52,.34-.69,1.46-1.9,2.84-3.79,4.31-5.51,1.12-1.38,2.5-2.67,3.79-3.96l.52-.52c.09-.09,.17-.17,.34-.43,1.46-1.29,2.76-2.84,4.57-3.7,.09-.09,.17-.17,.26-.26,.17-.09,.43-.17,.6-.26,.43-.34,.95-.78,1.38-1.12,1.38-.95,2.76-1.9,4.31-2.58,.09,.09,.17,.17,.26,.26-.26,.34-.43,.78-.69,1.12-1.55,2.07-2.33,4.39-2.5,7.06,0,1.29-.26,2.58-.52,3.88-.26,1.03-.86,1.64-1.98,1.64-1.38,.52-2.67,.95-4.05,1.38-.69,.26-1.29,.43-1.9,.69-1.12,.43-1.64,.09-1.81-1.12-.17-.86-.43-1.81-.6-2.67-.52,.6-.43,1.29-.17,1.9,.6,1.55-.6,3.19-1.81,3.7-1.12,.52-2.24,1.03-3.36,1.46Zm13.61,4.39c-3.36-1.46-6.98-2.41-10.6-3.02-.34-.09-.6-.26-.95-.34,4.39-3.36,9.65-1.29,12.06,3.27-.17,.09-.34,.17-.52,.09Zm16.71,2.93c-.09,0-.26,0-.43,.09-1.98-.17-4.05-.34-6.03-.52-1.03-.17-2.07-.34-3.1-.34-1.98,0-3.53-.95-4.91-2.24-1.55-1.38-3.02-2.84-4.65-4.13-.78-.6-1.64-1.03-2.67-1.64,.69-.34,1.21-.6,1.72-.86,1.9-.43,3.7-1.03,5.69-.86,2.15,0,4.05,.86,5.77,1.98,1.55,1.03,2.93,2.15,4.39,3.27,1.81,1.38,3.62,2.76,5.43,4.22,.34,.26,.6,.69,.86,1.03-.69,.52-1.38,.43-2.07,0Zm18.61-4.05c-.43,.26-.78,.43-1.21,.6-2.15,.95-4.13,2.15-6.55,2.24-3.96,1.55-7.41,.6-10.42-2.24-1.98-1.81-3.88-3.79-6.2-5.17-1.21-.78-2.5-1.29-3.79-1.98-.26-.09-.52-.34-.78-.52,1.21-.69,3.36-.95,6.89-.86,4.39-.26,8.18,1.12,11.54,3.96,1.46,1.29,3.02,2.5,4.48,3.7,.26,.26,.69,.43,1.03,.6,.09-.09,.09-.17,.17-.26-.52-.52-1.12-1.12-1.64-1.72-1.64-1.29-3.19-2.67-4.82-3.96-1.38-.78-2.67-1.55-4.05-2.33v-.26c1.12-.17,2.33-.34,3.45-.52,1.38-.09,2.84-.17,4.39-.43h.86c.26,.09,.43,.09,.6,.17,.95,.34,1.98,.52,2.76,1.03,2.41,1.46,4.65,3.02,6.98,4.57,.17,.17,.26,.26,.6,.43-1.38,1.29-2.76,2.33-4.31,2.93Zm14.13-11.2c-2.24,2.07-4.57,4.13-6.89,6.12-1.03,.86-2.07,1.12-3.27,.34-2.24-1.46-4.57-2.76-6.81-4.13,.09-.09,.09-.26,.09-.43,5.94-1.21,11.89-2.24,17.92-3.19-.34,.43-.6,.95-1.03,1.29Zm.09-2.5c-4.39,.78-8.79,1.55-13.18,2.24-1.46,.26-3.02,.26-4.91,.43,.26-.69,.43-1.12,.69-1.46,2.15-3.02,5.08-5,8.36-6.46,1.46-.69,2.93-.52,4.39,.26,1.64,.95,3.36,1.81,5,2.67,.6,.34,1.21,.78,1.81,1.12-.6,.95-1.38,1.12-2.15,1.21Z"/><path class="d" d="M52.42,85.55h.34c-.09-.09-.17,0-.34,0Z"/><path class="r" d="M48.46,53.33h.6c1.46,.86,3.45,.95,5.43,.26,1.12,.09,2.24,.17,3.53,.69-.86,.52-1.46,.86-2.15,1.21-2.93,1.64-5.51,3.7-7.32,6.55-.78,1.29-1.46,2.67-1.98,4.05-.6,1.72-1.72,2.76-3.45,3.36-.78,.26-1.64,.43-2.5,.52-1.46,.17-3.01,.34-4.48,.43-.86,.09-1.21-.17-1.12-1.03,0-.95,.17-1.9,.26-2.84,.34-2.84,.86-5.69,2.67-8.1,1.12-1.46,2.41-2.76,4.13-3.62,1.9-.43,3.7-.86,5.6-1.29,.34,.17,.6,0,.78-.17Z"/><path class="r" d="M2.37,31.36c.26-1.03,.43-1.98,.69-3.1,.86,.52,.95,1.21,1.21,1.81,1.03,2.33,2.41,4.48,4.22,6.37,1.55,1.64,3.36,3.01,5.43,3.79,2.41,.95,3.53,2.67,3.7,5.08,.17,2.07,.09,4.13,.09,6.29,0,.17-.09,.26-.17,.43-.86,.43-1.72,.09-2.5-.09-2.24-.52-4.48-.78-6.55-1.9-2.33-1.29-4.13-3.01-5.43-5.34l-.26-.52h0c-.09-.78-.17-1.55-.34-2.33-.26-1.38-.52-2.76-.86-4.22v-.6c1.29-1.81,1.29-3.7,.78-5.69Z"/><path class="p" d="M66.46,56.17c.78,.17,1.55,.34,2.33,.6,1.21,.52,2.41,.95,3.62,1.98-.52,.34-.95,.6-1.29,.78-3.7,1.81-6.81,4.39-9.22,7.75-.6,.95-1.55,1.46-2.58,1.55-1.21,.17-2.41,.26-3.62,.34-.17-.78-.6-1.55-.52-2.33,.17-1.98,.43-4.05,2.33-5.34,.34-.26,.6-.69,.95-.86,.78-.52,1.46-1.03,2.33-1.38,1.46-.69,3.1-1.21,4.57-1.9,.52-.17,1.03-.52,1.12-1.21Z"/><path class="p" d="M5.99,19.3c.52-1.9,1.72-3.45,2.76-5.17,.26,.43,.52,.69,.6,.95,1.55,4.05,3.79,7.58,7.24,10.34,.86,.69,1.38,1.64,1.38,2.84v3.45c-.52,.09-1.12,.26-1.64,.34-.26,.09-.6,.09-.78,.09-.69-.17-1.38-.52-2.15-.69-1.12-.17-1.81-.86-2.5-1.64-1.9-2.07-2.67-4.74-3.45-7.32-.26-.78-.69-1.55-1.03-2.24-.17-.34-.26-.6-.43-.95Z"/><path class="q" d="M17.87,24.13c-.6-.26-.95-.34-1.21-.6-3.01-2.5-5-5.69-6.12-9.39-.43-1.29-.09-2.58,.52-3.7,1.12-1.9,2.33-3.79,3.53-5.69,.26-.43,.6-.69,.86-1.12,.69,.43,.95,1.03,1.03,1.72,.17,1.9,.43,3.79,.6,5.6,.26,3.19,.52,6.29,.78,9.48,.09,1.21,0,2.33,0,3.7Z"/><path class="q" d="M83.34,64.53c-.52,.95-1.38,1.12-2.15,1.29-4.39,.78-8.79,1.55-13.18,2.24-1.55,.26-3.1,.26-4.91,.43,.34-.69,.52-1.12,.69-1.46,2.07-3.01,5-5,8.36-6.46,1.46-.69,2.93-.52,4.39,.26,1.64,.86,3.36,1.72,5,2.67,.6,.26,1.21,.6,1.81,1.03Z"/><path class="o" d="M19.51,42.48c.17-4.48,1.98-8.27,5.25-11.37,.95-.95,1.98-1.9,2.93-2.93,.52-.52,.95-1.12,1.55-1.9-1.12,0-1.38,.86-2.07,1.21-.09-.78-.26-1.64-.43-2.76,.17-.69,.78-1.38,1.9-1.55,.43-.09,.78-.34,1.12-.6,.52,1.72,1.12,3.45,1.64,5.17,.17,.52,.17,1.12,.26,1.64-.26,.52-.52,.78-1.03,1.03-1.21,.6-2.07,1.64-2.58,2.84-.43,1.21-.69,2.5-1.03,3.79-.34,1.21-1.12,1.9-2.41,1.98-.6,0-1.03,.26-1.38,.78-.43,.69-.95,1.38-1.38,2.15-.34,.69-.86,.86-1.55,.69-.26,0-.52-.09-.78-.17Z"/><path class="o" d="M65.6,80.12c-2.15,.95-4.13,2.15-6.55,2.24-.86,.09-1.12-.6-1.46-1.12-.69-1.12-1.81-1.98-3.01-2.15-1.38-.17-2.67-.69-4.13-.78-.86-.09-1.55-.69-1.64-1.55-.09-1.21-.69-1.9-1.72-2.33-.43-.17-.86-.52-1.38-.69-.69-.26-.95-.69-.95-1.38v-.86c4.39-.34,8.27,1.12,11.54,3.96,1.46,1.29,2.93,2.5,4.48,3.7,.34,.26,.69,.43,1.03,.6,.09-.09,.09-.17,.17-.26-.52-.6-1.12-1.21-1.64-1.72,.69-.09,1.29-.09,1.98-.26,1.21-.34,1.81-.09,2.33,1.03,.34,.52,.69,1.03,.95,1.55Z"/><path class="q" d="M64.22,70.13c5.86-1.21,11.8-2.24,17.92-3.1-.34,.43-.6,.95-1.03,1.29-2.33,2.07-4.57,4.05-6.89,6.12-.95,.86-1.98,1.12-3.27,.34-2.24-1.38-4.48-2.76-6.81-4.13,.09-.26,.09-.43,.09-.52Z"/><path class="q" d="M18.05,5c1.03,1.29,2.07,2.5,3.1,3.88s2.07,2.84,3.1,4.22c.34,.52,.6,1.03,.86,1.64,.26,.52,.26,1.03-.09,1.46-1.64,2.33-3.36,4.65-5,6.89-.09,.09-.17,.09-.34,.09-.09-.09-.17-.17-.17-.26-.6-5.94-1.21-11.8-1.9-17.75,.17-.09,.34-.17,.43-.17Z"/><path class="g" d="M44.75,71.51v.86c0,.69,.26,1.12,.95,1.38,.52,.17,.86,.52,1.38,.69,1.03,.43,1.64,1.12,1.72,2.33,.09,.78,.78,1.46,1.64,1.55,1.38,.09,2.67,.6,4.13,.78,1.21,.17,2.33,1.03,3.01,2.15,.34,.52,.6,1.21,1.46,1.12-3.96,1.55-7.41,.6-10.42-2.24-1.98-1.81-3.88-3.79-6.2-5.17-1.21-.78-2.5-1.29-3.79-1.98l-.78-.52c1.21-.78,3.45-1.03,6.89-.95Z"/><path class="o" d="M18.05,34.81c0,1.98,0,3.96-.09,5.94,0,.26-.17,.43-.26,.6-.17,0-.26,.09-.34,0-2.33-1.46-4.65-2.84-6.98-4.39-2.41-1.64-3.79-4.05-5-6.63-.78-1.81-1.29-3.7-1.12-5.69,.09-.6,.34-1.12,.52-1.72,.09,.34,.26,.69,.34,1.03,.09,.43,.09,.86,.26,1.21,.52,1.12,1.03,2.24,1.55,3.36,.52,1.21,1.21,2.24,2.15,3.1,.52,.43,.86,1.03,1.29,1.46,.95,1.03,1.9,2.07,3.45,1.72,.69-.17,1.29-.52,1.9-.86,.52-.26,.86-.34,1.21,.09,.34,.52,.78,.6,1.12,.78Z"/><path class="o" d="M52.5,69.52c-2.24,.17-4.39,.26-6.89,.43,.26-.52,.34-.86,.52-1.12,.78-1.64,1.64-3.19,2.41-4.82,2.41-4.74,6.2-7.67,11.37-8.87,1.03-.26,2.15-.34,3.19,.09-.17,.17-.34,.52-.52,.52-.95-.09-1.72,.43-2.5,.86-1.21,.69-2.58,1.21-3.7,2.15-1.38,1.21-2.67,2.67-3.79,4.13-.95,1.21-.86,2.5,.09,3.7,.26,.34,.52,.78,.6,.95-.34,.86-.6,1.38-.78,1.98Z"/><path class="g" d="M19.51,42.48l.78,.26c.69,.09,1.21,0,1.55-.69,.34-.78,.86-1.46,1.38-2.15,.34-.52,.78-.78,1.38-.78,1.29,0,2.07-.69,2.41-1.98s.6-2.58,1.03-3.79c.43-1.29,1.38-2.24,2.58-2.84,.52-.26,.86-.52,1.03-1.03,.09,1.12,.34,2.15,.34,3.27-.09,2.15-.95,4.13-2.5,5.69s-3.19,3.1-4.74,4.65c-1.64,1.64-3.01,3.36-4.05,5.43-.17,.43-.52,.69-.86,1.21-.17-.34-.34-.52-.34-.69-.09-2.24,0-4.39,0-6.55Z"/><path class="f" d="M52.5,69.52c.26-.52,.43-1.12,.78-1.9-.09-.17-.34-.6-.6-.95-.95-1.29-1.03-2.5-.09-3.7,1.21-1.46,2.41-2.93,3.79-4.13,1.03-.95,2.41-1.38,3.7-2.15,.78-.43,1.55-.95,2.5-.86,.17,0,.34-.34,.52-.52,1.21,.09,2.33,.26,3.45,.86-.09,.69-.6,1.03-1.21,1.29-1.55,.6-3.1,1.21-4.57,1.9-.78,.34-1.55,.86-2.33,1.38-.34,.26-.6,.69-.95,.86-1.9,1.29-2.15,3.36-2.33,5.34-.09,.78,.34,1.55,.52,2.33-1.12,0-2.15,.17-3.19,.26Z"/><path class="f" d="M18.05,34.81c-.34-.17-.69-.26-.95-.43-.43-.43-.78-.43-1.21-.09-.6,.34-1.29,.69-1.9,.86-1.55,.34-2.5-.78-3.45-1.72-.43-.52-.78-1.03-1.29-1.46-.95-.86-1.64-1.9-2.15-3.1-.52-1.12-1.03-2.24-1.55-3.36-.17-.34-.17-.86-.26-1.21-.09-.34-.26-.69-.34-1.03,0-.34,.09-.78,.09-1.12,.09-.09,.17-.26,.17-.34,.26-.78,.52-1.55,.86-2.33,.17,.26,.26,.6,.43,.86,.34,.78,.78,1.46,1.03,2.24,.78,2.58,1.64,5.17,3.45,7.32,.69,.78,1.38,1.46,2.5,1.64,.69,.09,1.38,.43,2.15,.69,.26,.09,.52,0,.78-.09,.52-.09,1.12-.26,1.64-.34,0,.86,0,1.9,0,3.01Z"/><path class="h" d="M20.8,59.27c-.69-1.9-1.12-3.7-.52-5.69,1.55-.78,2.33-2.24,2.93-3.79,.69-1.64,1.64-3.36,2.67-4.74,1.21-1.55,2.67-2.93,4.91-2.93,0,.34,.09,.69-.09,.95-.86,1.64-1.72,3.36-2.67,5-.17,.26-.52,.52-.78,.52-.86,.09-1.12,.6-1.29,1.29-.34,1.55-1.21,2.67-2.15,3.96-.43,.6-.95,1.38-.95,2.15,0,1.64-.95,2.5-2.07,3.27Z"/><path class="h" d="M28.21,73.83c1.9-.52,3.7-1.03,5.69-.86,.6,1.46,1.81,2.15,3.19,2.5,2.24,.69,4.39,1.46,6.29,2.84,1.38,1.12,2.5,2.41,2.84,4.22-.52-.09-1.12,0-1.64-.17-.86-.26-1.64-.69-2.5-1.03-1.03-.52-2.07-.86-2.67-1.98-.34-.6-1.03-1.03-1.81-1.03s-1.38-.26-1.98-.69c-.69-.43-1.38-.86-2.07-1.21-.6-.26-1.21-.43-1.9-.52-.43-.09-.95,0-1.29-.26-.78-.52-1.38-1.21-2.15-1.81Z"/><path class="j" d="M28.21,73.83c.69,.6,1.38,1.29,2.15,1.81,.34,.26,.86,.17,1.29,.26,.6,.17,1.29,.26,1.9,.52,.69,.34,1.46,.69,2.07,1.21,.6,.43,1.21,.69,1.98,.69s1.46,.43,1.81,1.03c.6,1.12,1.64,1.46,2.67,1.98,.78,.34,1.64,.78,2.5,1.03,.52,.17,1.12,.17,1.64,.17,.26,.17,.6,.43,.86,.52,.26,.17,.6,.17,.86,.34-1.98-.17-4.05-.34-6.03-.52-1.03-.09-2.07-.34-3.1-.34-1.98,0-3.53-.95-4.91-2.24-1.55-1.38-3.1-2.76-4.65-4.13-.78-.6-1.64-1.03-2.67-1.64,.6-.17,1.12-.43,1.64-.69Z"/><path class="j" d="M20.8,59.27c1.12-.86,2.07-1.72,2.15-3.27,0-.69,.52-1.55,.95-2.15,.86-1.21,1.81-2.41,2.15-3.96,.17-.69,.52-1.21,1.29-1.29,.26,0,.6-.26,.78-.52,.95-1.64,1.81-3.27,2.67-5,.17-.26,.09-.69,.09-.95,.26-.43,.6-.95,.86-1.38-.34,2.07-.69,4.13-.95,6.29-.17,.95-.34,1.98-.52,2.93-.43,2.41-2.15,3.88-3.88,5.34-.78,.69-1.55,1.38-2.24,2.15-.26,.26-.26,.69-.34,1.03h0c-.34,.26-.86,.52-1.12,.86-.43,.52-.69,1.03-1.03,1.64-.86-.43-.78-1.12-.86-1.72Z"/><path class="s" d="M60.77,70.64c.95,.34,1.9,.52,2.76,1.03,2.33,1.46,4.65,3.01,6.98,4.57,.17,.09,.34,.17,.6,.43-1.38,1.29-2.76,2.24-4.31,2.93-1.12-1.29-2.07-2.67-3.36-3.79-.26-.26-.43-.69-.69-.86-.26-.26-.78-.52-1.03-.43-.86,.26-1.21-.34-1.46-.86-.43-1.03-.69-2.15-.95-3.19h.86c.17,.09,.43,.09,.6,.17Z"/><path class="s" d="M19.68,28.18c-.09-1.29,.26-2.58,1.03-3.62,1.81-2.5,3.79-4.82,5.69-7.24,.09-.09,.26-.17,.43-.34,1.03,1.29,1.98,2.58,2.33,4.31-1.29,.78-2.58,1.72-3.62,2.84-.17,.17-.43,.34-.69,.43-.69,.34-1.21,.78-1.12,1.64,.09,.6-.26,.86-.78,1.03-1.12,.34-2.24,.69-3.27,.95Z"/><path class="e" d="M6.59,53.59c-.95-1.46-1.72-3.01-2.33-4.65,.09-.09,.17-.09,.26-.17,.26,.17,.6,.43,.86,.6,2.07,1.9,4.48,2.93,7.24,3.36,1.21,.17,2.33,.52,3.45,.78,1.29,.26,1.98,1.03,1.98,2.41-.69,0-1.29,0-1.98-.09-.78-.09-1.46,.09-1.98,.78-.17,.26-.43,.52-.6,.69q-1.72-1.12-3.96-1.12h-.69c-.09-1.38-.6-1.98-1.98-2.24h0c-.09-.17-.17-.26-.26-.34Z"/><path class="e" d="M32.86,59.62c1.38-1.03,2.76-1.9,4.31-2.58l.26,.26c-.26,.34-.43,.78-.69,1.12-1.55,2.15-2.41,4.48-2.5,7.06-.09,1.29-.34,2.58-.52,3.88-.17,1.03-.78,1.72-1.98,1.64-.6-.6-.34-1.38-.34-1.98,0-.78-.17-1.38-.86-1.72-.6-.26-.69-.78-.26-1.29s.43-1.12,.34-1.81c-.17-1.03-.17-1.98,1.03-2.58,.69-.43,1.12-1.12,1.21-1.98Z"/><path class="n" d="M19.68,28.18c1.12-.34,2.15-.6,3.27-.95,.52-.17,.86-.43,.78-1.03-.09-.86,.43-1.29,1.12-1.64,.26-.09,.52-.26,.69-.43,1.03-1.21,2.33-2.07,3.62-2.84,.17,.43,.34,.78,.52,1.21-.34,.17-.69,.52-1.12,.6-1.12,.26-1.72,.86-1.9,1.55,.17,1.12,.26,1.98,.43,2.76-1.46,1.46-2.84,3.01-4.31,4.48-1.03,.34-2.24,0-3.27,.52,.09-1.38,.09-2.76,.17-4.22Z"/><path class="n" d="M59.31,70.47c.34,1.03,.6,2.15,.95,3.19,.17,.52,.6,1.03,1.46,.86,.26-.09,.78,.17,1.03,.43,.26,.26,.43,.69,.69,.86,1.29,1.12,2.24,2.5,3.36,3.79-.43,.17-.78,.34-1.21,.6-.26-.52-.6-1.03-.86-1.64-.52-1.12-1.21-1.38-2.33-1.03-.6,.17-1.29,.17-1.98,.26-1.64-1.29-3.19-2.67-4.82-3.96-.17-1.03-.34-2.07-.52-3.01,1.38-.17,2.84-.26,4.22-.34Z"/><path class="h" d="M27.7,72.37c-.6,.26-1.21,.43-1.9,.69-1.12,.43-1.72,0-1.81-1.12-.09-.95-.34-1.81-.6-2.67,.34-.69,.69-1.38,1.12-1.98,.26-.43,.69-.78,.6-1.38h0l.26-.26h0l.26-.26h0c.09-.09,.17-.17,.26-.34,1.46-1.29,2.76-2.76,4.57-3.7-.17,1.12-1.21,1.46-2.07,2.07,.43,.95,.86,1.9,.34,2.93-.34,.69-.52,1.55-.95,2.24-.6,1.21-1.21,2.41-.09,3.79Z"/><path class="h" d="M12.19,61.6c-.86-1.03-1.64-2.15-2.5-3.19,.34,0,.78,.09,.95-.09,.69-.52,1.29-.34,1.98-.26,1.38,.17,2.24,1.03,3.19,1.72,1.12,.69,1.98,.78,3.01,.09,.26,.69,.6,1.38,.78,2.15,.17,.78,0,1.12-.86,1.38-.6,.17-1.29,.17-1.98,.26-.52,.09-.95,.17-1.46,.26-.52-.34-1.03-.78-1.55-1.12-.43-.34-.86-.6-1.29-.86h0c0-.17-.09-.26-.26-.34Z"/><path class="m" d="M27.7,72.37c-1.12-1.38-.52-2.58,.17-3.88,.43-.69,.6-1.46,.95-2.24,.43-1.03,.09-1.98-.34-2.93,.86-.6,1.9-.95,2.07-2.07h0l.26-.26h0c.17-.09,.43-.17,.6-.26,.43-.34,.95-.78,1.38-1.12,0,.86-.52,1.64-1.21,1.98-1.21,.6-1.21,1.55-1.03,2.58,.09,.69,.17,1.29-.34,1.81-.43,.52-.26,.95,.26,1.29,.78,.34,.86,1.03,.86,1.72s-.26,1.46,.34,1.98c-1.29,.52-2.67,.95-3.96,1.38Z"/><path class="k" d="M25.11,65.82c.09,.6-.26,.95-.6,1.38-.43,.6-.78,1.38-1.12,1.98-.52,.6-.34,1.29-.17,1.9,.6,1.55-.6,3.19-1.81,3.7-1.12,.43-2.24,.95-3.36,1.46-.43,.17-.86,.34-1.29-.26,.09-.26,.17-.52,.34-.69,1.38-1.81,2.76-3.7,4.31-5.51,1.03-1.38,2.41-2.67,3.7-3.96Z"/><path class="k" d="M20.11,77.19c4.39-3.36,9.65-1.29,12.06,3.36-.17,0-.43,.09-.52,.09-3.36-1.55-6.98-2.41-10.6-3.01-.34-.17-.6-.34-.95-.43Z"/><path class="m" d="M18.91,59.79c-1.03,.69-1.9,.6-3.01-.09-1.03-.6-1.9-1.55-3.19-1.72-.69-.09-1.38-.26-1.98,.26-.26,.17-.6,.09-.95,.09l-.26-.52c.52-.69-.09-.78-.6-.86h0v-.86h.69q2.24,0,3.96,1.12c.17-.26,.43-.43,.6-.69,.52-.69,1.21-.86,1.98-.78,.69,.09,1.29,.09,1.98,.09,.17,1.38,.52,2.67,.78,3.96Z"/><path class="k" d="M23.65,58.41c.78-.6,1.55-1.29,2.33-1.81,.52-.34,1.12-.52,1.64-.78h0c-.52,1.21-1.03,2.33-1.46,3.53-.52,1.29-1.12,2.5-1.46,3.79-.34,1.29-1.21,2.07-2.15,3.01-.78-1.46-.78-2.93-.43-4.31,.17-.86,.69-1.64,1.03-2.41,.26-.34,.43-.69,.52-1.03,.09,0,0,0,0,0Z"/><path class="i" d="M47.94,83.48c-.26-.09-.6-.17-.86-.34-.34-.17-.6-.34-.86-.52-.26-1.81-1.38-3.19-2.84-4.22-1.9-1.46-4.05-2.24-6.29-2.84-1.38-.43-2.58-1.12-3.19-2.5,2.15,0,4.05,.78,5.77,1.98,1.55,1.03,2.93,2.15,4.39,3.27,1.81,1.38,3.62,2.84,5.43,4.22,.34,.26,.6,.69,.86,1.03h-2.07c0-.09-.17-.09-.34-.09Z"/><path class="i" d="M31.66,40.75c-.26,.43-.6,.95-.86,1.38-2.24,0-3.7,1.29-4.91,2.93-1.12,1.46-1.98,3.1-2.67,4.74-.69,1.55-1.38,2.93-2.93,3.79-.09-2.58,1.29-4.57,2.84-6.46,1.55-1.81,3.27-3.53,4.91-5.25,.86-.95,1.72-2.07,2.58-3.01,.34-.43,.86-.69,1.29-.95-.09,.95-.17,1.9-.26,2.84h0Z"/><path class="k" d="M12.53,61.86c.43,.26,.86,.6,1.29,.86,.52,.34,1.03,.78,1.55,1.12,.69,.09,1.46,.34,2.15,.26,2.24-.17,3.01,.95,3.53,2.5,.26,.69,.17,1.21-.34,1.72-.34,.26-.52,.69-.78,1.12-.78-.6-1.38-.95-1.9-1.38-1.81-1.81-3.53-3.7-5.25-5.51-.09-.26-.17-.52-.26-.69Z"/><path class="o" d="M19.51,32.48c1.03-.6,2.24-.26,3.27-.52-.95,1.38-1.9,2.67-2.93,4.13-.34-.6-.17-1.21-.17-1.81-.09-.6-.09-1.21-.17-1.81Z"/><path class="o" d="M55.09,70.73c.17,1.03,.34,2.07,.52,3.01-1.38-.78-2.67-1.55-4.05-2.33v-.26c1.21-.09,2.33-.26,3.53-.43Z"/><path class="h" d="M48.46,53.33c-.26,.17-.43,.34-.69,.43-1.9,.43-3.7,.86-5.6,1.29,.52-.34,1.03-.78,1.64-.95,1.55-.52,3.1-.95,4.65-.78Z"/><path class="m" d="M2.37,31.36c.52,1.98,.52,3.88-.6,5.69,.17-1.9,.43-3.79,.6-5.69Z"/><path class="h" d="M1.77,37.65c.26,1.38,.6,2.76,.86,4.22,.17,.78,.17,1.55,.34,2.33-.95-1.46-1.12-3.01-1.12-4.74-.09-.6-.09-1.21-.09-1.81Z"/><path class="h" d="M54.49,53.59c-1.98,.69-3.88,.6-5.43-.26,1.81,.09,3.62,.17,5.43,.26Z"/><path class="m" d="M6.85,53.85c1.38,.26,1.9,.86,1.98,2.24h0c-.26-.17-.6-.34-.86-.6h0l-.26-.26h0c-.09-.17-.26-.34-.34-.6-.17-.17-.34-.52-.52-.78Z"/><path class="j" d="M31.66,40.75c.09-.95,.17-1.9,.26-2.84l.26,.26c-.17,.86-.34,1.72-.52,2.58Z"/><path class="h" d="M8.05,55.57c.26,.17,.6,.34,.86,.6v.86c-.34-.52-.6-1.03-.86-1.46Z"/><path class="j" d="M48.37,83.48h2.07c-.69,.52-1.38,.43-2.07,0Z"/><path class="h" d="M8.92,56.95c.43,.09,1.03,.17,.6,.86-.26-.26-.43-.52-.6-.86Z"/><path class="h" d="M31.4,60.74c-.17,.09-.43,.17-.6,.26,.26-.09,.43-.17,.6-.26Z"/><path class="h" d="M7.37,54.71c.09,.17,.26,.34,.34,.6-.09-.26-.17-.43-.34-.6Z"/><path class="n" d="M60.77,70.64c-.17-.09-.34-.09-.6-.17,.17,.09,.43,.09,.6,.17Z"/><path class="h" d="M2.89,44.2l.26,.52-.26-.52Z"/><path class="o" d="M5.13,21.63c-.09,.09-.17,.26-.17,.34,.09-.17,.17-.26,.17-.34Z"/><path class="k" d="M25.37,65.56l-.26,.26,.26-.26Z"/><path class="k" d="M25.71,65.22l-.26,.26,.26-.26Z"/><path class="m" d="M6.59,53.59l.26,.26-.26-.26Z"/><path class="k" d="M25.97,64.96c-.09,.09-.17,.17-.26,.34,.09-.17,.17-.26,.26-.34Z"/><path class="k" d="M12.19,61.6c.09,.09,.26,.17,.34,.26-.09-.09-.17-.17-.34-.26Z"/><path class="h" d="M30.8,61l-.26,.26,.26-.26Z"/><path class="k" d="M27.7,55.83l.09-.09v.09h-.09Z"/><path class="h" d="M7.71,55.31l.26,.26-.26-.26Z"/></g></g></svg>