<svg xmlns="http://www.w3.org/2000/svg" width="142" height="142" viewBox="0 0 142 142">
  <g id="Group_171" data-name="Group 171" transform="translate(-247 -259)">
    <g id="man" transform="translate(247 259)" fill="#fff" stroke="#dbc197" stroke-width="4">
      <circle cx="71" cy="71" r="71" stroke="none"/>
      <circle cx="71" cy="71" r="69" fill="none"/>
    </g>
    <g id="Tegnebræt_1" data-name="Tegnebræt 1" transform="translate(264.79 278.072)">
      <path id="Path_1027" data-name="Path 1027" d="M89.462,43.616V78.485a9.553,9.553,0,0,1-9.521,9.582H25.305a9.127,9.127,0,0,1-9.1-9.156V42.793a32.939,32.939,0,0,1,.473-5.563A32.421,32.421,0,0,1,32.731,14.5a31.75,31.75,0,0,1,11.19-3.773q1.007-.146,2.043-.222c.8-.058,1.611-.09,2.428-.09H56.48a32.949,32.949,0,0,1,5.036.385h0A32.593,32.593,0,0,1,70.6,13.6,33.229,33.229,0,0,1,88.858,37.22,33.693,33.693,0,0,1,89.462,43.616Z" fill="#95563e"/>
      <rect id="Rectangle_200" data-name="Rectangle 200" width="52.001" height="61.781" rx="26" transform="translate(26.7 20.801)" fill="#ffc58c"/>
      <path id="Path_1028" data-name="Path 1028" d="M52.836,26.143c0,.467-.023.928-.067,1.386h0a14.852,14.852,0,0,1-1.424,5.007C47.826,39.872,38.41,45.518,26.7,47.126a50.436,50.436,0,0,1-6.886.467q-1.824,0-3.6-.125V43.551a32.939,32.939,0,0,1,.473-5.563A32.421,32.421,0,0,1,32.731,15.253a31.75,31.75,0,0,1,11.19-3.773,20.74,20.74,0,0,1,8.17,10.079,14.441,14.441,0,0,1,.689,3.21h0C52.813,25.218,52.836,25.679,52.836,26.143Z" transform="translate(0 -0.758)" fill="#95563e"/>
      <path id="Path_1029" data-name="Path 1029" d="M136.754,32.545a22.077,22.077,0,0,1-.8,3.032c-.729,2.086-1.675,3.344-2.7,3.344h-.015a1.459,1.459,0,0,1-.368-.058c-1.013-.309-1.92-1.838-2.6-4.146a27.687,27.687,0,0,1-.747-3.449,28.182,28.182,0,0,1,.972-3.965,5.381,5.381,0,0,1,1.427-2.521,1.182,1.182,0,0,1,.26-.149.835.835,0,0,1,.309-.061h1.033a1,1,0,0,1,.642.26h0a4.724,4.724,0,0,1,1.167,1.876A28.667,28.667,0,0,1,136.754,32.545Z" transform="translate(-80.247 -10.028)" fill="#95563e"/>
      <path id="Path_1030" data-name="Path 1030" d="M178.037,44.551v3.093c-1.226.088-2.474.134-3.738.134a50.074,50.074,0,0,1-7.023-.487c-11.6-1.634-20.927-7.222-24.467-14.473a14.882,14.882,0,0,1-1.459-5.095h0a13.715,13.715,0,0,1,0-2.769h0a14.278,14.278,0,0,1,.689-3.21,20.64,20.64,0,0,1,8.045-10.014h0a32.594,32.594,0,0,1,9.086,2.807,33.23,33.23,0,0,1,18.255,23.618A33.7,33.7,0,0,1,178.037,44.551Z" transform="translate(-88.575 -0.935)" fill="#95563e"/>
    </g>
  </g>
</svg>
